{
.appVersion = "3409";
DisplayStrings = (
"/he-hb/samekh-hb/dalet-hb/vav-hb/alef-hb \012/he-hb/he-hb/he-hb n/he-hb/he-hb/he-hb \012/vav-hb/vav-hb/vav-hb n/vav-hb/vav-hb/vav-hb/vav-hb/space \012/finalmem-hb/het-hb/space/yod-hb/kaf-hb/space/finaltsadi-hb/tsadi-hb/vav-hb/pe-hb/tav-hb/he-hb/shin-hb/space/finalnun-hb/gimel-hb/zayin-hb/mem-hb/space/finalkaf-hb/resh-hb/dalet-hb/space/samekh-hb/nun-hb/space/qof-hb/bet-hb/alef-hb/space/finalpe-hb/lamed-hb/tet-hb/ayin-hb \012the/space quick/space brown/space fox/space jumps/space over/space the/space lazy/space dog\012Gveret/space levin\012GVERET/space LEVIN\012/finalnun-hb/yod-hb/vav-hb/lamed-hb/space/tav-hb/resh-hb/bet-hb/gimel-hb \012",
"ooooooooooooo\012nnnnnnnnnnnnn\012nonononononono\012\012nanoae\012nnnonanoaonooo\012nnnonbnobonooo\012nnnoncnoconooo\012nnnondnodonooo\012nnnonenoeonooo\012nnnonfnofonooot\012nnnongnogonooo\012nnnonhnohonoool\012nnnoninoionooo\012nnnonjnojonooo\012nnnonknokonooo\012nnnonlnolonooo\012nnnonmnomonooo\012nnnonpnoponooo\012nnnonqnoqonooo\012nnnonrnoronooo\012nnnonsnosonooo\012nnnontnotonooo\012nnnonunouonooo\012nnnonvnovonooo\012nnnonwnowonooo\012nnnonxnoxonooo\012nnnonynoyonooo\012nnnonznozonooo",

glyphs = (
{
color = 5;
glyphname = A;
lastChange = "2025-04-25 11:18:29 +0000";
layers = (
{
layerId = "15880153-BF49-4651-A558-57743A88E547";
paths = (
{
closed = 1;
nodes = (
"644 -45 OFFCURVE",
"660 -19 OFFCURVE",
"653 10 CURVE SMOOTH",
"613 182 OFFCURVE",
"579 349 OFFCURVE",
"526 574 CURVE SMOOTH",
"514 628 OFFCURVE",
"505 676 OFFCURVE",
"465 683 CURVE SMOOTH",
"447 686 OFFCURVE",
"426 684 OFFCURVE",
"407 662 CURVE SMOOTH",
"391 646 OFFCURVE",
"360 601 OFFCURVE",
"312 525 CURVE SMOOTH",
"209 369 OFFCURVE",
"106 221 OFFCURVE",
"30 83 CURVE SMOOTH",
"2 29 OFFCURVE",
"23 -1 OFFCURVE",
"49 -10 CURVE SMOOTH",
"100 -26 OFFCURVE",
"120 28 OFFCURVE",
"169 111 CURVE SMOOTH",
"256 253 OFFCURVE",
"344 385 OFFCURVE",
"428 519 CURVE",
"451 404 OFFCURVE",
"479 279 OFFCURVE",
"513 152 CURVE SMOOTH",
"536 65 OFFCURVE",
"551 14 OFFCURVE",
"561 -8 CURVE SMOOTH",
"573 -34 OFFCURVE",
"592 -45 OFFCURVE",
"610 -45 CURVE SMOOTH"
);
},
{
closed = 1;
nodes = (
"247 176 OFFCURVE",
"456 188 OFFCURVE",
"603 219 CURVE SMOOTH",
"641 227 OFFCURVE",
"668 242 OFFCURVE",
"668 270 CURVE SMOOTH",
"666 309 OFFCURVE",
"630 313 OFFCURVE",
"595 311 CURVE SMOOTH",
"473 302 OFFCURVE",
"200 280 OFFCURVE",
"89 262 CURVE SMOOTH",
"55 256 OFFCURVE",
"29 241 OFFCURVE",
"27 206 CURVE SMOOTH",
"27 169 OFFCURVE",
"58 155 OFFCURVE",
"116 161 CURVE SMOOTH"
);
}
);
width = 723;
}
);
leftKerningGroup = A;
rightKerningGroup = A;
unicode = 0041;
},
{
color = 5;
glyphname = B;
lastChange = "2025-04-25 11:18:29 +0000";
layers = (
{
layerId = "15880153-BF49-4651-A558-57743A88E547";
paths = (
{
closed = 1;
nodes = (
"421 -6 OFFCURVE",
"606 79 OFFCURVE",
"605 229 CURVE SMOOTH",
"605 311 OFFCURVE",
"513 395 OFFCURVE",
"353 401 CURVE",
"330 359 LINE",
"516 389 OFFCURVE",
"596 483 OFFCURVE",
"596 566 CURVE SMOOTH",
"596 654 OFFCURVE",
"524 708 OFFCURVE",
"398 708 CURVE SMOOTH",
"334 708 OFFCURVE",
"268 701 OFFCURVE",
"202 689 CURVE SMOOTH",
"183 686 OFFCURVE",
"164 674 OFFCURVE",
"153 645 CURVE SMOOTH",
"145 625 OFFCURVE",
"135 577 OFFCURVE",
"119 495 CURVE SMOOTH",
"91 351 OFFCURVE",
"68 211 OFFCURVE",
"53 89 CURVE SMOOTH",
"47 29 OFFCURVE",
"78 8 OFFCURVE",
"105 10 CURVE SMOOTH",
"159 14 OFFCURVE",
"157 71 OFFCURVE",
"172 167 CURVE SMOOTH",
"197 330 OFFCURVE",
"222 481 OFFCURVE",
"259 637 CURVE",
"190 581 LINE",
"242 599 OFFCURVE",
"315 615 OFFCURVE",
"381 615 CURVE SMOOTH",
"448 615 OFFCURVE",
"480 595 OFFCURVE",
"481 551 CURVE SMOOTH",
"481 484 OFFCURVE",
"394 419 OFFCURVE",
"184 408 CURVE",
"169 318 LINE",
"212 318 OFFCURVE",
"262 320 OFFCURVE",
"315 320 CURVE SMOOTH",
"396 320 OFFCURVE",
"485 304 OFFCURVE",
"485 221 CURVE SMOOTH",
"485 152 OFFCURVE",
"353 89 OFFCURVE",
"171 89 CURVE SMOOTH",
"114 89 OFFCURVE",
"69 95 OFFCURVE",
"13 105 CURVE SMOOTH",
"-14 110 OFFCURVE",
"-39 82 OFFCURVE",
"-39 55 CURVE SMOOTH",
"-39 40 OFFCURVE",
"-31 25 OFFCURVE",
"-10 16 CURVE SMOOTH",
"17 5 OFFCURVE",
"96 -6 OFFCURVE",
"147 -6 CURVE SMOOTH"
);
}
);
width = 636;
}
);
leftKerningGroup = B;
rightKerningGroup = B;
unicode = 0042;
},
{
color = 5;
glyphname = C;
lastChange = "2025-04-25 11:18:29 +0000";
layers = (
{
background = {
paths = (
{
closed = 1;
nodes = (
"529 253 OFFCURVE",
"600 230 OFFCURVE",
"576 174 CURVE",
"540 93 OFFCURVE",
"369 0 OFFCURVE",
"255 0 CURVE",
"-116 0 OFFCURVE",
"38 376 OFFCURVE",
"146 525 CURVE",
"215 619 OFFCURVE",
"296 683 OFFCURVE",
"449 635 CURVE",
"510 615 OFFCURVE",
"578 563 OFFCURVE",
"494 533 CURVE",
"434 526 OFFCURVE",
"374 610 OFFCURVE",
"287 527 CURVE",
"207 452 OFFCURVE",
"106 227 OFFCURVE",
"146 135 CURVE",
"177 63 OFFCURVE",
"319 94 OFFCURVE",
"381 131 CURVE",
"424 156 OFFCURVE",
"452 206 OFFCURVE",
"480 223 CURVE"
);
}
);
};
layerId = "15880153-BF49-4651-A558-57743A88E547";
paths = (
{
closed = 1;
nodes = (
"349 -14 OFFCURVE",
"451 26 OFFCURVE",
"529 111 CURVE SMOOTH",
"556 141 OFFCURVE",
"580 176 OFFCURVE",
"560 211 CURVE SMOOTH",
"542 241 OFFCURVE",
"505 232 OFFCURVE",
"479 207 CURVE SMOOTH",
"402 134 OFFCURVE",
"339 92 OFFCURVE",
"265 92 CURVE SMOOTH",
"185 92 OFFCURVE",
"146 163 OFFCURVE",
"154 252 CURVE SMOOTH",
"165 365 OFFCURVE",
"252 595 OFFCURVE",
"366 595 CURVE SMOOTH",
"400 595 OFFCURVE",
"433 582 OFFCURVE",
"463 560 CURVE SMOOTH",
"494 538 OFFCURVE",
"515 528 OFFCURVE",
"540 535 CURVE SMOOTH",
"557 540 OFFCURVE",
"567 558 OFFCURVE",
"561 584 CURVE SMOOTH",
"553 625 OFFCURVE",
"495 689 OFFCURVE",
"377 689 CURVE SMOOTH",
"159 689 OFFCURVE",
"54 432 OFFCURVE",
"42 226 CURVE SMOOTH",
"33 89 OFFCURVE",
"123 -14 OFFCURVE",
"247 -14 CURVE SMOOTH"
);
}
);
width = 594;
}
);
leftKerningGroup = G;
leftMetricsKey = G;
rightKerningGroup = C;
unicode = 0043;
},
{
color = 5;
glyphname = D;
lastChange = "2025-04-25 11:18:29 +0000";
layers = (
{
background = {
paths = (
{
closed = 1;
nodes = (
"186 114 LINE",
"262 63 OFFCURVE",
"435 106 OFFCURVE",
"487 175 CURVE",
"612 342 OFFCURVE",
"494 616 OFFCURVE",
"242 577 CURVE"
);
},
{
closed = 1;
nodes = (
"178 676 OFFCURVE",
"326 678 OFFCURVE",
"345 677 CURVE",
"513 668 OFFCURVE",
"652 498 OFFCURVE",
"658 361 CURVE",
"667 142 OFFCURVE",
"519 -4 OFFCURVE",
"262 -11 CURVE",
"233 -11 OFFCURVE",
"181 4 OFFCURVE",
"165 0 CURVE",
"150 -4 OFFCURVE",
"94 -72 OFFCURVE",
"57 -18 CURVE",
"28 23 OFFCURVE",
"86 203 OFFCURVE",
"95 263 CURVE",
"105 325 OFFCURVE",
"128 631 OFFCURVE",
"149 658 CURVE",
"154 665 OFFCURVE",
"161 671 OFFCURVE",
"169 673 CURVE"
);
}
);
};
layerId = "15880153-BF49-4651-A558-57743A88E547";
paths = (
{
closed = 1;
nodes = (
"115 -38 OFFCURVE",
"134 -26 OFFCURVE",
"144 1 CURVE SMOOTH",
"152 23 OFFCURVE",
"164 75 OFFCURVE",
"180 164 CURVE SMOOTH",
"210 319 OFFCURVE",
"228 472 OFFCURVE",
"242 605 CURVE",
"191 574 LINE",
"223 582 OFFCURVE",
"235 586 OFFCURVE",
"285 586 CURVE SMOOTH",
"415 586 OFFCURVE",
"538 441 OFFCURVE",
"538 340 CURVE SMOOTH",
"538 182 OFFCURVE",
"415 80 OFFCURVE",
"305 80 CURVE SMOOTH",
"222 80 OFFCURVE",
"172 115 OFFCURVE",
"150 165 CURVE",
"95 52 LINE",
"143 5 OFFCURVE",
"215 -23 OFFCURVE",
"301 -23 CURVE SMOOTH",
"488 -23 OFFCURVE",
"648 143 OFFCURVE",
"648 343 CURVE SMOOTH",
"648 482 OFFCURVE",
"482 683 OFFCURVE",
"302 683 CURVE SMOOTH",
"265 683 OFFCURVE",
"227 680 OFFCURVE",
"191 674 CURVE SMOOTH",
"137 665 OFFCURVE",
"139 612 OFFCURVE",
"123 517 CURVE SMOOTH",
"95 343 OFFCURVE",
"78 180 OFFCURVE",
"51 12 CURVE SMOOTH",
"46 -17 OFFCURVE",
"64 -42 OFFCURVE",
"97 -40 CURVE SMOOTH"
);
}
);
width = 679;
}
);
leftKerningGroup = E;
leftMetricsKey = E;
rightKerningGroup = O;
rightMetricsKey = O;
unicode = 0044;
},
{
color = 5;
glyphname = E;
lastChange = "2025-04-25 11:18:29 +0000";
layers = (
{
background = {
paths = (
{
closed = 1;
nodes = (
"490 416 LINE",
"509 412 OFFCURVE",
"513 388 OFFCURVE",
"512 374 CURVE",
"504 313 OFFCURVE",
"279 328 OFFCURVE",
"217 320 CURVE",
"180 80 LINE",
"248 81 OFFCURVE",
"557 110 OFFCURVE",
"590 74 CURVE",
"618 42 OFFCURVE",
"590 13 OFFCURVE",
"549 4 CURVE",
"446 16 OFFCURVE",
"124 -50 OFFCURVE",
"57 17 CURVE",
"52 23 OFFCURVE",
"46 29 OFFCURVE",
"45 37 CURVE",
"143 657 LINE",
"160 671 LINE",
"207 690 OFFCURVE",
"229 658 OFFCURVE",
"267 656 CURVE",
"338 652 OFFCURVE",
"466 680 OFFCURVE",
"538 676 CURVE",
"624 673 OFFCURVE",
"633 604 OFFCURVE",
"578 591 CURVE",
"529 580 OFFCURVE",
"253 570 OFFCURVE",
"241 560 CURVE",
"236 416 LINE"
);
}
);
};
layerId = "15880153-BF49-4651-A558-57743A88E547";
paths = (
{
closed = 1;
nodes = (
"252 -17 OFFCURVE",
"399 -9 OFFCURVE",
"506 -6 CURVE SMOOTH",
"564 -4 OFFCURVE",
"593 14 OFFCURVE",
"587 50 CURVE SMOOTH",
"581 85 OFFCURVE",
"552 96 OFFCURVE",
"518 97 CURVE SMOOTH",
"441 99 OFFCURVE",
"307 97 OFFCURVE",
"174 92 CURVE",
"191 186 LINE SMOOTH",
"217 335 OFFCURVE",
"234 482 OFFCURVE",
"246 608 CURVE SMOOTH",
"251 668 OFFCURVE",
"220 689 OFFCURVE",
"194 687 CURVE SMOOTH",
"140 681 OFFCURVE",
"143 624 OFFCURVE",
"128 529 CURVE SMOOTH",
"103 356 OFFCURVE",
"87 198 OFFCURVE",
"64 33 CURVE SMOOTH",
"60 4 OFFCURVE",
"78 -18 OFFCURVE",
"111 -18 CURVE SMOOTH"
);
},
{
closed = 1;
nodes = (
"247 308 OFFCURVE",
"355 315 OFFCURVE",
"437 318 CURVE SMOOTH",
"494 322 OFFCURVE",
"520 339 OFFCURVE",
"512 375 CURVE SMOOTH",
"503 409 OFFCURVE",
"475 419 OFFCURVE",
"440 419 CURVE SMOOTH",
"372 420 OFFCURVE",
"249 409 OFFCURVE",
"129 409 CURVE",
"139 303 LINE"
);
},
{
closed = 1;
nodes = (
"305 558 OFFCURVE",
"448 571 OFFCURVE",
"551 585 CURVE SMOOTH",
"590 590 OFFCURVE",
"618 604 OFFCURVE",
"619 632 CURVE SMOOTH",
"621 671 OFFCURVE",
"585 677 OFFCURVE",
"550 677 CURVE SMOOTH",
"469 677 OFFCURVE",
"292 667 OFFCURVE",
"206 655 CURVE",
"212 551 LINE"
);
}
);
width = 639;
}
);
leftKerningGroup = E;
rightKerningGroup = E;
unicode = 0045;
},
{
color = 5;
glyphname = F;
lastChange = "2025-04-25 11:18:29 +0000";
layers = (
{
layerId = "15880153-BF49-4651-A558-57743A88E547";
paths = (
{
closed = 1;
nodes = (
"129 -17 OFFCURVE",
"148 -4 OFFCURVE",
"158 23 CURVE SMOOTH",
"165 46 OFFCURVE",
"176 98 OFFCURVE",
"191 186 CURVE SMOOTH",
"217 335 OFFCURVE",
"234 482 OFFCURVE",
"246 608 CURVE SMOOTH",
"251 668 OFFCURVE",
"220 689 OFFCURVE",
"194 687 CURVE SMOOTH",
"140 681 OFFCURVE",
"143 624 OFFCURVE",
"128 529 CURVE SMOOTH",
"103 356 OFFCURVE",
"87 198 OFFCURVE",
"64 33 CURVE SMOOTH",
"60 4 OFFCURVE",
"78 -21 OFFCURVE",
"111 -18 CURVE SMOOTH"
);
},
{
closed = 1;
nodes = (
"252 270 OFFCURVE",
"375 266 OFFCURVE",
"443 270 CURVE SMOOTH",
"478 272 OFFCURVE",
"505 283 OFFCURVE",
"512 318 CURVE SMOOTH",
"518 354 OFFCURVE",
"492 370 OFFCURVE",
"435 371 CURVE SMOOTH",
"352 370 OFFCURVE",
"244 371 OFFCURVE",
"136 370 CURVE",
"132 264 LINE"
);
},
{
closed = 1;
nodes = (
"302 554 OFFCURVE",
"446 559 OFFCURVE",
"549 568 CURVE SMOOTH",
"588 571 OFFCURVE",
"617 583 OFFCURVE",
"620 611 CURVE SMOOTH",
"624 650 OFFCURVE",
"588 658 OFFCURVE",
"553 660 CURVE SMOOTH",
"472 664 OFFCURVE",
"295 663 OFFCURVE",
"208 656 CURVE",
"209 552 LINE"
);
}
);
width = 555;
}
);
leftKerningGroup = E;
leftMetricsKey = E;
rightKerningGroup = F;
unicode = 0046;
},
{
color = 5;
glyphname = G;
lastChange = "2025-04-25 11:18:29 +0000";
layers = (
{
background = {
paths = (
{
closed = 1;
nodes = (
"381 619 OFFCURVE",
"324 599 OFFCURVE",
"266 518 CURVE",
"214 445 OFFCURVE",
"120 195 OFFCURVE",
"179 123 CURVE",
"276 5 OFFCURVE",
"456 197 OFFCURVE",
"446 278 CURVE",
"378 259 OFFCURVE",
"260 306 OFFCURVE",
"341 349 CURVE",
"361 359 OFFCURVE",
"591 403 OFFCURVE",
"617 401 CURVE",
"658 398 OFFCURVE",
"702 367 OFFCURVE",
"685 336 CURVE",
"665 295 OFFCURVE",
"587 314 OFFCURVE",
"574 298 CURVE",
"565 286 OFFCURVE",
"574 258 OFFCURVE",
"568 240 CURVE",
"519 102 OFFCURVE",
"373 -74 OFFCURVE",
"150 21 CURVE",
"-12 91 OFFCURVE",
"36 269 OFFCURVE",
"68 380 CURVE",
"111 528 OFFCURVE",
"222 759 OFFCURVE",
"483 664 CURVE",
"534 646 OFFCURVE",
"677 551 OFFCURVE",
"580 526 CURVE",
"519 510 OFFCURVE",
"517 547 OFFCURVE",
"494 559 CURVE"
);
}
);
};
layerId = "15880153-BF49-4651-A558-57743A88E547";
paths = (
{
closed = 1;
nodes = (
"427 -23 OFFCURVE",
"564 134 OFFCURVE",
"564 323 CURVE",
"454 320 LINE",
"454 174 OFFCURVE",
"357 80 OFFCURVE",
"271 80 CURVE SMOOTH",
"187 80 OFFCURVE",
"145 156 OFFCURVE",
"154 252 CURVE SMOOTH",
"165 365 OFFCURVE",
"252 595 OFFCURVE",
"366 595 CURVE SMOOTH",
"416 595 OFFCURVE",
"467 578 OFFCURVE",
"507 545 CURVE SMOOTH",
"539 518 OFFCURVE",
"560 506 OFFCURVE",
"585 513 CURVE SMOOTH",
"602 518 OFFCURVE",
"612 536 OFFCURVE",
"606 562 CURVE SMOOTH",
"598 603 OFFCURVE",
"524 689 OFFCURVE",
"377 689 CURVE SMOOTH",
"159 689 OFFCURVE",
"54 432 OFFCURVE",
"42 226 CURVE SMOOTH",
"33 84 OFFCURVE",
"131 -23 OFFCURVE",
"267 -23 CURVE SMOOTH"
);
},
{
closed = 1;
nodes = (
"446 281 OFFCURVE",
"561 296 OFFCURVE",
"608 306 CURVE SMOOTH",
"646 315 OFFCURVE",
"676 323 OFFCURVE",
"678 351 CURVE SMOOTH",
"681 390 OFFCURVE",
"645 395 OFFCURVE",
"610 398 CURVE SMOOTH",
"582 401 OFFCURVE",
"419 387 OFFCURVE",
"381 382 CURVE SMOOTH",
"347 377 OFFCURVE",
"319 368 OFFCURVE",
"314 333 CURVE SMOOTH",
"309 296 OFFCURVE",
"339 278 OFFCURVE",
"397 279 CURVE SMOOTH"
);
}
);
width = 662;
}
);
leftKerningGroup = G;
rightKerningGroup = G;
unicode = 0047;
},
{
color = 5;
glyphname = H;
lastChange = "2025-04-25 11:18:29 +0000";
layers = (
{
background = {
paths = (
{
closed = 1;
nodes = (
"616 418 LINE",
"641 467 OFFCURVE",
"654 661 OFFCURVE",
"714 676 CURVE",
"830 701 OFFCURVE",
"718 461 OFFCURVE",
"728 422 CURVE",
"798 397 LINE",
"862 307 OFFCURVE",
"722 335 OFFCURVE",
"704 307 CURVE",
"684 257 OFFCURVE",
"629 -35 OFFCURVE",
"600 -54 CURVE",
"561 -77 OFFCURVE",
"512 -63 OFFCURVE",
"509 -16 CURVE",
"596 314 LINE",
"210 292 LINE",
"196 280 OFFCURVE",
"156 41 OFFCURVE",
"119 -6 CURVE",
"88 -46 OFFCURVE",
"16 -23 OFFCURVE",
"25 42 CURVE",
"33 113 OFFCURVE",
"102 227 OFFCURVE",
"105 303 CURVE",
"106 323 OFFCURVE",
"88 334 OFFCURVE",
"90 358 CURVE",
"92 383 OFFCURVE",
"118 382 OFFCURVE",
"127 405 CURVE",
"144 452 OFFCURVE",
"177 677 OFFCURVE",
"215 689 CURVE",
"352 732 OFFCURVE",
"226 451 OFFCURVE",
"240 396 CURVE"
);
}
);
};
layerId = "15880153-BF49-4651-A558-57743A88E547";
paths = (
{
closed = 1;
nodes = (
"589 -45 OFFCURVE",
"608 -34 OFFCURVE",
"620 -8 CURVE SMOOTH",
"630 14 OFFCURVE",
"645 65 OFFCURVE",
"668 152 CURVE SMOOTH",
"710 309 OFFCURVE",
"743 463 OFFCURVE",
"768 597 CURVE SMOOTH",
"778 657 OFFCURVE",
"749 680 OFFCURVE",
"722 680 CURVE SMOOTH",
"668 679 OFFCURVE",
"666 622 OFFCURVE",
"644 528 CURVE SMOOTH",
"602 349 OFFCURVE",
"568 182 OFFCURVE",
"528 10 CURVE SMOOTH",
"521 -19 OFFCURVE",
"537 -45 OFFCURVE",
"571 -45 CURVE SMOOTH"
);
},
{
closed = 1;
nodes = (
"148 -15 OFFCURVE",
"151 42 OFFCURVE",
"174 136 CURVE SMOOTH",
"218 309 OFFCURVE",
"253 471 OFFCURVE",
"295 637 CURVE SMOOTH",
"303 666 OFFCURVE",
"287 692 OFFCURVE",
"253 693 CURVE SMOOTH",
"235 693 OFFCURVE",
"216 682 OFFCURVE",
"204 656 CURVE SMOOTH",
"193 635 OFFCURVE",
"177 584 OFFCURVE",
"153 497 CURVE SMOOTH",
"109 346 OFFCURVE",
"76 198 OFFCURVE",
"49 69 CURVE SMOOTH",
"38 9 OFFCURVE",
"67 -14 OFFCURVE",
"94 -15 CURVE SMOOTH"
);
},
{
closed = 1;
nodes = (
"319 298 OFFCURVE",
"571 301 OFFCURVE",
"750 325 CURVE SMOOTH",
"789 330 OFFCURVE",
"817 344 OFFCURVE",
"818 372 CURVE SMOOTH",
"820 411 OFFCURVE",
"784 417 OFFCURVE",
"749 417 CURVE SMOOTH",
"603 417 OFFCURVE",
"274 406 OFFCURVE",
"141 393 CURVE SMOOTH",
"107 390 OFFCURVE",
"79 377 OFFCURVE",
"75 342 CURVE SMOOTH",
"72 305 OFFCURVE",
"102 289 OFFCURVE",
"160 291 CURVE SMOOTH"
);
}
);
width = 819;
}
);
leftKerningGroup = H;
rightKerningGroup = H;
unicode = 0048;
},
{
color = 5;
glyphname = I;
lastChange = "2025-04-25 11:18:29 +0000";
layers = (
{
layerId = "15880153-BF49-4651-A558-57743A88E547";
paths = (
{
closed = 1;
nodes = (
"96 -14 OFFCURVE",
"115 -3 OFFCURVE",
"127 24 CURVE SMOOTH",
"136 46 OFFCURVE",
"150 97 OFFCURVE",
"172 184 CURVE SMOOTH",
"208 331 OFFCURVE",
"235 476 OFFCURVE",
"256 601 CURVE SMOOTH",
"265 661 OFFCURVE",
"236 684 OFFCURVE",
"209 683 CURVE SMOOTH",
"155 681 OFFCURVE",
"154 624 OFFCURVE",
"133 530 CURVE SMOOTH",
"96 360 OFFCURVE",
"69 203 OFFCURVE",
"34 40 CURVE SMOOTH",
"28 11 OFFCURVE",
"44 -15 OFFCURVE",
"78 -14 CURVE SMOOTH"
);
}
);
width = 279;
}
);
leftKerningGroup = I;
rightKerningGroup = I;
unicode = 0049;
},
{
color = 5;
glyphname = J;
lastChange = "2025-04-25 11:18:29 +0000";
layers = (
{
layerId = "15880153-BF49-4651-A558-57743A88E547";
paths = (
{
closed = 1;
nodes = (
"341 -12 OFFCURVE",
"429 99 OFFCURVE",
"511 311 CURVE SMOOTH",
"553 420 OFFCURVE",
"569 518 OFFCURVE",
"574 621 CURVE SMOOTH",
"576 663 OFFCURVE",
"561 683 OFFCURVE",
"532 684 CURVE SMOOTH",
"504 685 OFFCURVE",
"476 664 OFFCURVE",
"473 633 CURVE SMOOTH",
"463 540 OFFCURVE",
"448 439 OFFCURVE",
"410 326 CURVE SMOOTH",
"354 160 OFFCURVE",
"276 94 OFFCURVE",
"199 94 CURVE SMOOTH",
"145 94 OFFCURVE",
"109 122 OFFCURVE",
"80 178 CURVE SMOOTH",
"65 208 OFFCURVE",
"47 216 OFFCURVE",
"23 209 CURVE SMOOTH",
"2 201 OFFCURVE",
"-11 178 OFFCURVE",
"-2 148 CURVE SMOOTH",
"17 66 OFFCURVE",
"74 -12 OFFCURVE",
"168 -12 CURVE SMOOTH"
);
}
);
width = 557;
}
);
leftKerningGroup = J;
rightKerningGroup = U;
rightMetricsKey = U;
unicode = 004A;
},
{
color = 5;
glyphname = K;
lastChange = "2025-04-25 11:18:29 +0000";
layers = (
{
background = {
paths = (
{
closed = 1;
nodes = (
"251 411 OFFCURVE",
"245 425 OFFCURVE",
"251 431 CURVE",
"341 511 OFFCURVE",
"424 600 OFFCURVE",
"509 682 CURVE",
"576 709 OFFCURVE",
"613 685 OFFCURVE",
"588 622 CURVE",
"367 393 LINE",
"402 295 OFFCURVE",
"512 161 OFFCURVE",
"534 65 CURVE",
"550 -8 OFFCURVE",
"491 -34 OFFCURVE",
"434 19 CURVE",
"294 316 LINE",
"287 320 OFFCURVE",
"194 237 OFFCURVE",
"187 223 CURVE",
"161 170 OFFCURVE",
"161 43 OFFCURVE",
"126 2 CURVE",
"103 -25 OFFCURVE",
"52 -29 OFFCURVE",
"34 2 CURVE",
"2 59 OFFCURVE",
"167 574 OFFCURVE",
"167 674 CURVE",
"328 754 OFFCURVE",
"234 486 OFFCURVE",
"225 418 CURVE"
);
}
);
};
layerId = "15880153-BF49-4651-A558-57743A88E547";
paths = (
{
closed = 1;
nodes = (
"314 340 OFFCURVE",
"456 477 OFFCURVE",
"606 605 CURVE SMOOTH",
"630 626 OFFCURVE",
"632 650 OFFCURVE",
"621 668 CURVE SMOOTH",
"603 694 OFFCURVE",
"566 704 OFFCURVE",
"532 676 CURVE SMOOTH",
"393 559 OFFCURVE",
"248 422 OFFCURVE",
"115 295 CURVE",
"170 205 LINE"
);
},
{
closed = 1;
nodes = (
"96 -14 OFFCURVE",
"115 -3 OFFCURVE",
"127 24 CURVE SMOOTH",
"136 46 OFFCURVE",
"150 97 OFFCURVE",
"172 184 CURVE SMOOTH",
"208 331 OFFCURVE",
"235 476 OFFCURVE",
"256 601 CURVE SMOOTH",
"265 661 OFFCURVE",
"236 684 OFFCURVE",
"209 683 CURVE SMOOTH",
"155 681 OFFCURVE",
"154 624 OFFCURVE",
"133 530 CURVE SMOOTH",
"96 360 OFFCURVE",
"69 203 OFFCURVE",
"34 40 CURVE SMOOTH",
"28 11 OFFCURVE",
"44 -15 OFFCURVE",
"78 -14 CURVE SMOOTH"
);
},
{
closed = 1;
nodes = (
"560 0 OFFCURVE",
"579 30 OFFCURVE",
"558 66 CURVE SMOOTH",
"494 179 OFFCURVE",
"431 307 OFFCURVE",
"368 432 CURVE",
"289 352 LINE",
"354 226 OFFCURVE",
"432 73 OFFCURVE",
"468 22 CURVE SMOOTH",
"495 -14 OFFCURVE",
"513 -19 OFFCURVE",
"535 -10 CURVE SMOOTH"
);
}
);
width = 620;
}
);
leftKerningGroup = I;
leftMetricsKey = I;
rightKerningGroup = K;
unicode = 004B;
},
{
color = 5;
glyphname = L;
lastChange = "2025-04-25 11:18:29 +0000";
layers = (
{
layerId = "15880153-BF49-4651-A558-57743A88E547";
paths = (
{
closed = 1;
nodes = (
"231 -17 OFFCURVE",
"355 1 OFFCURVE",
"446 4 CURVE SMOOTH",
"504 6 OFFCURVE",
"533 24 OFFCURVE",
"527 60 CURVE SMOOTH",
"521 95 OFFCURVE",
"492 106 OFFCURVE",
"458 107 CURVE SMOOTH",
"394 109 OFFCURVE",
"287 97 OFFCURVE",
"177 92 CURVE",
"191 186 LINE SMOOTH",
"213 335 OFFCURVE",
"234 482 OFFCURVE",
"246 608 CURVE SMOOTH",
"251 668 OFFCURVE",
"220 689 OFFCURVE",
"194 687 CURVE SMOOTH",
"140 681 OFFCURVE",
"143 624 OFFCURVE",
"128 529 CURVE SMOOTH",
"103 356 OFFCURVE",
"87 198 OFFCURVE",
"64 33 CURVE SMOOTH",
"60 4 OFFCURVE",
"78 -18 OFFCURVE",
"111 -18 CURVE SMOOTH"
);
}
);
width = 576;
}
);
leftKerningGroup = E;
leftMetricsKey = E;
rightKerningGroup = L;
rightMetricsKey = E;
unicode = 004C;
},
{
color = 5;
glyphname = M;
lastChange = "2025-04-25 11:18:29 +0000";
layers = (
{
layerId = "15880153-BF49-4651-A558-57743A88E547";
paths = (
{
closed = 1;
nodes = (
"749 -3 OFFCURVE",
"776 18 OFFCURVE",
"774 59 CURVE SMOOTH",
"765 245 OFFCURVE",
"781 469 OFFCURVE",
"759 647 CURVE SMOOTH",
"754 684 OFFCURVE",
"736 701 OFFCURVE",
"709 701 CURVE SMOOTH",
"687 701 OFFCURVE",
"666 687 OFFCURVE",
"648 658 CURVE SMOOTH",
"566 527 OFFCURVE",
"491 396 OFFCURVE",
"415 270 CURVE",
"431 266 LINE",
"419 392 OFFCURVE",
"403 530 OFFCURVE",
"389 647 CURVE SMOOTH",
"384 684 OFFCURVE",
"366 701 OFFCURVE",
"339 701 CURVE SMOOTH",
"317 701 OFFCURVE",
"296 687 OFFCURVE",
"278 658 CURVE SMOOTH",
"156 465 OFFCURVE",
"64 258 OFFCURVE",
"-27 70 CURVE SMOOTH",
"-41 41 OFFCURVE",
"-37 17 OFFCURVE",
"-21 3 CURVE SMOOTH",
"3 -18 OFFCURVE",
"43 -18 OFFCURVE",
"62 22 CURVE SMOOTH",
"133 175 OFFCURVE",
"233 369 OFFCURVE",
"309 510 CURVE",
"294 511 LINE",
"307 420 OFFCURVE",
"330 229 OFFCURVE",
"340 153 CURVE SMOOTH",
"343 133 OFFCURVE",
"352 104 OFFCURVE",
"375 95 CURVE SMOOTH",
"400 85 OFFCURVE",
"425 88 OFFCURVE",
"445 120 CURVE SMOOTH",
"521 244 OFFCURVE",
"612 398 OFFCURVE",
"679 510 CURVE",
"664 511 LINE",
"668 394 OFFCURVE",
"672 128 OFFCURVE",
"677 53 CURVE SMOOTH",
"680 8 OFFCURVE",
"698 -3 OFFCURVE",
"722 -3 CURVE SMOOTH"
);
}
);
width = 830;
}
);
leftKerningGroup = M;
rightKerningGroup = M;
unicode = 004D;
},
{
color = 5;
glyphname = N;
lastChange = "2025-04-25 11:18:29 +0000";
layers = (
{
background = {
paths = (
{
closed = 1;
nodes = (
"591 -20 LINE",
"549 -49 OFFCURVE",
"507 -24 OFFCURVE",
"481 3 CURVE",
"414 71 OFFCURVE",
"340 250 OFFCURVE",
"279 336 CURVE",
"262 361 OFFCURVE",
"251 389 OFFCURVE",
"239 414 CURVE",
"219 415 OFFCURVE",
"217 391 OFFCURVE",
"215 381 CURVE",
"189 275 OFFCURVE",
"193 136 OFFCURVE",
"153 35 CURVE",
"140 1 OFFCURVE",
"125 -23 OFFCURVE",
"69 -11 CURVE",
"23 -1 OFFCURVE",
"32 47 OFFCURVE",
"34 75 CURVE",
"42 201 OFFCURVE",
"84 383 OFFCURVE",
"113 510 CURVE",
"121 547 OFFCURVE",
"130 646 OFFCURVE",
"175 660 CURVE",
"196 667 OFFCURVE",
"227 663 OFFCURVE",
"240 649 CURVE",
"277 608 OFFCURVE",
"308 513 OFFCURVE",
"339 464 CURVE",
"396 374 OFFCURVE",
"431 286 OFFCURVE",
"498 201 CURVE",
"613 646 LINE",
"622 683 OFFCURVE",
"696 684 OFFCURVE",
"716 656 CURVE"
);
}
);
};
layerId = "15880153-BF49-4651-A558-57743A88E547";
paths = (
{
closed = 1;
nodes = (
"554 -14 OFFCURVE",
"573 -3 OFFCURVE",
"585 24 CURVE SMOOTH",
"594 46 OFFCURVE",
"608 97 OFFCURVE",
"630 184 CURVE SMOOTH",
"666 331 OFFCURVE",
"693 476 OFFCURVE",
"714 601 CURVE SMOOTH",
"723 661 OFFCURVE",
"694 684 OFFCURVE",
"667 683 CURVE SMOOTH",
"613 681 OFFCURVE",
"612 624 OFFCURVE",
"591 530 CURVE SMOOTH",
"562 398 OFFCURVE",
"540 277 OFFCURVE",
"515 152 CURVE",
"454 261 OFFCURVE",
"394 372 OFFCURVE",
"325 489 CURVE SMOOTH",
"276 571 OFFCURVE",
"258 626 OFFCURVE",
"206 610 CURVE SMOOTH",
"181 604 OFFCURVE",
"160 572 OFFCURVE",
"187 518 CURVE SMOOTH",
"245 406 OFFCURVE",
"316 276 OFFCURVE",
"395 148 CURVE SMOOTH",
"444 71 OFFCURVE",
"472 28 OFFCURVE",
"487 9 CURVE SMOOTH",
"502 -7 OFFCURVE",
"514 -14 OFFCURVE",
"536 -14 CURVE SMOOTH"
);
},
{
closed = 1;
nodes = (
"154 -13 OFFCURVE",
"152 44 OFFCURVE",
"168 139 CURVE SMOOTH",
"196 311 OFFCURVE",
"215 469 OFFCURVE",
"241 633 CURVE SMOOTH",
"246 663 OFFCURVE",
"229 688 OFFCURVE",
"195 685 CURVE SMOOTH",
"177 684 OFFCURVE",
"158 672 OFFCURVE",
"148 645 CURVE SMOOTH",
"140 622 OFFCURVE",
"129 570 OFFCURVE",
"111 482 CURVE SMOOTH",
"83 334 OFFCURVE",
"64 188 OFFCURVE",
"49 62 CURVE SMOOTH",
"43 1 OFFCURVE",
"73 -20 OFFCURVE",
"100 -18 CURVE SMOOTH"
);
}
);
width = 737;
}
);
leftKerningGroup = E;
leftMetricsKey = E;
rightKerningGroup = I;
rightMetricsKey = I;
unicode = 004E;
},
{
color = 5;
glyphname = O;
lastChange = "2025-04-25 11:18:29 +0000";
layers = (
{
background = {
paths = (
{
closed = 1;
nodes = (
"367 572 OFFCURVE",
"278 474 OFFCURVE",
"262 455 CURVE",
"189 366 OFFCURVE",
"86 199 OFFCURVE",
"199 109 CURVE",
"371 -25 OFFCURVE",
"616 262 OFFCURVE",
"515 433 CURVE",
"487 483 OFFCURVE",
"415 510 OFFCURVE",
"391 558 CURVE"
);
},
{
closed = 1;
nodes = (
"553 692 OFFCURVE",
"491 617 OFFCURVE",
"506 589 CURVE",
"514 574 OFFCURVE",
"569 542 OFFCURVE",
"586 522 CURVE",
"697 404 OFFCURVE",
"673 241 OFFCURVE",
"579 121 CURVE",
"374 -145 OFFCURVE",
"-45 -17 OFFCURVE",
"39 294 CURVE",
"76 431 OFFCURVE",
"260 681 OFFCURVE",
"448 688 CURVE"
);
}
);
};
layerId = "15880153-BF49-4651-A558-57743A88E547";
paths = (
{
closed = 1;
nodes = (
"502 -23 OFFCURVE",
"662 143 OFFCURVE",
"662 343 CURVE SMOOTH",
"662 460 OFFCURVE",
"582 572 OFFCURVE",
"437 622 CURVE",
"361 554 LINE",
"479 513 OFFCURVE",
"552 428 OFFCURVE",
"552 340 CURVE SMOOTH",
"552 182 OFFCURVE",
"429 80 OFFCURVE",
"319 80 CURVE SMOOTH",
"201 80 OFFCURVE",
"150 149 OFFCURVE",
"150 234 CURVE SMOOTH",
"150 344 OFFCURVE",
"250 457 OFFCURVE",
"404 565 CURVE SMOOTH",
"461 605 OFFCURVE",
"498 621 OFFCURVE",
"499 659 CURVE SMOOTH",
"500 680 OFFCURVE",
"485 697 OFFCURVE",
"458 699 CURVE SMOOTH",
"427 702 OFFCURVE",
"395 685 OFFCURVE",
"357 659 CURVE SMOOTH",
"166 529 OFFCURVE",
"40 358 OFFCURVE",
"40 216 CURVE SMOOTH",
"40 81 OFFCURVE",
"150 -23 OFFCURVE",
"315 -23 CURVE SMOOTH"
);
}
);
width = 693;
}
);
leftKerningGroup = O;
rightKerningGroup = O;
unicode = 004F;
},
{
color = 5;
glyphname = P;
lastChange = "2025-04-25 11:18:29 +0000";
layers = (
{
layerId = "15880153-BF49-4651-A558-57743A88E547";
paths = (
{
closed = 1;
nodes = (
"439 242 OFFCURVE",
"631 382 OFFCURVE",
"631 506 CURVE SMOOTH",
"631 611 OFFCURVE",
"539 674 OFFCURVE",
"443 683 CURVE SMOOTH",
"359 691 OFFCURVE",
"288 676 OFFCURVE",
"204 637 CURVE",
"184 529 LINE",
"240 554 OFFCURVE",
"311 586 OFFCURVE",
"385 582 CURVE SMOOTH",
"479 578 OFFCURVE",
"509 533 OFFCURVE",
"509 484 CURVE SMOOTH",
"509 420 OFFCURVE",
"378 325 OFFCURVE",
"180 316 CURVE",
"162 210 LINE"
);
},
{
closed = 1;
nodes = (
"96 -14 OFFCURVE",
"115 -3 OFFCURVE",
"127 24 CURVE SMOOTH",
"136 46 OFFCURVE",
"150 97 OFFCURVE",
"172 184 CURVE SMOOTH",
"208 331 OFFCURVE",
"235 476 OFFCURVE",
"256 601 CURVE SMOOTH",
"265 661 OFFCURVE",
"236 684 OFFCURVE",
"209 683 CURVE SMOOTH",
"155 681 OFFCURVE",
"154 624 OFFCURVE",
"133 530 CURVE SMOOTH",
"96 360 OFFCURVE",
"69 203 OFFCURVE",
"34 40 CURVE SMOOTH",
"28 11 OFFCURVE",
"44 -15 OFFCURVE",
"78 -14 CURVE SMOOTH"
);
}
);
width = 602;
}
);
leftKerningGroup = I;
rightKerningGroup = P;
unicode = 0050;
},
{
color = 5;
glyphname = Q;
lastChange = "2025-04-25 11:18:29 +0000";
layers = (
{
layerId = "15880153-BF49-4651-A558-57743A88E547";
paths = (
{
closed = 1;
nodes = (
"504 -23 OFFCURVE",
"664 143 OFFCURVE",
"664 343 CURVE SMOOTH",
"664 468 OFFCURVE",
"588 587 OFFCURVE",
"449 662 CURVE",
"373 594 LINE",
"485 528 OFFCURVE",
"554 436 OFFCURVE",
"554 340 CURVE SMOOTH",
"554 182 OFFCURVE",
"431 80 OFFCURVE",
"321 80 CURVE SMOOTH",
"203 80 OFFCURVE",
"152 149 OFFCURVE",
"152 234 CURVE SMOOTH",
"152 344 OFFCURVE",
"234 466 OFFCURVE",
"376 565 CURVE SMOOTH",
"433 605 OFFCURVE",
"470 621 OFFCURVE",
"471 659 CURVE SMOOTH",
"472 680 OFFCURVE",
"457 697 OFFCURVE",
"430 699 CURVE SMOOTH",
"399 702 OFFCURVE",
"367 685 OFFCURVE",
"329 659 CURVE SMOOTH",
"150 537 OFFCURVE",
"42 358 OFFCURVE",
"42 216 CURVE SMOOTH",
"42 81 OFFCURVE",
"152 -23 OFFCURVE",
"317 -23 CURVE SMOOTH"
);
},
{
closed = 1;
nodes = (
"646 -84 OFFCURVE",
"626 -55 OFFCURVE",
"605 -26 CURVE SMOOTH",
"552 47 OFFCURVE",
"448 182 OFFCURVE",
"396 244 CURVE SMOOTH",
"374 270 OFFCURVE",
"344 281 OFFCURVE",
"314 262 CURVE SMOOTH",
"284 240 OFFCURVE",
"293 209 OFFCURVE",
"329 164 CURVE SMOOTH",
"389 89 OFFCURVE",
"463 -10 OFFCURVE",
"535 -86 CURVE SMOOTH",
"562 -114 OFFCURVE",
"592 -125 OFFCURVE",
"615 -108 CURVE SMOOTH"
);
}
);
width = 695;
}
);
leftKerningGroup = O;
leftMetricsKey = O;
rightKerningGroup = O;
unicode = 0051;
},
{
color = 5;
glyphname = R;
lastChange = "2025-04-25 11:18:29 +0000";
layers = (
{
background = {
paths = (
{
closed = 1;
nodes = (
"235 382 LINE",
"250 371 OFFCURVE",
"629 477 OFFCURVE",
"458 568 CURVE",
"402 598 OFFCURVE",
"322 593 OFFCURVE",
"266 568 CURVE"
);
},
{
closed = 1;
nodes = (
"562 -22 OFFCURVE",
"519 -11 OFFCURVE",
"493 7 CURVE",
"436 45 OFFCURVE",
"291 277 OFFCURVE",
"256 283 CURVE",
"207 268 LINE",
"179 218 OFFCURVE",
"170 41 OFFCURVE",
"130 7 CURVE",
"108 -12 OFFCURVE",
"53 -15 OFFCURVE",
"26 2 CURVE",
"13 21 LINE",
"160 658 LINE",
"193 689 OFFCURVE",
"240 662 OFFCURVE",
"278 664 CURVE",
"313 667 OFFCURVE",
"353 682 OFFCURVE",
"388 684 CURVE",
"477 683 OFFCURVE",
"582 635 OFFCURVE",
"617 578 CURVE",
"697 446 OFFCURVE",
"522 370 OFFCURVE",
"387 311 CURVE",
"385 291 OFFCURVE",
"584 106 OFFCURVE",
"602 56 CURVE",
"609 38 OFFCURVE",
"611 14 OFFCURVE",
"592 0 CURVE"
);
}
);
};
layerId = "15880153-BF49-4651-A558-57743A88E547";
paths = (
{
closed = 1;
nodes = (
"445 290 OFFCURVE",
"634 420 OFFCURVE",
"634 536 CURVE SMOOTH",
"634 623 OFFCURVE",
"540 674 OFFCURVE",
"443 683 CURVE SMOOTH",
"359 691 OFFCURVE",
"288 676 OFFCURVE",
"204 637 CURVE",
"184 529 LINE",
"240 554 OFFCURVE",
"311 586 OFFCURVE",
"385 582 CURVE SMOOTH",
"481 578 OFFCURVE",
"512 548 OFFCURVE",
"512 514 CURVE SMOOTH",
"512 458 OFFCURVE",
"384 374 OFFCURVE",
"190 366 CURVE",
"172 260 LINE"
);
},
{
closed = 1;
nodes = (
"96 -14 OFFCURVE",
"115 -3 OFFCURVE",
"127 24 CURVE SMOOTH",
"136 46 OFFCURVE",
"150 97 OFFCURVE",
"172 184 CURVE SMOOTH",
"208 331 OFFCURVE",
"235 476 OFFCURVE",
"256 601 CURVE SMOOTH",
"265 661 OFFCURVE",
"236 684 OFFCURVE",
"209 683 CURVE SMOOTH",
"155 681 OFFCURVE",
"154 624 OFFCURVE",
"133 530 CURVE SMOOTH",
"96 360 OFFCURVE",
"69 203 OFFCURVE",
"34 40 CURVE SMOOTH",
"28 11 OFFCURVE",
"44 -15 OFFCURVE",
"78 -14 CURVE SMOOTH"
);
},
{
closed = 1;
nodes = (
"622 3 OFFCURVE",
"615 38 OFFCURVE",
"579 82 CURVE SMOOTH",
"516 153 OFFCURVE",
"436 252 OFFCURVE",
"354 347 CURVE",
"251 302 LINE",
"344 190 OFFCURVE",
"451 65 OFFCURVE",
"510 4 CURVE SMOOTH",
"533 -21 OFFCURVE",
"561 -35 OFFCURVE",
"590 -17 CURVE SMOOTH"
);
}
);
width = 628;
}
);
leftKerningGroup = I;
leftMetricsKey = I;
rightKerningGroup = R;
unicode = 0052;
},
{
color = 5;
glyphname = S;
lastChange = "2025-04-25 11:18:29 +0000";
layers = (
{
layerId = "15880153-BF49-4651-A558-57743A88E547";
paths = (
{
closed = 1;
nodes = (
"459 -24 OFFCURVE",
"530 59 OFFCURVE",
"530 187 CURVE SMOOTH",
"530 254 OFFCURVE",
"486 319 OFFCURVE",
"367 390 CURVE SMOOTH",
"237 468 OFFCURVE",
"213 499 OFFCURVE",
"213 541 CURVE SMOOTH",
"213 579 OFFCURVE",
"258 610 OFFCURVE",
"319 608 CURVE SMOOTH",
"421 604 OFFCURVE",
"456 497 OFFCURVE",
"512 497 CURVE SMOOTH",
"535 497 OFFCURVE",
"548 511 OFFCURVE",
"548 537 CURVE SMOOTH",
"548 615 OFFCURVE",
"448 700 OFFCURVE",
"337 700 CURVE SMOOTH",
"190 700 OFFCURVE",
"102 616 OFFCURVE",
"102 535 CURVE SMOOTH",
"102 442 OFFCURVE",
"167 375 OFFCURVE",
"264 321 CURVE SMOOTH",
"403 244 OFFCURVE",
"428 214 OFFCURVE",
"428 173 CURVE SMOOTH",
"428 121 OFFCURVE",
"387 81 OFFCURVE",
"299 81 CURVE SMOOTH",
"230 81 OFFCURVE",
"188 109 OFFCURVE",
"156 151 CURVE SMOOTH",
"119 199 OFFCURVE",
"110 273 OFFCURVE",
"74 273 CURVE SMOOTH",
"57 273 OFFCURVE",
"32 258 OFFCURVE",
"31 217 CURVE SMOOTH",
"31 172 OFFCURVE",
"46 118 OFFCURVE",
"75 78 CURVE SMOOTH",
"125 8 OFFCURVE",
"196 -24 OFFCURVE",
"287 -24 CURVE SMOOTH"
);
}
);
width = 575;
}
);
leftKerningGroup = S;
rightKerningGroup = S;
unicode = 0053;
},
{
color = 5;
glyphname = T;
lastChange = "2025-04-25 11:18:29 +0000";
layers = (
{
background = {
paths = (
{
closed = 1;
nodes = (
"350 35 LINE",
"332 -31 OFFCURVE",
"227 -17 OFFCURVE",
"212 46 CURVE",
"312 570 LINE",
"246 581 OFFCURVE",
"139 544 OFFCURVE",
"87 580 CURVE",
"52 605 OFFCURVE",
"61 641 OFFCURVE",
"101 654 CURVE",
"147 669 OFFCURVE",
"551 687 OFFCURVE",
"609 679 CURVE",
"638 675 OFFCURVE",
"648 662 OFFCURVE",
"657 643 CURVE",
"646 561 OFFCURVE",
"512 605 OFFCURVE",
"437 577 CURVE"
);
}
);
};
layerId = "15880153-BF49-4651-A558-57743A88E547";
paths = (
{
closed = 1;
nodes = (
"299 -8 OFFCURVE",
"318 4 OFFCURVE",
"328 31 CURVE SMOOTH",
"336 53 OFFCURVE",
"348 105 OFFCURVE",
"364 194 CURVE SMOOTH",
"395 353 OFFCURVE",
"418 509 OFFCURVE",
"433 645 CURVE SMOOTH",
"439 705 OFFCURVE",
"408 726 OFFCURVE",
"382 724 CURVE SMOOTH",
"328 719 OFFCURVE",
"330 662 OFFCURVE",
"314 567 CURVE SMOOTH",
"285 386 OFFCURVE",
"263 217 OFFCURVE",
"235 42 CURVE SMOOTH",
"230 13 OFFCURVE",
"248 -12 OFFCURVE",
"281 -10 CURVE SMOOTH"
);
},
{
closed = 1;
nodes = (
"264 556 OFFCURVE",
"451 566 OFFCURVE",
"585 581 CURVE SMOOTH",
"624 585 OFFCURVE",
"652 602 OFFCURVE",
"653 632 CURVE SMOOTH",
"655 671 OFFCURVE",
"619 677 OFFCURVE",
"584 677 CURVE SMOOTH",
"474 677 OFFCURVE",
"226 663 OFFCURVE",
"126 653 CURVE SMOOTH",
"92 650 OFFCURVE",
"64 637 OFFCURVE",
"60 602 CURVE SMOOTH",
"57 565 OFFCURVE",
"87 549 OFFCURVE",
"145 551 CURVE SMOOTH"
);
}
);
width = 586;
}
);
leftKerningGroup = T;
rightKerningGroup = T;
unicode = 0054;
},
{
color = 5;
glyphname = U;
lastChange = "2025-04-25 11:18:29 +0000";
layers = (
{
background = {
paths = (
{
closed = 1;
nodes = (
"277 88 OFFCURVE",
"309 94 OFFCURVE",
"331 105 CURVE",
"402 141 OFFCURVE",
"512 375 OFFCURVE",
"535 437 CURVE",
"554 489 OFFCURVE",
"568 622 OFFCURVE",
"594 656 CURVE",
"629 703 OFFCURVE",
"723 703 OFFCURVE",
"734 651 CURVE",
"741 618 OFFCURVE",
"715 531 OFFCURVE",
"704 493 CURVE",
"674 385 OFFCURVE",
"565 138 OFFCURVE",
"445 54 CURVE",
"367 0 OFFCURVE",
"227 -31 OFFCURVE",
"142 17 CURVE",
"-23 112 OFFCURVE",
"107 515 OFFCURVE",
"147 661 CURVE",
"174 684 OFFCURVE",
"239 696 OFFCURVE",
"264 672 CURVE",
"295 642 OFFCURVE",
"212 336 OFFCURVE",
"213 265 CURVE",
"213 206 OFFCURVE",
"224 142 OFFCURVE",
"251 87 CURVE"
);
}
);
};
layerId = "15880153-BF49-4651-A558-57743A88E547";
paths = (
{
closed = 1;
nodes = (
"446 -12 OFFCURVE",
"533 99 OFFCURVE",
"615 311 CURVE SMOOTH",
"657 420 OFFCURVE",
"673 518 OFFCURVE",
"678 621 CURVE SMOOTH",
"680 663 OFFCURVE",
"665 683 OFFCURVE",
"636 684 CURVE SMOOTH",
"608 685 OFFCURVE",
"583 664 OFFCURVE",
"577 633 CURVE SMOOTH",
"558 540 OFFCURVE",
"552 439 OFFCURVE",
"514 326 CURVE SMOOTH",
"458 160 OFFCURVE",
"373 96 OFFCURVE",
"292 96 CURVE SMOOTH",
"221 96 OFFCURVE",
"165 162 OFFCURVE",
"176 322 CURVE SMOOTH",
"183 427 OFFCURVE",
"216 524 OFFCURVE",
"248 632 CURVE SMOOTH",
"255 655 OFFCURVE",
"237 679 OFFCURVE",
"211 681 CURVE SMOOTH",
"186 685 OFFCURVE",
"165 671 OFFCURVE",
"154 643 CURVE SMOOTH",
"112 538 OFFCURVE",
"77 426 OFFCURVE",
"71 311 CURVE SMOOTH",
"59 102 OFFCURVE",
"123 -12 OFFCURVE",
"273 -12 CURVE SMOOTH"
);
}
);
width = 661;
}
);
leftKerningGroup = U;
rightKerningGroup = U;
unicode = 0055;
},
{
color = 5;
glyphname = V;
lastChange = "2025-04-25 11:18:29 +0000";
layers = (
{
layerId = "15880153-BF49-4651-A558-57743A88E547";
paths = (
{
closed = 1;
nodes = (
"232 -18 OFFCURVE",
"253 -4 OFFCURVE",
"271 25 CURVE SMOOTH",
"397 224 OFFCURVE",
"513 424 OFFCURVE",
"644 616 CURVE SMOOTH",
"662 642 OFFCURVE",
"657 666 OFFCURVE",
"641 681 CURVE SMOOTH",
"617 701 OFFCURVE",
"579 701 OFFCURVE",
"554 664 CURVE SMOOTH",
"443 505 OFFCURVE",
"326 311 OFFCURVE",
"238 168 CURVE",
"257 154 LINE",
"245 262 OFFCURVE",
"221 551 OFFCURVE",
"203 631 CURVE SMOOTH",
"192 675 OFFCURVE",
"177 686 OFFCURVE",
"153 686 CURVE SMOOTH",
"126 686 OFFCURVE",
"97 665 OFFCURVE",
"102 624 CURVE SMOOTH",
"128 437 OFFCURVE",
"138 216 OFFCURVE",
"160 36 CURVE SMOOTH",
"165 -1 OFFCURVE",
"183 -18 OFFCURVE",
"210 -18 CURVE SMOOTH"
);
}
);
width = 604;
}
);
leftKerningGroup = V;
rightKerningGroup = V;
unicode = 0056;
},
{
color = 5;
glyphname = W;
lastChange = "2025-04-25 11:18:29 +0000";
layers = (
{
layerId = "15880153-BF49-4651-A558-57743A88E547";
paths = (
{
closed = 1;
nodes = (
"212 -18 OFFCURVE",
"233 -4 OFFCURVE",
"251 25 CURVE SMOOTH",
"352 186 OFFCURVE",
"435 354 OFFCURVE",
"524 513 CURVE",
"508 517 LINE",
"517 358 OFFCURVE",
"522 183 OFFCURVE",
"540 36 CURVE SMOOTH",
"545 -1 OFFCURVE",
"563 -18 OFFCURVE",
"590 -18 CURVE SMOOTH",
"612 -18 OFFCURVE",
"633 -4 OFFCURVE",
"651 25 CURVE SMOOTH",
"774 220 OFFCURVE",
"870 427 OFFCURVE",
"984 615 CURVE SMOOTH",
"1001 642 OFFCURVE",
"996 666 OFFCURVE",
"980 680 CURVE SMOOTH",
"956 701 OFFCURVE",
"917 701 OFFCURVE",
"894 663 CURVE SMOOTH",
"801 510 OFFCURVE",
"699 314 OFFCURVE",
"620 173 CURVE",
"635 172 LINE",
"625 289 OFFCURVE",
"609 554 OFFCURVE",
"599 630 CURVE SMOOTH",
"596 650 OFFCURVE",
"587 679 OFFCURVE",
"564 688 CURVE SMOOTH",
"539 698 OFFCURVE",
"514 695 OFFCURVE",
"494 663 CURVE SMOOTH",
"401 510 OFFCURVE",
"299 314 OFFCURVE",
"220 173 CURVE",
"235 172 LINE",
"225 289 OFFCURVE",
"209 554 OFFCURVE",
"199 630 CURVE SMOOTH",
"193 675 OFFCURVE",
"177 686 OFFCURVE",
"153 686 CURVE SMOOTH",
"126 686 OFFCURVE",
"98 665 OFFCURVE",
"101 624 CURVE SMOOTH",
"116 437 OFFCURVE",
"118 216 OFFCURVE",
"140 36 CURVE SMOOTH",
"145 -1 OFFCURVE",
"163 -18 OFFCURVE",
"190 -18 CURVE SMOOTH"
);
}
);
width = 944;
}
);
leftKerningGroup = V;
leftMetricsKey = V;
rightKerningGroup = V;
rightMetricsKey = V;
unicode = 0057;
},
{
color = 5;
glyphname = X;
lastChange = "2025-04-25 11:18:29 +0000";
layers = (
{
layerId = "15880153-BF49-4651-A558-57743A88E547";
paths = (
{
closed = 1;
nodes = (
"482 -11 OFFCURVE",
"502 -1 OFFCURVE",
"509 22 CURVE SMOOTH",
"518 56 OFFCURVE",
"505 83 OFFCURVE",
"454 190 CURVE SMOOTH",
"330 447 OFFCURVE",
"294 535 OFFCURVE",
"240 649 CURVE SMOOTH",
"228 675 OFFCURVE",
"206 686 OFFCURVE",
"186 683 CURVE SMOOTH",
"153 679 OFFCURVE",
"131 651 OFFCURVE",
"151 600 CURVE SMOOTH",
"201 472 OFFCURVE",
"284 290 OFFCURVE",
"324 198 CURVE SMOOTH",
"349 143 OFFCURVE",
"380 84 OFFCURVE",
"408 35 CURVE SMOOTH",
"427 -1 OFFCURVE",
"444 -11 OFFCURVE",
"463 -11 CURVE SMOOTH"
);
},
{
closed = 1;
nodes = (
"7 -9 OFFCURVE",
"16 -6 OFFCURVE",
"33 7 CURVE SMOOTH",
"72 34 OFFCURVE",
"361 363 OFFCURVE",
"467 479 CURVE SMOOTH",
"496 511 OFFCURVE",
"579 604 OFFCURVE",
"583 646 CURVE SMOOTH",
"584 669 OFFCURVE",
"572 683 OFFCURVE",
"553 685 CURVE SMOOTH",
"534 688 OFFCURVE",
"515 682 OFFCURVE",
"485 651 CURVE SMOOTH",
"358 521 OFFCURVE",
"218 362 OFFCURVE",
"91 214 CURVE SMOOTH",
"66 184 OFFCURVE",
"10 124 OFFCURVE",
"-22 81 CURVE SMOOTH",
"-56 34 OFFCURVE",
"-45 -8 OFFCURVE",
"-3 -9 CURVE SMOOTH"
);
}
);
width = 558;
}
);
leftKerningGroup = X;
rightKerningGroup = X;
unicode = 0058;
},
{
color = 5;
glyphname = Y;
lastChange = "2025-04-25 11:18:29 +0000";
layers = (
{
layerId = "15880153-BF49-4651-A558-57743A88E547";
paths = (
{
closed = 1;
nodes = (
"434 381 OFFCURVE",
"522 474 OFFCURVE",
"645 616 CURVE SMOOTH",
"665 639 OFFCURVE",
"658 666 OFFCURVE",
"642 681 CURVE SMOOTH",
"618 701 OFFCURVE",
"587 696 OFFCURVE",
"555 664 CURVE SMOOTH",
"447 553 OFFCURVE",
"359 456 OFFCURVE",
"269 358 CURVE",
"288 344 LINE",
"269 409 OFFCURVE",
"233 543 OFFCURVE",
"204 631 CURVE SMOOTH",
"190 674 OFFCURVE",
"178 686 OFFCURVE",
"154 686 CURVE SMOOTH",
"127 686 OFFCURVE",
"95 664 OFFCURVE",
"103 624 CURVE SMOOTH",
"129 500 OFFCURVE",
"180 363 OFFCURVE",
"211 246 CURVE",
"301 245 LINE"
);
},
{
closed = 1;
nodes = (
"259 -15 OFFCURVE",
"262 42 OFFCURVE",
"285 136 CURVE SMOOTH",
"300 197 OFFCURVE",
"315 256 OFFCURVE",
"329 315 CURVE",
"215 314 LINE",
"194 228 OFFCURVE",
"176 145 OFFCURVE",
"160 69 CURVE SMOOTH",
"149 9 OFFCURVE",
"178 -14 OFFCURVE",
"205 -15 CURVE SMOOTH"
);
}
);
width = 607;
}
);
leftKerningGroup = V;
leftMetricsKey = V;
rightKerningGroup = V;
rightMetricsKey = V;
unicode = 0059;
},
{
color = 5;
glyphname = Z;
lastChange = "2025-04-25 11:18:29 +0000";
layers = (
{
layerId = "15880153-BF49-4651-A558-57743A88E547";
paths = (
{
closed = 1;
nodes = (
"152 -9 OFFCURVE",
"419 -2 OFFCURVE",
"492 14 CURVE SMOOTH",
"520 20 OFFCURVE",
"539 46 OFFCURVE",
"536 73 CURVE SMOOTH",
"533 102 OFFCURVE",
"513 119 OFFCURVE",
"471 115 CURVE SMOOTH",
"411 111 OFFCURVE",
"248 104 OFFCURVE",
"149 100 CURVE",
"139 75 LINE",
"579 540 LINE SMOOTH",
"618 573 OFFCURVE",
"637 599 OFFCURVE",
"637 640 CURVE SMOOTH",
"637 670 OFFCURVE",
"614 694 OFFCURVE",
"584 694 CURVE SMOOTH",
"561 694 OFFCURVE",
"550 686 OFFCURVE",
"540 678 CURVE",
"421 675 OFFCURVE",
"264 671 OFFCURVE",
"187 664 CURVE SMOOTH",
"148 661 OFFCURVE",
"132 628 OFFCURVE",
"134 607 CURVE SMOOTH",
"137 583 OFFCURVE",
"158 565 OFFCURVE",
"195 566 CURVE SMOOTH",
"281 568 OFFCURVE",
"385 574 OFFCURVE",
"489 579 CURVE",
"482 600 LINE",
"327 438 OFFCURVE",
"183 282 OFFCURVE",
"17 115 CURVE SMOOTH",
"-14 84 OFFCURVE",
"-32 63 OFFCURVE",
"-29 36 CURVE SMOOTH",
"-25 6 OFFCURVE",
"-8 -9 OFFCURVE",
"24 -9 CURVE SMOOTH"
);
}
);
width = 600;
}
);
leftKerningGroup = Z;
rightKerningGroup = Z;
unicode = 005A;
},
{
color = 5;
glyphname = a;
lastChange = "2025-04-25 11:18:29 +0000";
layers = (
{
layerId = "15880153-BF49-4651-A558-57743A88E547";
paths = (
{
closed = 1;
nodes = (
"530 -11 OFFCURVE",
"586 14 OFFCURVE",
"594 46 CURVE SMOOTH",
"601 68 OFFCURVE",
"598 90 OFFCURVE",
"579 99 CURVE SMOOTH",
"560 108 OFFCURVE",
"541 97 OFFCURVE",
"528 97 CURVE SMOOTH",
"520 97 OFFCURVE",
"512 105 OFFCURVE",
"515 125 CURVE SMOOTH",
"547 326 OFFCURVE",
"605 403 OFFCURVE",
"605 475 CURVE SMOOTH",
"605 497 OFFCURVE",
"590 517 OFFCURVE",
"560 517 CURVE SMOOTH",
"534 517 OFFCURVE",
"514 506 OFFCURVE",
"482 455 CURVE SMOOTH",
"422 363 OFFCURVE",
"367 274 OFFCURVE",
"295 196 CURVE SMOOTH",
"223 116 OFFCURVE",
"192 97 OFFCURVE",
"158 97 CURVE SMOOTH",
"129 97 OFFCURVE",
"115 116 OFFCURVE",
"115 156 CURVE SMOOTH",
"115 264 OFFCURVE",
"208 421 OFFCURVE",
"297 421 CURVE SMOOTH",
"336 421 OFFCURVE",
"348 407 OFFCURVE",
"376 404 CURVE SMOOTH",
"401 400 OFFCURVE",
"420 415 OFFCURVE",
"420 440 CURVE SMOOTH",
"420 484 OFFCURVE",
"371 517 OFFCURVE",
"300 517 CURVE SMOOTH",
"137 517 OFFCURVE",
"7 305 OFFCURVE",
"7 131 CURVE SMOOTH",
"7 53 OFFCURVE",
"42 -10 OFFCURVE",
"136 -10 CURVE SMOOTH",
"275 -10 OFFCURVE",
"377 108 OFFCURVE",
"484 305 CURVE",
"470 298 LINE",
"429 208 OFFCURVE",
"411 157 OFFCURVE",
"411 62 CURVE SMOOTH",
"411 19 OFFCURVE",
"436 -11 OFFCURVE",
"475 -11 CURVE SMOOTH"
);
}
);
width = 644;
}
);
leftKerningGroup = a;
rightKerningGroup = a;
unicode = 0061;
},
{
color = 5;
glyphname = b;
lastChange = "2025-04-25 11:18:29 +0000";
layers = (
{
layerId = "15880153-BF49-4651-A558-57743A88E547";
paths = (
{
closed = 1;
nodes = (
"363 -19 OFFCURVE",
"557 221 OFFCURVE",
"557 396 CURVE SMOOTH",
"557 473 OFFCURVE",
"517 528 OFFCURVE",
"430 528 CURVE SMOOTH",
"373 528 OFFCURVE",
"295 500 OFFCURVE",
"161 415 CURVE",
"144 300 LINE",
"295 391 OFFCURVE",
"354 420 OFFCURVE",
"412 420 CURVE SMOOTH",
"434 420 OFFCURVE",
"449 411 OFFCURVE",
"449 387 CURVE SMOOTH",
"449 361 OFFCURVE",
"440 338 OFFCURVE",
"425 307 CURVE SMOOTH",
"396 247 OFFCURVE",
"281 92 OFFCURVE",
"193 89 CURVE SMOOTH",
"164 88 OFFCURVE",
"148 109 OFFCURVE",
"148 150 CURVE SMOOTH",
"148 208 OFFCURVE",
"167 292 OFFCURVE",
"208 441 CURVE SMOOTH",
"233 531 OFFCURVE",
"287 733 OFFCURVE",
"283 777 CURVE SMOOTH",
"280 808 OFFCURVE",
"262 820 OFFCURVE",
"242 820 CURVE SMOOTH",
"222 820 OFFCURVE",
"199 810 OFFCURVE",
"184 758 CURVE SMOOTH",
"125 559 OFFCURVE",
"36 286 OFFCURVE",
"33 158 CURVE SMOOTH",
"31 34 OFFCURVE",
"99 -18 OFFCURVE",
"182 -18 CURVE SMOOTH"
);
}
);
width = 577;
}
);
leftKerningGroup = b;
rightKerningGroup = b;
unicode = 0062;
},
{
color = 5;
glyphname = c;
lastChange = "2025-04-25 11:18:29 +0000";
layers = (
{
layerId = "15880153-BF49-4651-A558-57743A88E547";
paths = (
{
closed = 1;
nodes = (
"284 -8 OFFCURVE",
"401 50 OFFCURVE",
"401 122 CURVE SMOOTH",
"401 137 OFFCURVE",
"392 162 OFFCURVE",
"363 163 CURVE SMOOTH",
"333 163 OFFCURVE",
"294 123 OFFCURVE",
"277 115 CURVE SMOOTH",
"253 101 OFFCURVE",
"228 94 OFFCURVE",
"206 94 CURVE SMOOTH",
"134 94 OFFCURVE",
"123 160 OFFCURVE",
"122 215 CURVE SMOOTH",
"122 321 OFFCURVE",
"176 426 OFFCURVE",
"285 428 CURVE SMOOTH",
"339 429 OFFCURVE",
"364 396 OFFCURVE",
"391 396 CURVE SMOOTH",
"418 396 OFFCURVE",
"435 417 OFFCURVE",
"435 440 CURVE SMOOTH",
"436 494 OFFCURVE",
"340 526 OFFCURVE",
"260 526 CURVE SMOOTH",
"110 522 OFFCURVE",
"23 359 OFFCURVE",
"23 214 CURVE SMOOTH",
"23 96 OFFCURVE",
"79 -8 OFFCURVE",
"203 -8 CURVE SMOOTH"
);
}
);
width = 441;
}
);
leftKerningGroup = c;
rightKerningGroup = c;
unicode = 0063;
},
{
color = 5;
glyphname = d;
lastChange = "2025-04-25 11:18:29 +0000";
layers = (
{
background = {
paths = (
{
closed = 1;
nodes = (
"418 93 OFFCURVE",
"555 156 OFFCURVE",
"521 45 CURVE",
"500 -24 OFFCURVE",
"323 -10 OFFCURVE",
"316 78 CURVE",
"243 11 OFFCURVE",
"160 -40 OFFCURVE",
"65 19 CURVE",
"-93 118 OFFCURVE",
"52 416 OFFCURVE",
"202 466 CURVE",
"234 476 OFFCURVE",
"325 499 OFFCURVE",
"340 456 CURVE",
"366 380 OFFCURVE",
"300 400 OFFCURVE",
"252 385 CURVE",
"200 369 OFFCURVE",
"168 329 OFFCURVE",
"141 284 CURVE",
"35 105 OFFCURVE",
"146 9 OFFCURVE",
"269 187 CURVE",
"376 342 OFFCURVE",
"408 547 OFFCURVE",
"510 704 CURVE",
"569 715 OFFCURVE",
"593 691 OFFCURVE",
"582 632 CURVE",
"561 522 OFFCURVE",
"456 364 OFFCURVE",
"425 242 CURVE",
"413 193 OFFCURVE",
"408 150 OFFCURVE",
"412 99 CURVE"
);
}
);
};
layerId = "15880153-BF49-4651-A558-57743A88E547";
paths = (
{
closed = 1;
nodes = (
"508 -11 OFFCURVE",
"552 14 OFFCURVE",
"561 46 CURVE SMOOTH",
"568 68 OFFCURVE",
"564 90 OFFCURVE",
"546 99 CURVE SMOOTH",
"527 108 OFFCURVE",
"514 97 OFFCURVE",
"495 97 CURVE SMOOTH",
"445 97 OFFCURVE",
"447 197 OFFCURVE",
"493 328 CURVE SMOOTH",
"569 541 OFFCURVE",
"643 663 OFFCURVE",
"643 732 CURVE SMOOTH",
"643 751 OFFCURVE",
"627 770 OFFCURVE",
"599 770 CURVE SMOOTH",
"567 770 OFFCURVE",
"541 734 OFFCURVE",
"523 689 CURVE SMOOTH",
"421 432 OFFCURVE",
"360 286 OFFCURVE",
"287 196 CURVE SMOOTH",
"231 128 OFFCURVE",
"192 97 OFFCURVE",
"154 97 CURVE SMOOTH",
"132 97 OFFCURVE",
"117 118 OFFCURVE",
"117 156 CURVE SMOOTH",
"117 270 OFFCURVE",
"219 409 OFFCURVE",
"331 436 CURVE SMOOTH",
"373 446 OFFCURVE",
"393 463 OFFCURVE",
"390 491 CURVE SMOOTH",
"386 516 OFFCURVE",
"365 529 OFFCURVE",
"312 527 CURVE SMOOTH",
"134 519 OFFCURVE",
"9 311 OFFCURVE",
"9 131 CURVE SMOOTH",
"9 58 OFFCURVE",
"52 -10 OFFCURVE",
"134 -10 CURVE SMOOTH",
"236 -10 OFFCURVE",
"317 61 OFFCURVE",
"395 200 CURVE",
"374 211 LINE",
"364 173 OFFCURVE",
"360 135 OFFCURVE",
"359 97 CURVE SMOOTH",
"359 18 OFFCURVE",
"401 -11 OFFCURVE",
"463 -11 CURVE SMOOTH"
);
}
);
width = 611;
}
);
leftKerningGroup = a;
leftMetricsKey = a;
rightKerningGroup = d;
rightMetricsKey = a;
unicode = 0064;
},
{
color = 5;
glyphname = e;
lastChange = "2025-04-25 11:18:29 +0000";
layers = (
{
background = {
components = (
{
name = o;
transform = "{1, 0, 0, 1, 1, 0}";
}
);
};
layerId = "15880153-BF49-4651-A558-57743A88E547";
paths = (
{
closed = 1;
nodes = (
"297 -12 OFFCURVE",
"397 28 OFFCURVE",
"469 113 CURVE SMOOTH",
"497 145 OFFCURVE",
"483 187 OFFCURVE",
"452 195 CURVE SMOOTH",
"426 201 OFFCURVE",
"404 189 OFFCURVE",
"389 175 CURVE SMOOTH",
"322 116 OFFCURVE",
"289 97 OFFCURVE",
"224 97 CURVE SMOOTH",
"155 97 OFFCURVE",
"121 126 OFFCURVE",
"122 183 CURVE SMOOTH",
"122 347 OFFCURVE",
"250 447 OFFCURVE",
"325 447 CURVE SMOOTH",
"353 446 OFFCURVE",
"366 427 OFFCURVE",
"366 407 CURVE SMOOTH",
"366 352 OFFCURVE",
"298 291 OFFCURVE",
"206 291 CURVE SMOOTH",
"167 291 OFFCURVE",
"139 299 OFFCURVE",
"121 310 CURVE",
"114 215 LINE",
"139 198 OFFCURVE",
"161 192 OFFCURVE",
"204 192 CURVE SMOOTH",
"319 192 OFFCURVE",
"476 293 OFFCURVE",
"476 410 CURVE SMOOTH",
"476 505 OFFCURVE",
"426 551 OFFCURVE",
"338 551 CURVE SMOOTH",
"178 551 OFFCURVE",
"15 360 OFFCURVE",
"15 184 CURVE SMOOTH",
"15 57 OFFCURVE",
"103 -12 OFFCURVE",
"206 -12 CURVE SMOOTH"
);
}
);
width = 525;
}
);
leftKerningGroup = o;
leftMetricsKey = o;
rightKerningGroup = e;
unicode = 0065;
},
{
color = 5;
glyphname = f;
lastChange = "2025-04-25 11:18:29 +0000";
layers = (
{
background = {
paths = (
{
closed = 1;
nodes = (
"311 415 LINE",
"342 395 OFFCURVE",
"494 436 OFFCURVE",
"501 359 CURVE",
"502 346 OFFCURVE",
"484 314 OFFCURVE",
"477 314 CURVE",
"289 314 LINE",
"289 313 OFFCURVE",
"288 312 OFFCURVE",
"288 311 CURVE",
"168 311 LINE",
"167 316 OFFCURVE",
"163 313 OFFCURVE",
"153 314 CURVE",
"112 320 OFFCURVE",
"29 293 OFFCURVE",
"21 351 CURVE",
"11 429 OFFCURVE",
"129 409 OFFCURVE",
"188 418 CURVE"
);
}
);
};
layerId = "15880153-BF49-4651-A558-57743A88E547";
paths = (
{
closed = 1;
nodes = (
"1 -263 OFFCURVE",
"19 -252 OFFCURVE",
"53 -226 CURVE SMOOTH",
"208 -110 OFFCURVE",
"243 128 OFFCURVE",
"292 336 CURVE SMOOTH",
"325 477 OFFCURVE",
"363 659 OFFCURVE",
"420 686 CURVE SMOOTH",
"456 703 OFFCURVE",
"496 643 OFFCURVE",
"528 613 CURVE SMOOTH",
"547 595 OFFCURVE",
"570 598 OFFCURVE",
"585 612 CURVE SMOOTH",
"644 665 OFFCURVE",
"524 787 OFFCURVE",
"433 793 CURVE SMOOTH",
"288 803 OFFCURVE",
"241 597 OFFCURVE",
"183 351 CURVE SMOOTH",
"126 110 OFFCURVE",
"104 30 OFFCURVE",
"66 -41 CURVE SMOOTH",
"34 -102 OFFCURVE",
"-52 -152 OFFCURVE",
"-65 -207 CURVE SMOOTH",
"-74 -243 OFFCURVE",
"-56 -263 OFFCURVE",
"-30 -263 CURVE SMOOTH"
);
},
{
closed = 1;
nodes = (
"191 306 OFFCURVE",
"326 311 OFFCURVE",
"411 314 CURVE SMOOTH",
"469 317 OFFCURVE",
"498 336 OFFCURVE",
"492 372 CURVE SMOOTH",
"485 407 OFFCURVE",
"456 417 OFFCURVE",
"421 417 CURVE SMOOTH",
"348 418 OFFCURVE",
"167 409 OFFCURVE",
"87 402 CURVE SMOOTH",
"53 399 OFFCURVE",
"17 390 OFFCURVE",
"23 351 CURVE SMOOTH",
"26 324 OFFCURVE",
"55 312 OFFCURVE",
"95 311 CURVE SMOOTH"
);
}
);
width = 499;
}
);
leftKerningGroup = f;
rightKerningGroup = f;
unicode = 0066;
},
{
color = 5;
glyphname = g;
lastChange = "2025-04-25 11:18:29 +0000";
layers = (
{
layerId = "15880153-BF49-4651-A558-57743A88E547";
paths = (
{
closed = 1;
nodes = (
"323 -375 OFFCURVE",
"406 -57 OFFCURVE",
"493 182 CURVE SMOOTH",
"557 359 OFFCURVE",
"583 446 OFFCURVE",
"590 494 CURVE SMOOTH",
"596 544 OFFCURVE",
"576 566 OFFCURVE",
"546 566 CURVE SMOOTH",
"514 566 OFFCURVE",
"489 529 OFFCURVE",
"470 484 CURVE SMOOTH",
"409 332 OFFCURVE",
"353 255 OFFCURVE",
"308 199 CURVE SMOOTH",
"252 131 OFFCURVE",
"213 100 OFFCURVE",
"175 100 CURVE SMOOTH",
"147 100 OFFCURVE",
"128 121 OFFCURVE",
"128 160 CURVE SMOOTH",
"128 273 OFFCURVE",
"247 409 OFFCURVE",
"375 439 CURVE SMOOTH",
"417 449 OFFCURVE",
"437 467 OFFCURVE",
"434 494 CURVE SMOOTH",
"430 519 OFFCURVE",
"409 533 OFFCURVE",
"356 530 CURVE SMOOTH",
"171 522 OFFCURVE",
"16 322 OFFCURVE",
"16 130 CURVE SMOOTH",
"16 60 OFFCURVE",
"63 -6 OFFCURVE",
"155 -6 CURVE SMOOTH",
"257 -6 OFFCURVE",
"338 64 OFFCURVE",
"430 204 CURVE",
"409 215 LINE",
"315 -13 OFFCURVE",
"218 -256 OFFCURVE",
"122 -256 CURVE SMOOTH",
"71 -256 OFFCURVE",
"54 -215 OFFCURVE",
"34 -125 CURVE SMOOTH",
"22 -76 OFFCURVE",
"-68 -72 OFFCURVE",
"-68 -155 CURVE SMOOTH",
"-68 -301 OFFCURVE",
"7 -375 OFFCURVE",
"94 -375 CURVE SMOOTH"
);
}
);
width = 579;
}
);
leftKerningGroup = g;
rightKerningGroup = g;
unicode = 0067;
},
{
color = 5;
glyphname = h;
lastChange = "2025-04-25 11:18:29 +0000";
layers = (
{
layerId = "15880153-BF49-4651-A558-57743A88E547";
paths = (
{
closed = 1;
nodes = (
"96 -11 OFFCURVE",
"113 19 OFFCURVE",
"149 82 CURVE SMOOTH",
"186 148 OFFCURVE",
"241 234 OFFCURVE",
"301 295 CURVE SMOOTH",
"377 372 OFFCURVE",
"407 392 OFFCURVE",
"436 392 CURVE SMOOTH",
"449 392 OFFCURVE",
"457 382 OFFCURVE",
"454 362 CURVE SMOOTH",
"446 288 OFFCURVE",
"373 154 OFFCURVE",
"373 67 CURVE SMOOTH",
"373 14 OFFCURVE",
"408 -11 OFFCURVE",
"462 -11 CURVE SMOOTH",
"517 -11 OFFCURVE",
"570 15 OFFCURVE",
"579 47 CURVE SMOOTH",
"585 70 OFFCURVE",
"581 94 OFFCURVE",
"561 101 CURVE SMOOTH",
"540 109 OFFCURVE",
"516 97 OFFCURVE",
"506 97 CURVE SMOOTH",
"498 97 OFFCURVE",
"494 102 OFFCURVE",
"494 113 CURVE SMOOTH",
"494 175 OFFCURVE",
"567 318 OFFCURVE",
"567 417 CURVE SMOOTH",
"567 481 OFFCURVE",
"530 523 OFFCURVE",
"469 523 CURVE SMOOTH",
"383 523 OFFCURVE",
"266 420 OFFCURVE",
"150 258 CURVE",
"168 262 LINE",
"206 423 OFFCURVE",
"244 575 OFFCURVE",
"280 733 CURVE SMOOTH",
"287 762 OFFCURVE",
"271 788 OFFCURVE",
"237 788 CURVE SMOOTH",
"219 788 OFFCURVE",
"200 777 OFFCURVE",
"188 751 CURVE SMOOTH",
"172 716 OFFCURVE",
"147 636 OFFCURVE",
"111 501 CURVE SMOOTH",
"70 349 OFFCURVE",
"39 200 OFFCURVE",
"15 71 CURVE SMOOTH",
"5 11 OFFCURVE",
"33 -13 OFFCURVE",
"59 -12 CURVE SMOOTH"
);
}
);
width = 623;
}
);
leftKerningGroup = l;
leftMetricsKey = l;
rightKerningGroup = n;
rightMetricsKey = n;
unicode = 0068;
},
{
color = 5;
glyphname = i;
lastChange = "2025-04-25 11:18:29 +0000";
layers = (
{
layerId = "15880153-BF49-4651-A558-57743A88E547";
paths = (
{
closed = 1;
nodes = (
"82 -12 OFFCURVE",
"99 16 OFFCURVE",
"114 69 CURVE SMOOTH",
"156 213 OFFCURVE",
"194 360 OFFCURVE",
"223 471 CURVE SMOOTH",
"232 505 OFFCURVE",
"218 529 OFFCURVE",
"192 535 CURVE SMOOTH",
"167 541 OFFCURVE",
"145 528 OFFCURVE",
"133 494 CURVE SMOOTH",
"109 426 OFFCURVE",
"0 97 OFFCURVE",
"2 34 CURVE SMOOTH",
"3 3 OFFCURVE",
"22 -11 OFFCURVE",
"40 -11 CURVE SMOOTH"
);
},
{
closed = 1;
nodes = (
"266 623 OFFCURVE",
"305 689 OFFCURVE",
"305 736 CURVE SMOOTH",
"305 750 OFFCURVE",
"302 763 OFFCURVE",
"294 771 CURVE SMOOTH",
"248 817 OFFCURVE",
"181 731 OFFCURVE",
"181 666 CURVE SMOOTH",
"181 635 OFFCURVE",
"204 623 OFFCURVE",
"223 623 CURVE SMOOTH"
);
}
);
width = 251;
}
);
leftKerningGroup = i;
rightKerningGroup = i;
unicode = 0069;
},
{
color = 5;
glyphname = j;
lastChange = "2025-04-25 11:18:29 +0000";
layers = (
{
background = {
paths = (
{
closed = 1;
nodes = (
"260 779 OFFCURVE",
"291 743 OFFCURVE",
"289 716 CURVE",
"285 682 OFFCURVE",
"250 571 OFFCURVE",
"198 588 CURVE",
"172 606 LINE",
"141 641 OFFCURVE",
"198 763 OFFCURVE",
"233 772 CURVE"
);
}
);
};
layerId = "15880153-BF49-4651-A558-57743A88E547";
paths = (
{
closed = 1;
nodes = (
"-124 -418 OFFCURVE",
"-68 -400 OFFCURVE",
"-25 -364 CURVE SMOOTH",
"62 -290 OFFCURVE",
"128 -38 OFFCURVE",
"184 252 CURVE SMOOTH",
"198 324 OFFCURVE",
"212 406 OFFCURVE",
"212 461 CURVE SMOOTH",
"212 496 OFFCURVE",
"201 520 OFFCURVE",
"171 521 CURVE SMOOTH",
"149 522 OFFCURVE",
"128 512 OFFCURVE",
"111 439 CURVE SMOOTH",
"74 277 OFFCURVE",
"24 -167 OFFCURVE",
"-94 -278 CURVE SMOOTH",
"-131 -312 OFFCURVE",
"-213 -314 OFFCURVE",
"-213 -369 CURVE SMOOTH",
"-213 -401 OFFCURVE",
"-194 -418 OFFCURVE",
"-161 -418 CURVE SMOOTH"
);
},
{
closed = 1;
nodes = (
"231 561 OFFCURVE",
"289 654 OFFCURVE",
"282 718 CURVE SMOOTH",
"279 749 OFFCURVE",
"255 759 OFFCURVE",
"236 757 CURVE SMOOTH",
"193 752 OFFCURVE",
"161 682 OFFCURVE",
"166 636 CURVE SMOOTH",
"168 622 OFFCURVE",
"172 609 OFFCURVE",
"181 602 CURVE SMOOTH"
);
}
);
width = 269;
}
);
leftKerningGroup = j;
rightKerningGroup = j;
unicode = 006A;
},
{
color = 5;
glyphname = k;
lastChange = "2025-04-25 11:18:29 +0000";
layers = (
{
background = {
components = (
{
name = l;
transform = "{1, 0, 0, 1, 15, 0}";
}
);
};
layerId = "15880153-BF49-4651-A558-57743A88E547";
paths = (
{
closed = 1;
nodes = (
"117 1 OFFCURVE",
"167 67 OFFCURVE",
"356 261 CURVE SMOOTH",
"446 354 OFFCURVE",
"515 427 OFFCURVE",
"584 500 CURVE SMOOTH",
"593 510 OFFCURVE",
"596 524 OFFCURVE",
"596 534 CURVE SMOOTH",
"596 559 OFFCURVE",
"579 577 OFFCURVE",
"556 577 CURVE SMOOTH",
"540 577 OFFCURVE",
"532 570 OFFCURVE",
"518 556 CURVE SMOOTH",
"409 451 OFFCURVE",
"282 323 OFFCURVE",
"157 192 CURVE",
"175 181 LINE",
"231 345 OFFCURVE",
"287 496 OFFCURVE",
"345 649 CURVE SMOOTH",
"359 687 OFFCURVE",
"365 706 OFFCURVE",
"365 723 CURVE SMOOTH",
"365 749 OFFCURVE",
"348 765 OFFCURVE",
"321 765 CURVE SMOOTH",
"294 765 OFFCURVE",
"278 748 OFFCURVE",
"260 703 CURVE SMOOTH",
"178 492 OFFCURVE",
"93 282 OFFCURVE",
"14 70 CURVE SMOOTH",
"4 41 OFFCURVE",
"12 -6 OFFCURVE",
"57 -3 CURVE SMOOTH"
);
},
{
closed = 1;
nodes = (
"553 -47 OFFCURVE",
"575 -32 OFFCURVE",
"575 -3 CURVE SMOOTH",
"575 40 OFFCURVE",
"509 87 OFFCURVE",
"457 164 CURVE SMOOTH",
"428 208 OFFCURVE",
"407 257 OFFCURVE",
"382 307 CURVE",
"305 233 LINE",
"341 141 OFFCURVE",
"414 26 OFFCURVE",
"479 -23 CURVE SMOOTH",
"500 -38 OFFCURVE",
"517 -46 OFFCURVE",
"535 -46 CURVE SMOOTH"
);
}
);
width = 592;
}
);
leftKerningGroup = k;
rightKerningGroup = k;
unicode = 006B;
},
{
color = 5;
glyphname = l;
lastChange = "2025-04-25 11:18:29 +0000";
layers = (
{
layerId = "15880153-BF49-4651-A558-57743A88E547";
paths = (
{
closed = 1;
nodes = (
"115 -11 OFFCURVE",
"117 46 OFFCURVE",
"139 140 CURVE SMOOTH",
"187 346 OFFCURVE",
"234 535 OFFCURVE",
"280 733 CURVE SMOOTH",
"287 762 OFFCURVE",
"271 788 OFFCURVE",
"237 788 CURVE SMOOTH",
"219 788 OFFCURVE",
"200 777 OFFCURVE",
"188 751 CURVE SMOOTH",
"172 716 OFFCURVE",
"147 636 OFFCURVE",
"111 501 CURVE SMOOTH",
"70 349 OFFCURVE",
"39 200 OFFCURVE",
"15 71 CURVE SMOOTH",
"5 11 OFFCURVE",
"34 -12 OFFCURVE",
"61 -12 CURVE SMOOTH"
);
}
);
width = 252;
}
);
leftKerningGroup = l;
rightKerningGroup = l;
unicode = 006C;
},
{
color = 5;
glyphname = m;
lastChange = "2025-04-25 11:18:29 +0000";
layers = (
{
layerId = "15880153-BF49-4651-A558-57743A88E547";
paths = (
{
closed = 1;
nodes = (
"839 -11 OFFCURVE",
"892 15 OFFCURVE",
"901 47 CURVE SMOOTH",
"907 70 OFFCURVE",
"903 94 OFFCURVE",
"883 101 CURVE SMOOTH",
"862 109 OFFCURVE",
"838 97 OFFCURVE",
"828 97 CURVE SMOOTH",
"820 97 OFFCURVE",
"816 102 OFFCURVE",
"816 113 CURVE SMOOTH",
"816 175 OFFCURVE",
"889 318 OFFCURVE",
"889 417 CURVE SMOOTH",
"889 481 OFFCURVE",
"852 523 OFFCURVE",
"791 523 CURVE SMOOTH",
"708 523 OFFCURVE",
"590 411 OFFCURVE",
"489 233 CURVE",
"512 218 LINE",
"545 321 OFFCURVE",
"558 370 OFFCURVE",
"558 417 CURVE SMOOTH",
"558 481 OFFCURVE",
"522 523 OFFCURVE",
"461 523 CURVE SMOOTH",
"380 523 OFFCURVE",
"273 421 OFFCURVE",
"164 261 CURVE",
"180 325 OFFCURVE",
"206 410 OFFCURVE",
"228 479 CURVE SMOOTH",
"238 508 OFFCURVE",
"227 535 OFFCURVE",
"196 541 CURVE SMOOTH",
"170 547 OFFCURVE",
"148 537 OFFCURVE",
"135 503 CURVE SMOOTH",
"95 396 OFFCURVE",
"41 217 OFFCURVE",
"5 80 CURVE SMOOTH",
"-6 36 OFFCURVE",
"2 8 OFFCURVE",
"26 -2 CURVE SMOOTH",
"52 -12 OFFCURVE",
"82 -4 OFFCURVE",
"109 33 CURVE SMOOTH",
"152 94 OFFCURVE",
"243 217 OFFCURVE",
"311 295 CURVE SMOOTH",
"382 377 OFFCURVE",
"403 392 OFFCURVE",
"428 392 CURVE SMOOTH",
"441 392 OFFCURVE",
"450 380 OFFCURVE",
"447 360 CURVE SMOOTH",
"438 279 OFFCURVE",
"368 133 OFFCURVE",
"368 37 CURVE SMOOTH",
"368 6 OFFCURVE",
"381 -8 OFFCURVE",
"404 -8 CURVE SMOOTH",
"436 -8 OFFCURVE",
"451 9 OFFCURVE",
"492 78 CURVE SMOOTH",
"539 157 OFFCURVE",
"591 238 OFFCURVE",
"641 295 CURVE SMOOTH",
"712 377 OFFCURVE",
"733 392 OFFCURVE",
"758 392 CURVE SMOOTH",
"771 392 OFFCURVE",
"780 378 OFFCURVE",
"777 358 CURVE SMOOTH",
"769 284 OFFCURVE",
"695 154 OFFCURVE",
"695 67 CURVE SMOOTH",
"695 14 OFFCURVE",
"730 -11 OFFCURVE",
"784 -11 CURVE SMOOTH"
);
}
);
width = 945;
}
);
leftKerningGroup = n;
leftMetricsKey = n;
rightKerningGroup = n;
rightMetricsKey = n;
unicode = 006D;
},
{
color = 5;
glyphname = n;
lastChange = "2025-04-25 11:18:29 +0000";
layers = (
{
layerId = "15880153-BF49-4651-A558-57743A88E547";
paths = (
{
closed = 1;
nodes = (
"529 -11 OFFCURVE",
"582 15 OFFCURVE",
"591 47 CURVE SMOOTH",
"597 70 OFFCURVE",
"593 94 OFFCURVE",
"573 101 CURVE SMOOTH",
"552 109 OFFCURVE",
"528 97 OFFCURVE",
"518 97 CURVE SMOOTH",
"510 97 OFFCURVE",
"506 102 OFFCURVE",
"506 113 CURVE SMOOTH",
"506 175 OFFCURVE",
"579 318 OFFCURVE",
"579 417 CURVE SMOOTH",
"579 481 OFFCURVE",
"542 523 OFFCURVE",
"481 523 CURVE SMOOTH",
"395 523 OFFCURVE",
"280 421 OFFCURVE",
"164 261 CURVE",
"180 325 OFFCURVE",
"206 410 OFFCURVE",
"228 479 CURVE SMOOTH",
"238 508 OFFCURVE",
"227 535 OFFCURVE",
"196 541 CURVE SMOOTH",
"170 547 OFFCURVE",
"148 537 OFFCURVE",
"135 503 CURVE SMOOTH",
"95 396 OFFCURVE",
"41 217 OFFCURVE",
"5 80 CURVE SMOOTH",
"-6 36 OFFCURVE",
"2 8 OFFCURVE",
"26 -2 CURVE SMOOTH",
"52 -12 OFFCURVE",
"82 -4 OFFCURVE",
"109 33 CURVE SMOOTH",
"152 95 OFFCURVE",
"240 221 OFFCURVE",
"313 295 CURVE SMOOTH",
"389 372 OFFCURVE",
"419 392 OFFCURVE",
"448 392 CURVE SMOOTH",
"461 392 OFFCURVE",
"469 382 OFFCURVE",
"466 362 CURVE SMOOTH",
"458 288 OFFCURVE",
"385 154 OFFCURVE",
"385 67 CURVE SMOOTH",
"385 14 OFFCURVE",
"420 -11 OFFCURVE",
"474 -11 CURVE SMOOTH"
);
}
);
width = 635;
}
);
leftKerningGroup = n;
rightKerningGroup = n;
unicode = 006E;
},
{
color = 5;
glyphname = o;
lastChange = "2025-04-25 11:18:29 +0000";
layers = (
{
layerId = "15880153-BF49-4651-A558-57743A88E547";
paths = (
{
closed = 1;
nodes = (
"378 -16 OFFCURVE",
"497 104 OFFCURVE",
"497 248 CURVE SMOOTH",
"497 350 OFFCURVE",
"429 448 OFFCURVE",
"306 492 CURVE",
"232 426 LINE",
"328 401 OFFCURVE",
"387 324 OFFCURVE",
"387 245 CURVE SMOOTH",
"387 149 OFFCURVE",
"311 87 OFFCURVE",
"243 87 CURVE SMOOTH",
"158 87 OFFCURVE",
"122 136 OFFCURVE",
"122 196 CURVE SMOOTH",
"122 276 OFFCURVE",
"171 361 OFFCURVE",
"254 433 CURVE SMOOTH",
"307 479 OFFCURVE",
"343 498 OFFCURVE",
"341 535 CURVE SMOOTH",
"340 556 OFFCURVE",
"323 571 OFFCURVE",
"296 571 CURVE SMOOTH",
"265 571 OFFCURVE",
"234 553 OFFCURVE",
"199 523 CURVE SMOOTH",
"82 425 OFFCURVE",
"13 290 OFFCURVE",
"13 178 CURVE SMOOTH",
"13 69 OFFCURVE",
"103 -16 OFFCURVE",
"239 -16 CURVE SMOOTH"
);
}
);
width = 539;
}
);
leftKerningGroup = o;
rightKerningGroup = o;
unicode = 006F;
},
{
color = 5;
glyphname = p;
lastChange = "2025-04-25 11:18:29 +0000";
layers = (
{
layerId = "15880153-BF49-4651-A558-57743A88E547";
paths = (
{
closed = 1;
nodes = (
"315 -1 OFFCURVE",
"547 230 OFFCURVE",
"518 432 CURVE SMOOTH",
"510 481 OFFCURVE",
"481 519 OFFCURVE",
"429 529 CURVE SMOOTH",
"342 546 OFFCURVE",
"245 502 OFFCURVE",
"171 412 CURVE",
"151 274 LINE",
"210 342 OFFCURVE",
"285 431 OFFCURVE",
"362 427 CURVE SMOOTH",
"405 425 OFFCURVE",
"419 398 OFFCURVE",
"419 369 CURVE SMOOTH",
"419 267 OFFCURVE",
"247 112 OFFCURVE",
"107 101 CURVE",
"89 -15 LINE"
);
},
{
closed = 1;
nodes = (
"49 -353 OFFCURVE",
"98 -57 OFFCURVE",
"113 9 CURVE SMOOTH",
"129 78 OFFCURVE",
"209 464 OFFCURVE",
"209 462 CURVE SMOOTH",
"219 509 OFFCURVE",
"213 532 OFFCURVE",
"187 542 CURVE SMOOTH",
"167 550 OFFCURVE",
"132 543 OFFCURVE",
"118 487 CURVE SMOOTH",
"53 234 OFFCURVE",
"0 -41 OFFCURVE",
"-68 -306 CURVE SMOOTH",
"-80 -354 OFFCURVE",
"-49 -400 OFFCURVE",
"2 -375 CURVE SMOOTH"
);
}
);
width = 538;
}
);
leftKerningGroup = p;
rightKerningGroup = p;
unicode = 0070;
},
{
color = 5;
glyphname = q;
lastChange = "2025-04-25 11:18:29 +0000";
layers = (
{
background = {
components = (
{
name = o;
transform = "{1, 0, 0, 1, -4, 0}";
}
);
};
layerId = "15880153-BF49-4651-A558-57743A88E547";
paths = (
{
closed = 1;
nodes = (
"259 -414 OFFCURVE",
"283 -401 OFFCURVE",
"295 -362 CURVE SMOOTH",
"376 -93 OFFCURVE",
"463 185 OFFCURVE",
"551 463 CURVE SMOOTH",
"571 526 OFFCURVE",
"545 553 OFFCURVE",
"515 553 CURVE SMOOTH",
"475 553 OFFCURVE",
"446 506 OFFCURVE",
"431 475 CURVE",
"386 506 OFFCURVE",
"338 520 OFFCURVE",
"292 520 CURVE SMOOTH",
"131 520 OFFCURVE",
"12 322 OFFCURVE",
"12 166 CURVE SMOOTH",
"12 72 OFFCURVE",
"55 -1 OFFCURVE",
"131 -1 CURVE SMOOTH",
"191 -1 OFFCURVE",
"282 44 OFFCURVE",
"370 159 CURVE",
"348 161 LINE",
"291 -4 OFFCURVE",
"241 -164 OFFCURVE",
"195 -333 CURVE SMOOTH",
"179 -390 OFFCURVE",
"213 -414 OFFCURVE",
"239 -414 CURVE SMOOTH"
);
},
{
closed = 1;
nodes = (
"126 111 OFFCURVE",
"112 135 OFFCURVE",
"112 182 CURVE SMOOTH",
"113 268 OFFCURVE",
"189 422 OFFCURVE",
"298 422 CURVE SMOOTH",
"354 422 OFFCURVE",
"399 387 OFFCURVE",
"428 341 CURVE",
"404 398 LINE",
"361 288 OFFCURVE",
"239 111 OFFCURVE",
"151 111 CURVE SMOOTH"
);
}
);
width = 543;
}
);
leftKerningGroup = o;
leftMetricsKey = o;
rightKerningGroup = q;
unicode = 0071;
},
{
color = 5;
glyphname = r;
lastChange = "2025-04-25 11:18:29 +0000";
layers = (
{
background = {
paths = (
{
closed = 1;
nodes = (
"216 442 OFFCURVE",
"175 382 OFFCURVE",
"181 347 CURVE",
"214 389 OFFCURVE",
"419 534 OFFCURVE",
"433 428 CURVE",
"442 367 OFFCURVE",
"378 374 OFFCURVE",
"342 354 CURVE",
"271 316 OFFCURVE",
"212 220 OFFCURVE",
"167 152 CURVE",
"142 113 OFFCURVE",
"91 -23 OFFCURVE",
"36 -8 CURVE",
"15 2 OFFCURVE",
"-5 15 OFFCURVE",
"-3 40 CURVE",
"46 163 OFFCURVE",
"62 332 OFFCURVE",
"113 449 CURVE",
"130 487 OFFCURVE",
"152 490 OFFCURVE",
"188 470 CURVE"
);
}
);
};
layerId = "15880153-BF49-4651-A558-57743A88E547";
paths = (
{
closed = 1;
nodes = (
"52 -13 OFFCURVE",
"82 -5 OFFCURVE",
"109 33 CURVE SMOOTH",
"153 95 OFFCURVE",
"233 232 OFFCURVE",
"282 288 CURVE SMOOTH",
"338 352 OFFCURVE",
"388 392 OFFCURVE",
"443 414 CURVE SMOOTH",
"476 427 OFFCURVE",
"505 446 OFFCURVE",
"505 475 CURVE SMOOTH",
"505 501 OFFCURVE",
"486 522 OFFCURVE",
"448 522 CURVE SMOOTH",
"366 522 OFFCURVE",
"278 444 OFFCURVE",
"179 320 CURVE",
"191 366 OFFCURVE",
"211 429 OFFCURVE",
"228 478 CURVE SMOOTH",
"238 508 OFFCURVE",
"227 534 OFFCURVE",
"196 541 CURVE SMOOTH",
"170 546 OFFCURVE",
"148 536 OFFCURVE",
"135 502 CURVE SMOOTH",
"95 396 OFFCURVE",
"41 216 OFFCURVE",
"5 80 CURVE SMOOTH",
"-6 36 OFFCURVE",
"2 7 OFFCURVE",
"26 -3 CURVE SMOOTH"
);
}
);
width = 466;
}
);
leftKerningGroup = n;
leftMetricsKey = n;
rightKerningGroup = r;
unicode = 0072;
},
{
color = 5;
glyphname = s;
lastChange = "2025-04-25 11:18:29 +0000";
layers = (
{
layerId = "15880153-BF49-4651-A558-57743A88E547";
paths = (
{
closed = 1;
nodes = (
"351 -44 OFFCURVE",
"433 36 OFFCURVE",
"433 149 CURVE SMOOTH",
"433 194 OFFCURVE",
"419 234 OFFCURVE",
"370 273 CURVE SMOOTH",
"251 367 OFFCURVE",
"214 393 OFFCURVE",
"214 431 CURVE SMOOTH",
"214 453 OFFCURVE",
"232 470 OFFCURVE",
"256 469 CURVE SMOOTH",
"323 466 OFFCURVE",
"346 417 OFFCURVE",
"383 417 CURVE SMOOTH",
"406 417 OFFCURVE",
"419 431 OFFCURVE",
"419 457 CURVE SMOOTH",
"419 506 OFFCURVE",
"338 560 OFFCURVE",
"248 560 CURVE SMOOTH",
"161 560 OFFCURVE",
"105 489 OFFCURVE",
"105 425 CURVE SMOOTH",
"105 354 OFFCURVE",
"169 301 OFFCURVE",
"268 222 CURVE SMOOTH",
"316 184 OFFCURVE",
"331 164 OFFCURVE",
"331 135 CURVE SMOOTH",
"331 93 OFFCURVE",
"300 59 OFFCURVE",
"250 59 CURVE SMOOTH",
"210 59 OFFCURVE",
"176 72 OFFCURVE",
"145 105 CURVE SMOOTH",
"102 151 OFFCURVE",
"89 207 OFFCURVE",
"55 207 CURVE SMOOTH",
"38 207 OFFCURVE",
"13 194 OFFCURVE",
"12 157 CURVE SMOOTH",
"12 125 OFFCURVE",
"33 90 OFFCURVE",
"56 58 CURVE SMOOTH",
"104 -9 OFFCURVE",
"162 -44 OFFCURVE",
"241 -44 CURVE SMOOTH"
);
}
);
width = 492;
}
);
leftKerningGroup = s;
rightKerningGroup = s;
unicode = 0073;
},
{
color = 5;
glyphname = t;
lastChange = "2025-04-25 11:18:29 +0000";
layers = (
{
layerId = "15880153-BF49-4651-A558-57743A88E547";
paths = (
{
closed = 1;
nodes = (
"323 -15 OFFCURVE",
"506 104 OFFCURVE",
"506 173 CURVE SMOOTH",
"506 186 OFFCURVE",
"499 203 OFFCURVE",
"483 213 CURVE SMOOTH",
"464 224 OFFCURVE",
"444 220 OFFCURVE",
"414 197 CURVE SMOOTH",
"365 160 OFFCURVE",
"287 98 OFFCURVE",
"224 98 CURVE SMOOTH",
"204 98 OFFCURVE",
"191 108 OFFCURVE",
"191 136 CURVE SMOOTH",
"191 215 OFFCURVE",
"260 382 OFFCURVE",
"317 521 CURVE SMOOTH",
"334 564 OFFCURVE",
"350 607 OFFCURVE",
"350 637 CURVE SMOOTH",
"350 663 OFFCURVE",
"337 679 OFFCURVE",
"315 682 CURVE SMOOTH",
"284 687 OFFCURVE",
"266 673 OFFCURVE",
"248 637 CURVE SMOOTH",
"184 516 OFFCURVE",
"83 259 OFFCURVE",
"83 129 CURVE SMOOTH",
"83 52 OFFCURVE",
"110 -9 OFFCURVE",
"199 -12 CURVE SMOOTH"
);
},
{
closed = 1;
nodes = (
"173 338 OFFCURVE",
"308 345 OFFCURVE",
"404 358 CURVE SMOOTH",
"443 363 OFFCURVE",
"471 377 OFFCURVE",
"472 405 CURVE SMOOTH",
"474 444 OFFCURVE",
"438 450 OFFCURVE",
"403 450 CURVE SMOOTH",
"323 450 OFFCURVE",
"142 443 OFFCURVE",
"69 436 CURVE SMOOTH",
"35 433 OFFCURVE",
"7 420 OFFCURVE",
"3 385 CURVE SMOOTH",
"0 348 OFFCURVE",
"30 332 OFFCURVE",
"88 334 CURVE SMOOTH"
);
}
);
width = 548;
}
);
leftKerningGroup = t;
rightKerningGroup = t;
unicode = 0074;
},
{
color = 5;
glyphname = u;
lastChange = "2025-04-25 11:18:29 +0000";
layers = (
{
background = {
components = (
{
name = a;
transform = "{1, 0, 0, 1, -56, 0}";
}
);
};
layerId = "15880153-BF49-4651-A558-57743A88E547";
paths = (
{
closed = 1;
nodes = (
"474 -11 OFFCURVE",
"530 14 OFFCURVE",
"538 46 CURVE SMOOTH",
"545 68 OFFCURVE",
"542 90 OFFCURVE",
"523 99 CURVE SMOOTH",
"504 108 OFFCURVE",
"485 97 OFFCURVE",
"472 97 CURVE SMOOTH",
"464 97 OFFCURVE",
"456 105 OFFCURVE",
"459 125 CURVE SMOOTH",
"491 326 OFFCURVE",
"549 403 OFFCURVE",
"549 475 CURVE SMOOTH",
"549 497 OFFCURVE",
"534 517 OFFCURVE",
"504 517 CURVE SMOOTH",
"478 517 OFFCURVE",
"458 506 OFFCURVE",
"426 455 CURVE SMOOTH",
"365 362 OFFCURVE",
"318 287 OFFCURVE",
"264 210 CURVE SMOOTH",
"196 113 OFFCURVE",
"170 97 OFFCURVE",
"142 97 CURVE SMOOTH",
"117 97 OFFCURVE",
"98 124 OFFCURVE",
"110 177 CURVE SMOOTH",
"131 272 OFFCURVE",
"163 361 OFFCURVE",
"191 456 CURVE SMOOTH",
"197 478 OFFCURVE",
"185 502 OFFCURVE",
"162 507 CURVE SMOOTH",
"138 513 OFFCURVE",
"114 501 OFFCURVE",
"102 474 CURVE SMOOTH",
"58 372 OFFCURVE",
"27 266 OFFCURVE",
"8 154 CURVE SMOOTH",
"-11 43 OFFCURVE",
"33 -10 OFFCURVE",
"120 -10 CURVE SMOOTH",
"243 -10 OFFCURVE",
"333 108 OFFCURVE",
"428 305 CURVE",
"414 298 LINE",
"373 208 OFFCURVE",
"355 137 OFFCURVE",
"355 62 CURVE SMOOTH",
"355 19 OFFCURVE",
"380 -11 OFFCURVE",
"419 -11 CURVE SMOOTH"
);
}
);
width = 588;
}
);
leftKerningGroup = y;
leftMetricsKey = y;
rightKerningGroup = a;
rightMetricsKey = a;
unicode = 0075;
},
{
color = 5;
glyphname = v;
lastChange = "2025-04-25 11:18:29 +0000";
layers = (
{
layerId = "15880153-BF49-4651-A558-57743A88E547";
paths = (
{
closed = 1;
nodes = (
"168 -18 OFFCURVE",
"189 -4 OFFCURVE",
"207 25 CURVE SMOOTH",
"303 176 OFFCURVE",
"400 323 OFFCURVE",
"500 469 CURVE SMOOTH",
"518 495 OFFCURVE",
"513 519 OFFCURVE",
"497 534 CURVE SMOOTH",
"473 554 OFFCURVE",
"435 554 OFFCURVE",
"410 517 CURVE SMOOTH",
"330 402 OFFCURVE",
"238 266 OFFCURVE",
"172 164 CURVE",
"191 150 LINE",
"179 226 OFFCURVE",
"152 429 OFFCURVE",
"139 486 CURVE SMOOTH",
"128 530 OFFCURVE",
"113 541 OFFCURVE",
"89 541 CURVE SMOOTH",
"62 541 OFFCURVE",
"33 520 OFFCURVE",
"38 479 CURVE SMOOTH",
"58 337 OFFCURVE",
"79 172 OFFCURVE",
"96 36 CURVE SMOOTH",
"101 -1 OFFCURVE",
"119 -18 OFFCURVE",
"146 -18 CURVE SMOOTH"
);
}
);
width = 489;
}
);
leftKerningGroup = v;
rightKerningGroup = v;
unicode = 0076;
},
{
color = 5;
glyphname = w;
lastChange = "2025-04-25 11:18:29 +0000";
layers = (
{
layerId = "15880153-BF49-4651-A558-57743A88E547";
paths = (
{
closed = 1;
nodes = (
"154 -23 OFFCURVE",
"188 -7 OFFCURVE",
"212 35 CURVE SMOOTH",
"390 365 LINE",
"366 357 LINE",
"377 242 OFFCURVE",
"389 135 OFFCURVE",
"400 42 CURVE SMOOTH",
"407 -3 OFFCURVE",
"425 -23 OFFCURVE",
"452 -23 CURVE SMOOTH",
"474 -23 OFFCURVE",
"509 -7 OFFCURVE",
"533 35 CURVE SMOOTH",
"600 157 OFFCURVE",
"683 313 OFFCURVE",
"770 468 CURVE SMOOTH",
"785 495 OFFCURVE",
"779 519 OFFCURVE",
"761 532 CURVE SMOOTH",
"736 550 OFFCURVE",
"698 547 OFFCURVE",
"676 507 CURVE SMOOTH",
"609 393 OFFCURVE",
"534 257 OFFCURVE",
"478 152 CURVE",
"496 152 LINE",
"485 233 OFFCURVE",
"466 413 OFFCURVE",
"456 481 CURVE SMOOTH",
"451 519 OFFCURVE",
"438 533 OFFCURVE",
"419 539 CURVE SMOOTH",
"400 544 OFFCURVE",
"375 539 OFFCURVE",
"357 507 CURVE SMOOTH",
"290 393 OFFCURVE",
"215 257 OFFCURVE",
"159 152 CURVE",
"177 152 LINE",
"166 233 OFFCURVE",
"147 415 OFFCURVE",
"137 481 CURVE SMOOTH",
"131 526 OFFCURVE",
"111 536 OFFCURVE",
"87 536 CURVE SMOOTH",
"60 536 OFFCURVE",
"33 515 OFFCURVE",
"36 474 CURVE SMOOTH",
"51 310 OFFCURVE",
"66 167 OFFCURVE",
"81 42 CURVE SMOOTH",
"88 -3 OFFCURVE",
"106 -23 OFFCURVE",
"133 -23 CURVE SMOOTH"
);
}
);
width = 757;
}
);
leftKerningGroup = v;
leftMetricsKey = v;
rightKerningGroup = v;
rightMetricsKey = v;
unicode = 0077;
},
{
color = 5;
glyphname = x;
lastChange = "2025-04-25 11:18:29 +0000";
layers = (
{
background = {
paths = (
{
closed = 1;
nodes = (
"304 286 LINE",
"304 285 OFFCURVE",
"303 284 OFFCURVE",
"303 283 CURVE",
"303 250 OFFCURVE",
"418 101 OFFCURVE",
"429 58 CURVE SMOOTH",
"430 53 OFFCURVE",
"431 46 OFFCURVE",
"431 40 CURVE SMOOTH",
"431 24 OFFCURVE",
"427 6 OFFCURVE",
"418 -3 CURVE SMOOTH",
"408 -13 OFFCURVE",
"399 -17 OFFCURVE",
"389 -17 CURVE SMOOTH",
"326 -17 OFFCURVE",
"265 167 OFFCURVE",
"234 196 CURVE",
"233 196 OFFCURVE",
"232 196 OFFCURVE",
"231 195 CURVE"
);
},
{
closed = 1;
nodes = (
"175 301 LINE",
"165 345 OFFCURVE",
"89 434 OFFCURVE",
"89 484 CURVE SMOOTH",
"89 497 OFFCURVE",
"94 508 OFFCURVE",
"107 514 CURVE SMOOTH",
"116 518 OFFCURVE",
"124 520 OFFCURVE",
"131 520 CURVE SMOOTH",
"184 520 OFFCURVE",
"206 421 OFFCURVE",
"244 389 CURVE"
);
},
{
closed = 1;
nodes = (
"231 195 LINE",
"205 180 OFFCURVE",
"104 12 OFFCURVE",
"73 -6 CURVE SMOOTH",
"61 -13 OFFCURVE",
"49 -16 OFFCURVE",
"39 -16 CURVE SMOOTH",
"16 -16 OFFCURVE",
"-2 0 OFFCURVE",
"-3 31 CURVE SMOOTH",
"-6 81 OFFCURVE",
"151 237 OFFCURVE",
"176 294 CURVE",
"176 296 OFFCURVE",
"176 298 OFFCURVE",
"175 301 CURVE",
"244 389 LINE",
"244 388 OFFCURVE",
"245 388 OFFCURVE",
"245 388 CURVE",
"370 524 LINE",
"379 525 OFFCURVE",
"387 526 OFFCURVE",
"395 526 CURVE SMOOTH",
"429 526 OFFCURVE",
"442 514 OFFCURVE",
"442 497 CURVE SMOOTH",
"442 445 OFFCURVE",
"325 335 OFFCURVE",
"304 286 CURVE"
);
}
);
};
layerId = "15880153-BF49-4651-A558-57743A88E547";
paths = (
{
closed = 1;
nodes = (
"401 -11 OFFCURVE",
"421 -1 OFFCURVE",
"426 22 CURVE SMOOTH",
"433 56 OFFCURVE",
"420 83 OFFCURVE",
"359 190 CURVE SMOOTH",
"251 379 LINE SMOOTH",
"247 387 OFFCURVE",
"210 463 OFFCURVE",
"193 489 CURVE SMOOTH",
"177 514 OFFCURVE",
"157 526 OFFCURVE",
"137 523 CURVE SMOOTH",
"104 519 OFFCURVE",
"86 492 OFFCURVE",
"108 440 CURVE SMOOTH",
"140 363 OFFCURVE",
"201 253 OFFCURVE",
"229 198 CURVE SMOOTH",
"258 143 OFFCURVE",
"293 84 OFFCURVE",
"324 35 CURVE SMOOTH",
"346 -1 OFFCURVE",
"363 -11 OFFCURVE",
"382 -11 CURVE SMOOTH"
);
},
{
closed = 1;
nodes = (
"40 -16 OFFCURVE",
"49 -12 OFFCURVE",
"66 1 CURVE SMOOTH",
"85 14 OFFCURVE",
"156 106 OFFCURVE",
"162 113 CURVE SMOOTH",
"301 286 LINE SMOOTH",
"333 327 OFFCURVE",
"439 438 OFFCURVE",
"441 487 CURVE SMOOTH",
"442 510 OFFCURVE",
"429 523 OFFCURVE",
"410 525 CURVE SMOOTH",
"391 527 OFFCURVE",
"372 520 OFFCURVE",
"343 488 CURVE SMOOTH",
"290 430 OFFCURVE",
"230 360 OFFCURVE",
"177 294 CURVE SMOOTH",
"139 244 OFFCURVE",
"56 144 OFFCURVE",
"8 73 CURVE SMOOTH",
"-24 25 OFFCURVE",
"-12 -16 OFFCURVE",
"30 -16 CURVE SMOOTH"
);
}
);
width = 486;
}
);
leftKerningGroup = x;
rightKerningGroup = x;
unicode = 0078;
},
{
color = 5;
glyphname = y;
lastChange = "2025-04-25 11:18:29 +0000";
layers = (
{
background = {
paths = (
{
closed = 1;
nodes = (
"194 64 OFFCURVE",
"435 450 OFFCURVE",
"448 489 CURVE",
"527 528 OFFCURVE",
"539 479 OFFCURVE",
"528 410 CURVE",
"504 256 OFFCURVE",
"371 -144 OFFCURVE",
"267 -254 CURVE",
"106 -425 OFFCURVE",
"-78 -236 OFFCURVE",
"13 -52 CURVE",
"154 3 OFFCURVE",
"52 -229 OFFCURVE",
"142 -215 CURVE",
"218 -204 OFFCURVE",
"318 41 OFFCURVE",
"331 112 CURVE",
"273 50 OFFCURVE",
"130 -59 OFFCURVE",
"61 49 CURVE",
"11 130 OFFCURVE",
"94 375 OFFCURVE",
"138 459 CURVE",
"149 480 OFFCURVE",
"160 514 OFFCURVE",
"188 516 CURVE",
"213 518 OFFCURVE",
"232 502 OFFCURVE",
"235 477 CURVE",
"245 416 OFFCURVE",
"118 150 OFFCURVE",
"150 112 CURVE"
);
}
);
};
layerId = "15880153-BF49-4651-A558-57743A88E547";
paths = (
{
closed = 1;
nodes = (
"288 -365 OFFCURVE",
"371 -47 OFFCURVE",
"458 192 CURVE SMOOTH",
"513 345 OFFCURVE",
"534 421 OFFCURVE",
"540 463 CURVE SMOOTH",
"546 513 OFFCURVE",
"526 535 OFFCURVE",
"496 535 CURVE SMOOTH",
"464 535 OFFCURVE",
"439 498 OFFCURVE",
"420 453 CURVE SMOOTH",
"367 322 OFFCURVE",
"321 251 OFFCURVE",
"282 202 CURVE SMOOTH",
"230 138 OFFCURVE",
"192 110 OFFCURVE",
"160 110 CURVE SMOOTH",
"134 110 OFFCURVE",
"116 132 OFFCURVE",
"126 177 CURVE SMOOTH",
"147 272 OFFCURVE",
"179 361 OFFCURVE",
"207 456 CURVE SMOOTH",
"213 478 OFFCURVE",
"201 502 OFFCURVE",
"178 507 CURVE SMOOTH",
"154 513 OFFCURVE",
"130 501 OFFCURVE",
"118 474 CURVE SMOOTH",
"74 372 OFFCURVE",
"43 266 OFFCURVE",
"24 154 CURVE SMOOTH",
"7 52 OFFCURVE",
"50 4 OFFCURVE",
"140 4 CURVE SMOOTH",
"234 4 OFFCURVE",
"310 74 OFFCURVE",
"395 214 CURVE",
"374 225 LINE",
"280 -3 OFFCURVE",
"183 -246 OFFCURVE",
"87 -246 CURVE SMOOTH",
"47 -246 OFFCURVE",
"36 -204 OFFCURVE",
"20 -119 CURVE SMOOTH",
"10 -66 OFFCURVE",
"-83 -62 OFFCURVE",
"-83 -145 CURVE SMOOTH",
"-83 -291 OFFCURVE",
"-17 -365 OFFCURVE",
"59 -365 CURVE SMOOTH"
);
}
);
width = 538;
}
);
leftKerningGroup = y;
rightKerningGroup = g;
rightMetricsKey = g;
unicode = 0079;
},
{
color = 5;
glyphname = z;
lastChange = "2025-04-25 11:18:29 +0000";
layers = (
{
layerId = "15880153-BF49-4651-A558-57743A88E547";
paths = (
{
closed = 1;
nodes = (
"167 -9 OFFCURVE",
"415 19 OFFCURVE",
"485 34 CURVE SMOOTH",
"513 40 OFFCURVE",
"532 66 OFFCURVE",
"529 93 CURVE SMOOTH",
"526 122 OFFCURVE",
"506 139 OFFCURVE",
"464 135 CURVE SMOOTH",
"409 131 OFFCURVE",
"262 110 OFFCURVE",
"172 100 CURVE",
"162 75 LINE",
"522 390 LINE SMOOTH",
"561 423 OFFCURVE",
"580 449 OFFCURVE",
"580 490 CURVE SMOOTH",
"580 520 OFFCURVE",
"557 544 OFFCURVE",
"527 544 CURVE SMOOTH",
"504 544 OFFCURVE",
"493 536 OFFCURVE",
"483 528 CURVE",
"379 528 OFFCURVE",
"242 518 OFFCURVE",
"174 508 CURVE SMOOTH",
"139 503 OFFCURVE",
"125 476 OFFCURVE",
"127 457 CURVE SMOOTH",
"130 433 OFFCURVE",
"151 412 OFFCURVE",
"188 416 CURVE SMOOTH",
"261 423 OFFCURVE",
"346 428 OFFCURVE",
"432 429 CURVE",
"425 450 LINE",
"297 337 OFFCURVE",
"168 225 OFFCURVE",
"40 112 CURVE SMOOTH",
"8 84 OFFCURVE",
"-9 62 OFFCURVE",
"-6 36 CURVE SMOOTH",
"-2 6 OFFCURVE",
"15 -9 OFFCURVE",
"47 -9 CURVE SMOOTH"
);
}
);
width = 599;
}
);
leftKerningGroup = z;
rightKerningGroup = z;
unicode = 007A;
},
{
glyphname = "alef-hb";
lastChange = "2024-12-05 05:27:42 +0000";
layers = (
{
anchors = (
{
name = bottom;
position = "{210, 0}";
},
{
name = center;
position = "{404, 187}";
},
{
name = top;
position = "{457, 462}";
},
{
name = topleft;
position = "{50, 550}";
}
);
layerId = "15880153-BF49-4651-A558-57743A88E547";
paths = (
{
closed = 1;
nodes = (
"0 -78 OFFCURVE",
"41 -77 OFFCURVE",
"57 -4 CURVE SMOOTH",
"73 70 OFFCURVE",
"248 478 OFFCURVE",
"270 525 CURVE SMOOTH",
"292 572 OFFCURVE",
"277 612 OFFCURVE",
"256 619 CURVE SMOOTH",
"222 630 OFFCURVE",
"189 613 OFFCURVE",
"162 575 CURVE SMOOTH",
"130 529 OFFCURVE",
"-26 119 OFFCURVE",
"-42 46 CURVE SMOOTH",
"-58 -27 OFFCURVE",
"-49 -66 OFFCURVE",
"-25 -72 CURVE SMOOTH"
);
},
{
closed = 1;
nodes = (
"387 -24 OFFCURVE",
"423 3 OFFCURVE",
"423 36 CURVE SMOOTH",
"423 66 OFFCURVE",
"296 65 OFFCURVE",
"296 160 CURVE SMOOTH",
"296 255 OFFCURVE",
"441 315 OFFCURVE",
"502 336 CURVE SMOOTH",
"556 355 OFFCURVE",
"571 398 OFFCURVE",
"550 428 CURVE SMOOTH",
"531 456 OFFCURVE",
"494 453 OFFCURVE",
"461 444 CURVE SMOOTH",
"428 435 OFFCURVE",
"193 339 OFFCURVE",
"180 164 CURVE SMOOTH",
"171 41 OFFCURVE",
"292 -14 OFFCURVE",
"339 -19 CURVE SMOOTH"
);
}
);
width = 537;
}
);
leftKerningGroup = "alef-hb";
rightKerningGroup = "vav-hb";
unicode = 05D0;
},
{
glyphname = "bet-hb";
lastChange = "2024-12-05 05:23:50 +0000";
layers = (
{
anchors = (
{
name = bottom;
position = "{312, 33}";
},
{
name = bottomleft;
position = "{-59, 0}";
},
{
name = center;
position = "{331, 245}";
},
{
name = top;
position = "{381, 480}";
},
{
name = topleft;
position = "{75, 462}";
}
);
layerId = "15880153-BF49-4651-A558-57743A88E547";
paths = (
{
closed = 1;
nodes = (
"20 -108 OFFCURVE",
"57 -111 OFFCURVE",
"77 -71 CURVE SMOOTH",
"97 -31 OFFCURVE",
"194 107 OFFCURVE",
"194 107 CURVE",
"149 114 LINE",
"149 114 OFFCURVE",
"200 33 OFFCURVE",
"300 27 CURVE SMOOTH",
"424 19 OFFCURVE",
"611 143 OFFCURVE",
"617 266 CURVE SMOOTH",
"623 390 OFFCURVE",
"491 474 OFFCURVE",
"381 480 CURVE SMOOTH",
"261 487 OFFCURVE",
"116 443 OFFCURVE",
"78 420 CURVE SMOOTH",
"41 398 OFFCURVE",
"23 370 OFFCURVE",
"44 340 CURVE SMOOTH",
"62 315 OFFCURVE",
"94 317 OFFCURVE",
"133 321 CURVE SMOOTH",
"200 328 OFFCURVE",
"276 368 OFFCURVE",
"365 368 CURVE SMOOTH",
"425 368 OFFCURVE",
"491 334 OFFCURVE",
"497 274 CURVE SMOOTH",
"504 203 OFFCURVE",
"378 124 OFFCURVE",
"312 126 CURVE SMOOTH",
"239 128 OFFCURVE",
"227 217 OFFCURVE",
"170 211 CURVE SMOOTH",
"111 205 OFFCURVE",
"24 46 OFFCURVE",
"-8 -4 CURVE SMOOTH",
"-39 -53 OFFCURVE",
"-24 -91 OFFCURVE",
"-4 -99 CURVE SMOOTH"
);
}
);
width = 642;
}
);
leftKerningGroup = "bet-hb";
rightKerningGroup = "bet-hb";
unicode = 05D1;
},
{
glyphname = "gimel-hb";
lastChange = "2024-12-05 05:27:47 +0000";
layers = (
{
anchors = (
{
name = bottom;
position = "{158, -113}";
},
{
name = bottomleft;
position = "{-59, 0}";
},
{
name = center;
position = "{311, 150}";
},
{
name = top;
position = "{404, 514}";
},
{
name = topleft;
position = "{49, 521}";
}
);
layerId = "15880153-BF49-4651-A558-57743A88E547";
paths = (
{
closed = 1;
nodes = (
"203 -148 OFFCURVE",
"191 -106 OFFCURVE",
"163 -86 CURVE SMOOTH",
"109 -47 OFFCURVE",
"65 -2 OFFCURVE",
"65 67 CURVE SMOOTH",
"65 168 OFFCURVE",
"244 299 OFFCURVE",
"448 328 CURVE",
"401 399 LINE",
"401 399 OFFCURVE",
"319 411 OFFCURVE",
"279 511 CURVE SMOOTH",
"254 574 OFFCURVE",
"209 607 OFFCURVE",
"170 582 CURVE SMOOTH",
"134 559 OFFCURVE",
"140 521 OFFCURVE",
"151 485 CURVE SMOOTH",
"183 379 OFFCURVE",
"318 288 OFFCURVE",
"404 288 CURVE SMOOTH",
"490 288 OFFCURVE",
"526 337 OFFCURVE",
"526 369 CURVE SMOOTH",
"526 401 OFFCURVE",
"483 427 OFFCURVE",
"412 427 CURVE SMOOTH",
"340 427 OFFCURVE",
"-23 327 OFFCURVE",
"-47 85 CURVE SMOOTH",
"-56 -5 OFFCURVE",
"-6 -88 OFFCURVE",
"72 -148 CURVE SMOOTH",
"107 -175 OFFCURVE",
"152 -189 OFFCURVE",
"173 -172 CURVE SMOOTH"
);
}
);
width = 513;
}
);
leftKerningGroup = "gimel-hb";
rightKerningGroup = "gimel-hb";
unicode = 05D2;
},
{
glyphname = "dalet-hb";
lastChange = "2024-12-05 05:27:50 +0000";
layers = (
{
anchors = (
{
name = bottom;
position = "{235, -22}";
},
{
name = bottomleft;
position = "{-59, 0}";
},
{
name = center;
position = "{232, 427}";
},
{
name = top;
position = "{369, 605}";
},
{
name = topleft;
position = "{17, 548}";
}
);
layerId = "15880153-BF49-4651-A558-57743A88E547";
paths = (
{
closed = 1;
nodes = (
"354 43 OFFCURVE",
"381 50 OFFCURVE",
"392 154 CURVE SMOOTH",
"405 284 OFFCURVE",
"346 290 OFFCURVE",
"326 290 CURVE",
"323 280 LINE",
"346 280 OFFCURVE",
"543 338 OFFCURVE",
"558 481 CURVE SMOOTH",
"569 586 OFFCURVE",
"481 637 OFFCURVE",
"389 647 CURVE SMOOTH",
"298 656 OFFCURVE",
"147 625 OFFCURVE",
"100 587 CURVE SMOOTH",
"83 573 OFFCURVE",
"60 536 OFFCURVE",
"82 507 CURVE SMOOTH",
"105 480 OFFCURVE",
"184 491 OFFCURVE",
"226 509 CURVE SMOOTH",
"267 526 OFFCURVE",
"342 544 OFFCURVE",
"404 538 CURVE SMOOTH",
"465 531 OFFCURVE",
"468 486 OFFCURVE",
"439 455 CURVE SMOOTH",
"409 422 OFFCURVE",
"308 359 OFFCURVE",
"229 335 CURVE SMOOTH",
"229 335 OFFCURVE",
"29 351 OFFCURVE",
"40 269 CURVE SMOOTH",
"53 186 OFFCURVE",
"149 235 OFFCURVE",
"212 228 CURVE SMOOTH",
"274 221 OFFCURVE",
"290 199 OFFCURVE",
"286 161 CURVE SMOOTH",
"282 121 OFFCURVE",
"269 95 OFFCURVE",
"240 40 CURVE SMOOTH",
"211 -14 OFFCURVE",
"293 -41 OFFCURVE",
"325 3 CURVE SMOOTH"
);
}
);
width = 519;
}
);
leftKerningGroup = "dalet-hb";
rightKerningGroup = "dalet-hb";
unicode = 05D3;
},
{
glyphname = "he-hb";
lastChange = "2024-12-05 05:27:52 +0000";
layers = (
{
anchors = (
{
name = bottom;
position = "{211, 0}";
},
{
name = bottomleft;
position = "{-57, 0}";
},
{
name = center;
position = "{399, 338}";
},
{
name = top;
position = "{407, 550}";
},
{
name = topleft;
position = "{23, 533}";
}
);
layerId = "15880153-BF49-4651-A558-57743A88E547";
paths = (
{
closed = 1;
nodes = (
"502 65 OFFCURVE",
"705 248 OFFCURVE",
"633 429 CURVE SMOOTH",
"564 603 OFFCURVE",
"279 630 OFFCURVE",
"89 512 CURVE SMOOTH",
"47 486 OFFCURVE",
"32 454 OFFCURVE",
"48 429 CURVE SMOOTH",
"68 398 OFFCURVE",
"105 404 OFFCURVE",
"141 420 CURVE SMOOTH",
"346 511 OFFCURVE",
"532 477 OFFCURVE",
"540 370 CURVE SMOOTH",
"548 260 OFFCURVE",
"408 150 OFFCURVE",
"352 99 CURVE SMOOTH",
"321 71 OFFCURVE",
"295 39 OFFCURVE",
"308 10 CURVE SMOOTH",
"324 -27 OFFCURVE",
"370 -15 OFFCURVE",
"403 5 CURVE SMOOTH"
);
},
{
closed = 1;
nodes = (
"54 -26 OFFCURVE",
"85 -4 OFFCURVE",
"109 15 CURVE SMOOTH",
"163 57 OFFCURVE",
"214 147 OFFCURVE",
"233 214 CURVE SMOOTH",
"248 267 OFFCURVE",
"235 295 OFFCURVE",
"209 307 CURVE",
"182 321 OFFCURVE",
"134 307 OFFCURVE",
"126 272 CURVE SMOOTH",
"107 190 OFFCURVE",
"80 137 OFFCURVE",
"31 95 CURVE SMOOTH",
"-22 50 OFFCURVE",
"0 4 OFFCURVE",
"29 -12 CURVE SMOOTH"
);
}
);
width = 659;
}
);
leftKerningGroup = "he-hb";
rightKerningGroup = "he-hb";
unicode = 05D4;
},
{
glyphname = "vav-hb";
lastChange = "2024-12-05 05:27:54 +0000";
layers = (
{
anchors = (
{
name = bottom;
position = "{-1, -6}";
},
{
name = bottomleft;
position = "{-59, 0}";
},
{
name = center;
position = "{19, 368}";
},
{
name = top;
position = "{216, 621}";
},
{
name = topleft;
position = "{214, 574}";
}
);
layerId = "15880153-BF49-4651-A558-57743A88E547";
paths = (
{
closed = 1;
nodes = (
"5 -24 OFFCURVE",
"29 -22 OFFCURVE",
"59 25 CURVE SMOOTH",
"89 72 OFFCURVE",
"216 358 OFFCURVE",
"257 493 CURVE SMOOTH",
"278 563 OFFCURVE",
"272 610 OFFCURVE",
"232 621 CURVE SMOOTH",
"176 636 OFFCURVE",
"151 590 OFFCURVE",
"127 507 CURVE SMOOTH",
"70 310 OFFCURVE",
"-14 110 OFFCURVE",
"-23 80 CURVE SMOOTH",
"-37 33 OFFCURVE",
"-42 -6 OFFCURVE",
"-21 -14 CURVE SMOOTH"
);
}
);
width = 233;
}
);
leftKerningGroup = "vav-hb";
rightKerningGroup = "vav-hb";
unicode = 05D5;
},
{
glyphname = "zayin-hb";
lastChange = "2024-12-05 05:23:42 +0000";
layers = (
{
anchors = (
{
name = bottom;
position = "{192, -37}";
},
{
name = bottomleft;
position = "{-59, 0}";
},
{
name = center;
position = "{212, 198}";
},
{
name = top;
position = "{350, 658}";
},
{
name = topleft;
position = "{47, 528}";
}
);
layerId = "15880153-BF49-4651-A558-57743A88E547";
paths = (
{
closed = 1;
nodes = (
"248 -37 OFFCURVE",
"513 100 OFFCURVE",
"513 297 CURVE SMOOTH",
"513 528 OFFCURVE",
"234 451 OFFCURVE",
"180 418 CURVE",
"212 403 LINE",
"212 403 OFFCURVE",
"373 560 OFFCURVE",
"403 589 CURVE SMOOTH",
"443 628 OFFCURVE",
"447 682 OFFCURVE",
"413 704 CURVE SMOOTH",
"380 726 OFFCURVE",
"338 718 OFFCURVE",
"306 677 CURVE SMOOTH",
"274 636 OFFCURVE",
"78 403 OFFCURVE",
"58 383 CURVE SMOOTH",
"21 346 OFFCURVE",
"54 271 OFFCURVE",
"115 282 CURVE SMOOTH",
"153 289 OFFCURVE",
"317 385 OFFCURVE",
"381 341 CURVE SMOOTH",
"445 297 OFFCURVE",
"366 183 OFFCURVE",
"274 122 CURVE SMOOTH",
"199 72 OFFCURVE",
"78 8 OFFCURVE",
"-12 -1 CURVE SMOOTH",
"-31 -3 OFFCURVE",
"-83 7 OFFCURVE",
"-90 -30 CURVE SMOOTH",
"-100 -83 OFFCURVE",
"0 -127 OFFCURVE",
"119 -84 CURVE SMOOTH"
);
}
);
width = 541;
}
);
leftKerningGroup = "zayin-hb";
rightKerningGroup = "zayin-hb";
unicode = 05D6;
},
{
glyphname = "het-hb";
lastChange = "2024-12-05 05:27:58 +0000";
layers = (
{
anchors = (
{
name = bottom;
position = "{190, 23}";
},
{
name = bottomleft;
position = "{-59, 0}";
},
{
name = center;
position = "{329, 275}";
},
{
name = top;
position = "{408, 550}";
},
{
name = topleft;
position = "{47, 507}";
}
);
layerId = "15880153-BF49-4651-A558-57743A88E547";
paths = (
{
closed = 1;
nodes = (
"438 -65 OFFCURVE",
"599 192 OFFCURVE",
"641 305 CURVE SMOOTH",
"683 419 OFFCURVE",
"612 517 OFFCURVE",
"520 542 CURVE SMOOTH",
"429 567 OFFCURVE",
"187 498 OFFCURVE",
"141 477 CURVE SMOOTH",
"95 456 OFFCURVE",
"31 409 OFFCURVE",
"47 367 CURVE SMOOTH",
"59 335 OFFCURVE",
"96 327 OFFCURVE",
"128 341 CURVE SMOOTH",
"164 357 OFFCURVE",
"362 450 OFFCURVE",
"477 430 CURVE SMOOTH",
"592 410 OFFCURVE",
"466 227 OFFCURVE",
"427 176 CURVE SMOOTH",
"381 115 OFFCURVE",
"271 23 OFFCURVE",
"345 -16 CURVE SMOOTH"
);
},
{
closed = 1;
nodes = (
"28 -2 OFFCURVE",
"54 22 OFFCURVE",
"87 68 CURVE SMOOTH",
"129 126 OFFCURVE",
"308 482 OFFCURVE",
"337 547 CURVE SMOOTH",
"361 600 OFFCURVE",
"361 636 OFFCURVE",
"326 652 CURVE SMOOTH",
"292 668 OFFCURVE",
"253 635 OFFCURVE",
"224 569 CURVE SMOOTH",
"193 499 OFFCURVE",
"17 154 OFFCURVE",
"-10 106 CURVE SMOOTH",
"-38 56 OFFCURVE",
"-29 22 OFFCURVE",
"-5 12 CURVE SMOOTH"
);
}
);
width = 658;
}
);
leftKerningGroup = "het-hb";
rightKerningGroup = "het-hb";
unicode = 05D7;
},
{
glyphname = "tet-hb";
lastChange = "2024-12-05 05:23:39 +0000";
layers = (
{
anchors = (
{
name = bottom;
position = "{255, 5}";
},
{
name = bottomleft;
position = "{-59, 0}";
},
{
name = center;
position = "{282, 275}";
},
{
name = top;
position = "{361, 550}";
},
{
name = topleft;
position = "{72, 550}";
}
);
layerId = "15880153-BF49-4651-A558-57743A88E547";
paths = (
{
closed = 1;
nodes = (
"414 -21 OFFCURVE",
"507 167 OFFCURVE",
"519 241 CURVE SMOOTH",
"528 297 OFFCURVE",
"507 344 OFFCURVE",
"462 344 CURVE SMOOTH",
"439 344 OFFCURVE",
"406 327 OFFCURVE",
"396 279 CURVE SMOOTH",
"377 189 OFFCURVE",
"330 96 OFFCURVE",
"246 96 CURVE SMOOTH",
"196 96 OFFCURVE",
"154 138 OFFCURVE",
"154 186 CURVE SMOOTH",
"154 505 OFFCURVE",
"450 633 OFFCURVE",
"637 659 CURVE SMOOTH",
"680 665 OFFCURVE",
"718 682 OFFCURVE",
"713 723 CURVE SMOOTH",
"706 772 OFFCURVE",
"645 772 OFFCURVE",
"567 761 CURVE SMOOTH",
"336 729 OFFCURVE",
"31 517 OFFCURVE",
"31 193 CURVE SMOOTH",
"31 62 OFFCURVE",
"132 -21 OFFCURVE",
"244 -21 CURVE SMOOTH"
);
}
);
width = 563;
}
);
leftKerningGroup = "tet-hb";
rightKerningGroup = "tet-hb";
unicode = 05D8;
},
{
glyphname = "yod-hb";
lastChange = "2024-12-05 05:28:01 +0000";
layers = (
{
anchors = (
{
name = bottom;
position = "{31, 0}";
},
{
name = bottomleft;
position = "{-49, 0}";
},
{
name = center;
position = "{11, 404}";
},
{
name = top;
position = "{189, 550}";
},
{
name = topleft;
position = "{109, 550}";
}
);
layerId = "15880153-BF49-4651-A558-57743A88E547";
paths = (
{
closed = 1;
nodes = (
"141 199 OFFCURVE",
"196 394 OFFCURVE",
"215 447 CURVE SMOOTH",
"233 498 OFFCURVE",
"235 541 OFFCURVE",
"188 557 CURVE SMOOTH",
"155 568 OFFCURVE",
"120 540 OFFCURVE",
"106 491 CURVE SMOOTH",
"78 392 OFFCURVE",
"-2 253 OFFCURVE",
"62 229 CURVE SMOOTH"
);
}
);
width = 207;
}
);
leftKerningGroup = "yod-hb";
rightKerningGroup = "yod-hb";
unicode = 05D9;
},
{
glyphname = "finalkaf-hb";
lastChange = "2024-12-05 05:28:04 +0000";
layers = (
{
anchors = (
{
name = bottom;
position = "{90, 169}";
},
{
name = bottomleft;
position = "{-8, 0}";
},
{
name = center;
position = "{179, 290}";
},
{
name = top;
position = "{345, 550}";
},
{
name = topleft;
position = "{45, 550}";
}
);
layerId = "15880153-BF49-4651-A558-57743A88E547";
paths = (
{
closed = 1;
nodes = (
"5 -378 OFFCURVE",
"37 -379 OFFCURVE",
"75 -336 CURVE SMOOTH",
"176 -221 OFFCURVE",
"319 17 OFFCURVE",
"382 118 CURVE SMOOTH",
"479 273 OFFCURVE",
"513 565 OFFCURVE",
"259 598 CURVE SMOOTH",
"138 610 OFFCURVE",
"66 586 OFFCURVE",
"77 520 CURVE SMOOTH",
"83 483 OFFCURVE",
"118 474 OFFCURVE",
"164 481 CURVE SMOOTH",
"275 499 OFFCURVE",
"339 443 OFFCURVE",
"339 360 CURVE SMOOTH",
"339 258 OFFCURVE",
"267 145 OFFCURVE",
"221 70 CURVE SMOOTH",
"194 26 OFFCURVE",
"79 -169 OFFCURVE",
"0 -280 CURVE SMOOTH",
"-40 -336 OFFCURVE",
"-14 -363 OFFCURVE",
"-5 -370 CURVE SMOOTH"
);
}
);
width = 481;
}
);
leftKerningGroup = "finalkaf-hb";
rightKerningGroup = "finalkaf-hb";
unicode = 05DA;
},
{
glyphname = "kaf-hb";
lastChange = "2024-12-05 05:22:31 +0000";
layers = (
{
anchors = (
{
name = bottom;
position = "{219, 0}";
},
{
name = bottomleft;
position = "{-59, 0}";
},
{
name = center;
position = "{220, 275}";
},
{
name = top;
position = "{307, 570}";
},
{
name = topleft;
position = "{46, 550}";
}
);
layerId = "15880153-BF49-4651-A558-57743A88E547";
paths = (
{
closed = 1;
nodes = (
"219 -50 OFFCURVE",
"475 -30 OFFCURVE",
"556 255 CURVE SMOOTH",
"616 467 OFFCURVE",
"401 629 OFFCURVE",
"167 570 CURVE SMOOTH",
"123 559 OFFCURVE",
"92 538 OFFCURVE",
"95 502 CURVE SMOOTH",
"99 454 OFFCURVE",
"148 458 OFFCURVE",
"265 460 CURVE SMOOTH",
"381 462 OFFCURVE",
"479 400 OFFCURVE",
"442 268 CURVE SMOOTH",
"402 127 OFFCURVE",
"242 51 OFFCURVE",
"107 104 CURVE SMOOTH",
"61 122 OFFCURVE",
"-3 149 OFFCURVE",
"-16 109 CURVE SMOOTH",
"-28 73 OFFCURVE",
"9 17 OFFCURVE",
"87 -8 CURVE SMOOTH"
);
}
);
width = 596;
}
);
leftKerningGroup = "kaf-hb";
rightKerningGroup = "kaf-hb";
unicode = 05DB;
},
{
glyphname = "lamed-hb";
lastChange = "2024-12-05 05:28:07 +0000";
layers = (
{
anchors = (
{
name = bottom;
position = "{18, 0}";
},
{
name = bottomleft;
position = "{-59, 0}";
},
{
name = center;
position = "{34, 331}";
},
{
name = top;
position = "{212, 550}";
},
{
name = topleft;
position = "{37, 550}";
}
);
layerId = "15880153-BF49-4651-A558-57743A88E547";
paths = (
{
closed = 1;
nodes = (
"75 -17 OFFCURVE",
"157 -3 OFFCURVE",
"200 208 CURVE SMOOTH",
"231 359 OFFCURVE",
"315 811 OFFCURVE",
"526 805 CURVE SMOOTH",
"591 803 OFFCURVE",
"650 720 OFFCURVE",
"696 760 CURVE SMOOTH",
"712 774 OFFCURVE",
"707 816 OFFCURVE",
"662 853 CURVE SMOOTH",
"623 885 OFFCURVE",
"559 904 OFFCURVE",
"509 902 CURVE SMOOTH",
"373 897 OFFCURVE",
"257 804 OFFCURVE",
"189 595 CURVE SMOOTH",
"121 386 OFFCURVE",
"89 241 OFFCURVE",
"76 122 CURVE",
"138 238 LINE",
"138 238 OFFCURVE",
"-26 247 OFFCURVE",
"-43 98 CURVE SMOOTH",
"-50 37 OFFCURVE",
"-27 -8 OFFCURVE",
"27 -13 CURVE SMOOTH"
);
}
);
width = 265;
}
);
leftKerningGroup = "lamed-hb";
rightKerningGroup = "lamed-hb";
unicode = 05DC;
},
{
glyphname = "lamed-hb.ss01";
lastChange = "2024-12-05 05:25:02 +0000";
layers = (
{
anchors = (
{
name = bottom;
position = "{37, -13}";
},
{
name = bottomleft;
position = "{-59, 0}";
},
{
name = center;
position = "{34, 331}";
},
{
name = top;
position = "{212, 550}";
},
{
name = topleft;
position = "{37, 550}";
}
);
layerId = "15880153-BF49-4651-A558-57743A88E547";
paths = (
{
closed = 1;
nodes = (
"75 -17 OFFCURVE",
"157 -3 OFFCURVE",
"200 208 CURVE SMOOTH",
"231 359 OFFCURVE",
"354 958 OFFCURVE",
"474 958 CURVE SMOOTH",
"510 958 OFFCURVE",
"529 888 OFFCURVE",
"571 888 CURVE SMOOTH",
"618 888 OFFCURVE",
"627 922 OFFCURVE",
"621 944 CURVE SMOOTH",
"609 988 OFFCURVE",
"540 1058 OFFCURVE",
"470 1058 CURVE SMOOTH",
"334 1058 OFFCURVE",
"257 864 OFFCURVE",
"189 625 CURVE SMOOTH",
"129 413 OFFCURVE",
"89 241 OFFCURVE",
"76 122 CURVE",
"138 238 LINE",
"138 238 OFFCURVE",
"-26 247 OFFCURVE",
"-43 98 CURVE SMOOTH",
"-50 37 OFFCURVE",
"-27 -8 OFFCURVE",
"27 -13 CURVE SMOOTH"
);
}
);
width = 265;
}
);
leftKerningGroup = "lamed-hb";
leftMetricsKey = "lamed-hb";
rightKerningGroup = "lamed-hb";
},
{
glyphname = "finalmem-hb";
lastChange = "2024-12-05 05:22:25 +0000";
layers = (
{
anchors = (
{
name = bottom;
position = "{205, 0}";
},
{
name = bottomleft;
position = "{-59, 0}";
},
{
name = center;
position = "{284, 275}";
},
{
name = top;
position = "{363, 550}";
},
{
name = topleft;
position = "{99, 550}";
}
);
layerId = "15880153-BF49-4651-A558-57743A88E547";
paths = (
{
closed = 1;
nodes = (
"50 -14 OFFCURVE",
"142 211 OFFCURVE",
"165 284 CURVE",
"113 311 LINE",
"103 302 LINE",
"102 300 LINE",
"102 299 OFFCURVE",
"190 80 OFFCURVE",
"344 80 CURVE SMOOTH",
"456 80 OFFCURVE",
"540 175 OFFCURVE",
"540 299 CURVE SMOOTH",
"540 435 OFFCURVE",
"443 521 OFFCURVE",
"371 530 CURVE SMOOTH",
"272 542 OFFCURVE",
"176 480 OFFCURVE",
"149 453 CURVE SMOOTH",
"123 427 OFFCURVE",
"114 387 OFFCURVE",
"131 360 CURVE SMOOTH",
"143 341 OFFCURVE",
"182 336 OFFCURVE",
"199 352 CURVE",
"206 360 OFFCURVE",
"277 430 OFFCURVE",
"348 425 CURVE SMOOTH",
"379 423 OFFCURVE",
"434 382 OFFCURVE",
"433 315 CURVE SMOOTH",
"432 243 OFFCURVE",
"393 186 OFFCURVE",
"348 191 CURVE SMOOTH",
"269 200 OFFCURVE",
"214 296 OFFCURVE",
"186 345 CURVE SMOOTH",
"161 389 OFFCURVE",
"142 404 OFFCURVE",
"114 404 CURVE SMOOTH",
"87 404 OFFCURVE",
"72 390 OFFCURVE",
"62 355 CURVE SMOOTH",
"21 213 OFFCURVE",
"-54 27 OFFCURVE",
"-54 -10 CURVE SMOOTH",
"-54 -52 OFFCURVE",
"-8 -69 OFFCURVE",
"24 -39 CURVE SMOOTH"
);
}
);
width = 568;
}
);
leftKerningGroup = "finalmem-hb";
rightKerningGroup = "finalmem-hb";
unicode = 05DD;
},
{
glyphname = "mem-hb";
lastChange = "2024-12-05 05:28:11 +0000";
layers = (
{
anchors = (
{
name = bottom;
position = "{112, 0}";
},
{
name = bottomleft;
position = "{-62, 0}";
},
{
name = center;
position = "{271, 448}";
},
{
name = top;
position = "{301, 550}";
},
{
name = topleft;
position = "{35, 457}";
}
);
layerId = "15880153-BF49-4651-A558-57743A88E547";
paths = (
{
closed = 1;
nodes = (
"244 -17 OFFCURVE",
"280 7 OFFCURVE",
"300 64 CURVE SMOOTH",
"355 220 OFFCURVE",
"440 374 OFFCURVE",
"492 500 CURVE SMOOTH",
"516 558 OFFCURVE",
"520 601 OFFCURVE",
"479 622 CURVE SMOOTH",
"444 640 OFFCURVE",
"415 617 OFFCURVE",
"391 573 CURVE SMOOTH",
"367 529 OFFCURVE",
"203 166 OFFCURVE",
"203 124 CURVE SMOOTH",
"203 81 OFFCURVE",
"229 107 OFFCURVE",
"212 242 CURVE SMOOTH",
"195 376 OFFCURVE",
"225 442 OFFCURVE",
"164 458 CURVE SMOOTH",
"130 467 OFFCURVE",
"114 438 OFFCURVE",
"83 363 CURVE SMOOTH",
"57 299 OFFCURVE",
"23 210 OFFCURVE",
"-15 136 CURVE SMOOTH",
"-53 62 OFFCURVE",
"-69 21 OFFCURVE",
"-30 1 CURVE SMOOTH",
"-1 -14 OFFCURVE",
"24 6 OFFCURVE",
"47 36 CURVE SMOOTH",
"90 93 OFFCURVE",
"129 190 OFFCURVE",
"136 217 CURVE SMOOTH",
"147 258 OFFCURVE",
"110 248 OFFCURVE",
"133 135 CURVE SMOOTH",
"150 53 OFFCURVE",
"179 9 OFFCURVE",
"212 -4 CURVE SMOOTH"
);
}
);
width = 453;
}
);
leftKerningGroup = "mem-hb";
rightKerningGroup = "mem-hb";
unicode = 05DE;
},
{
glyphname = "finalnun-hb";
lastChange = "2024-12-05 05:28:14 +0000";
layers = (
{
anchors = (
{
name = bottom;
position = "{31, 0}";
},
{
name = bottomleft;
position = "{-59, 0}";
},
{
name = center;
position = "{110, 275}";
},
{
name = top;
position = "{189, 550}";
},
{
name = topleft;
position = "{99, 550}";
}
);
layerId = "15880153-BF49-4651-A558-57743A88E547";
paths = (
{
closed = 1;
nodes = (
"-122 -366 OFFCURVE",
"-103 -341 OFFCURVE",
"-69 -287 CURVE SMOOTH",
"-35 -232 OFFCURVE",
"134 151 OFFCURVE",
"243 480 CURVE SMOOTH",
"267 551 OFFCURVE",
"275 619 OFFCURVE",
"231 632 CURVE SMOOTH",
"166 652 OFFCURVE",
"125 524 OFFCURVE",
"114 482 CURVE SMOOTH",
"57 269 OFFCURVE",
"-105 -152 OFFCURVE",
"-141 -206 CURVE SMOOTH",
"-181 -266 OFFCURVE",
"-183 -342 OFFCURVE",
"-153 -354 CURVE SMOOTH"
);
}
);
width = 220;
}
);
leftKerningGroup = "finalnun-hb";
rightKerningGroup = "finalnun-hb";
unicode = 05DF;
},
{
glyphname = "nun-hb";
lastChange = "2024-12-05 05:28:16 +0000";
layers = (
{
anchors = (
{
name = bottom;
position = "{57, -149}";
},
{
name = bottomleft;
position = "{-59, 0}";
},
{
name = center;
position = "{-13, 275}";
},
{
name = top;
position = "{197, 550}";
},
{
name = topleft;
position = "{30, 550}";
}
);
layerId = "15880153-BF49-4651-A558-57743A88E547";
paths = (
{
closed = 1;
nodes = (
"36 -348 OFFCURVE",
"170 207 OFFCURVE",
"204 370 CURVE SMOOTH",
"220 448 OFFCURVE",
"261 538 OFFCURVE",
"202 558 CURVE SMOOTH",
"142 579 OFFCURVE",
"108 522 OFFCURVE",
"97 455 CURVE SMOOTH",
"-13 -197 OFFCURVE",
"-252 -213 OFFCURVE",
"-380 -204 CURVE SMOOTH",
"-418 -201 OFFCURVE",
"-475 -197 OFFCURVE",
"-479 -232 CURVE SMOOTH",
"-484 -278 OFFCURVE",
"-437 -312 OFFCURVE",
"-345 -319 CURVE SMOOTH"
);
}
);
width = 236;
}
);
leftKerningGroup = "nun-hb";
rightKerningGroup = "nun-hb";
unicode = 05E0;
},
{
glyphname = "nun-hb.ss01";
lastChange = "2024-12-05 05:28:17 +0000";
layers = (
{
anchors = (
{
name = bottom;
position = "{-194, -149}";
},
{
name = bottomleft;
position = "{-69, 0}";
},
{
name = center;
position = "{19, 358}";
},
{
name = top;
position = "{197, 550}";
},
{
name = topleft;
position = "{30, 550}";
}
);
layerId = "15880153-BF49-4651-A558-57743A88E547";
paths = (
{
closed = 1;
nodes = (
"6 -201 OFFCURVE",
"106 -10 OFFCURVE",
"160 182 CURVE SMOOTH",
"179 250 OFFCURVE",
"282 580 OFFCURVE",
"200 597 CURVE SMOOTH",
"119 614 OFFCURVE",
"105 484 OFFCURVE",
"80 363 CURVE SMOOTH",
"-18 -105 OFFCURVE",
"-147 -66 OFFCURVE",
"-247 -47 CURVE SMOOTH",
"-285 -40 OFFCURVE",
"-341 -30 OFFCURVE",
"-349 -64 CURVE SMOOTH",
"-359 -109 OFFCURVE",
"-316 -149 OFFCURVE",
"-215 -165 CURVE SMOOTH"
);
}
);
width = 236;
}
);
leftKerningGroup = "nun-hb.ss01";
rightKerningGroup = "nun-hb.ss01";
},
{
glyphname = "nun-hb.ss02";
lastChange = "2024-12-05 05:28:19 +0000";
layers = (
{
anchors = (
{
name = bottom;
position = "{58, -5}";
},
{
name = bottomleft;
position = "{41, 0}";
},
{
name = center;
position = "{87, 364}";
},
{
name = top;
position = "{261, 550}";
},
{
name = topleft;
position = "{96, 540}";
}
);
layerId = "15880153-BF49-4651-A558-57743A88E547";
paths = (
{
closed = 1;
nodes = (
"-32 135 OFFCURVE",
"-33 126 OFFCURVE",
"-33 117 CURVE SMOOTH",
"-33 29 OFFCURVE",
"9 -15 OFFCURVE",
"68 -15 CURVE SMOOTH",
"121 -15 OFFCURVE",
"179 19 OFFCURVE",
"213 91 CURVE SMOOTH",
"250 170 OFFCURVE",
"288 292 OFFCURVE",
"303 372 CURVE SMOOTH",
"318 450 OFFCURVE",
"344 559 OFFCURVE",
"276 573 CURVE SMOOTH",
"223 584 OFFCURVE",
"204 525 OFFCURVE",
"195 457 CURVE SMOOTH",
"182 364 OFFCURVE",
"146 203 OFFCURVE",
"126 160 CURVE SMOOTH",
"106 118 OFFCURVE",
"89 96 OFFCURVE",
"78 96 CURVE SMOOTH",
"70 96 OFFCURVE",
"66 106 OFFCURVE",
"66 126 CURVE SMOOTH",
"66 132 OFFCURVE",
"66 139 OFFCURVE",
"67 147 CURVE SMOOTH",
"71 185 OFFCURVE",
"76 262 OFFCURVE",
"41 267 CURVE SMOOTH",
"-4 273 OFFCURVE",
"-22 226 OFFCURVE",
"-31 145 CURVE SMOOTH"
);
}
);
width = 327;
}
);
leftKerningGroup = "nun-hb.ss02";
rightKerningGroup = "nun-hb.ss02";
},
{
glyphname = "samekh-hb";
lastChange = "2024-12-05 05:28:23 +0000";
layers = (
{
anchors = (
{
name = bottom;
position = "{204, 0}";
},
{
name = bottomleft;
position = "{-59, 0}";
},
{
name = center;
position = "{283, 275}";
},
{
name = top;
position = "{362, 550}";
},
{
name = topleft;
position = "{99, 496}";
}
);
layerId = "15880153-BF49-4651-A558-57743A88E547";
paths = (
{
closed = 1;
nodes = (
"342 -38 OFFCURVE",
"511 100 OFFCURVE",
"538 348 CURVE SMOOTH",
"553 487 OFFCURVE",
"462 553 OFFCURVE",
"381 562 CURVE SMOOTH",
"329 568 OFFCURVE",
"254 562 OFFCURVE",
"208 539 CURVE SMOOTH",
"176 523 OFFCURVE",
"159 503 OFFCURVE",
"167 467 CURVE SMOOTH",
"173 440 OFFCURVE",
"202 425 OFFCURVE",
"242 436 CURVE SMOOTH",
"280 446 OFFCURVE",
"335 466 OFFCURVE",
"364 463 CURVE SMOOTH",
"396 460 OFFCURVE",
"436 426 OFFCURVE",
"429 362 CURVE SMOOTH",
"420 281 OFFCURVE",
"353 69 OFFCURVE",
"213 85 CURVE SMOOTH",
"161 91 OFFCURVE",
"128 160 OFFCURVE",
"137 253 CURVE SMOOTH",
"146 349 OFFCURVE",
"253 386 OFFCURVE",
"257 421 CURVE SMOOTH",
"260 450 OFFCURVE",
"249 460 OFFCURVE",
"228 462 CURVE SMOOTH",
"207 464 OFFCURVE",
"45 435 OFFCURVE",
"24 231 CURVE SMOOTH",
"5 49 OFFCURVE",
"124 -14 OFFCURVE",
"216 -24 CURVE SMOOTH"
);
}
);
width = 566;
}
);
leftKerningGroup = "samekh-hb";
rightKerningGroup = "samekh-hb";
unicode = 05E1;
},
{
glyphname = "ayin-hb";
lastChange = "2024-12-05 05:23:58 +0000";
layers = (
{
anchors = (
{
name = bottom;
position = "{146, -67}";
},
{
name = bottomleft;
position = "{-59, 0}";
},
{
name = center;
position = "{259, 275}";
},
{
name = top;
position = "{427, 550}";
},
{
name = topleft;
position = "{18, 508}";
}
);
layerId = "15880153-BF49-4651-A558-57743A88E547";
paths = (
{
closed = 1;
nodes = (
"538 16 OFFCURVE",
"331 591 OFFCURVE",
"298 682 CURVE SMOOTH",
"264 774 OFFCURVE",
"218 756 OFFCURVE",
"191 747 CURVE SMOOTH",
"117 720 OFFCURVE",
"191 601 OFFCURVE",
"230 497 CURVE SMOOTH",
"361 145 OFFCURVE",
"240 21 OFFCURVE",
"200 6 CURVE SMOOTH",
"160 -8 OFFCURVE",
"129 10 OFFCURVE",
"114 58 CURVE SMOOTH",
"52 254 OFFCURVE",
"264 423 OFFCURVE",
"494 451 CURVE SMOOTH",
"544 457 OFFCURVE",
"597 466 OFFCURVE",
"579 512 CURVE SMOOTH",
"568 540 OFFCURVE",
"537 555 OFFCURVE",
"486 553 CURVE SMOOTH",
"204 542 OFFCURVE",
"-88 287 OFFCURVE",
"12 19 CURVE SMOOTH",
"54 -94 OFFCURVE",
"168 -118 OFFCURVE",
"249 -89 CURVE SMOOTH"
);
}
);
width = 518;
}
);
leftKerningGroup = "ayin-hb";
rightKerningGroup = "ayin-hb";
unicode = 05E2;
},
{
glyphname = "finalpe-hb";
lastChange = "2024-12-12 06:30:39 +0000";
layers = (
{
anchors = (
{
name = bottom;
position = "{206, 0}";
},
{
name = bottomleft;
position = "{71, 0}";
},
{
name = center;
position = "{190, 316}";
},
{
name = top;
position = "{364, 550}";
},
{
name = topleft;
position = "{164, 550}";
}
);
layerId = "15880153-BF49-4651-A558-57743A88E547";
paths = (
{
closed = 1;
nodes = (
"250 -17 OFFCURVE",
"341 -3 OFFCURVE",
"375 208 CURVE SMOOTH",
"416 459 OFFCURVE",
"506 887 OFFCURVE",
"694 887 CURVE SMOOTH",
"805 887 OFFCURVE",
"743 788 OFFCURVE",
"543 751 CURVE SMOOTH",
"347 715 OFFCURVE",
"119 625 OFFCURVE",
"63 472 CURVE SMOOTH",
"48 431 OFFCURVE",
"65 385 OFFCURVE",
"95 377 CURVE SMOOTH",
"138 366 OFFCURVE",
"163 420 OFFCURVE",
"187 453 CURVE SMOOTH",
"243 530 OFFCURVE",
"342 602 OFFCURVE",
"555 648 CURVE SMOOTH",
"746 689 OFFCURVE",
"861 740 OFFCURVE",
"861 874 CURVE SMOOTH",
"861 953 OFFCURVE",
"816 1002 OFFCURVE",
"709 1002 CURVE SMOOTH",
"567 1002 OFFCURVE",
"445 912 OFFCURVE",
"374 695 CURVE SMOOTH",
"306 486 OFFCURVE",
"264 241 OFFCURVE",
"251 122 CURVE",
"313 238 LINE",
"313 238 OFFCURVE",
"149 247 OFFCURVE",
"132 98 CURVE SMOOTH",
"125 37 OFFCURVE",
"148 -8 OFFCURVE",
"202 -13 CURVE SMOOTH"
);
}
);
width = 439;
}
);
leftKerningGroup = "finalpe-hb";
rightKerningGroup = "finalpe-hb";
unicode = 05E3;
},
{
glyphname = "finalpe-hb.ss01";
lastChange = "2024-12-05 05:28:31 +0000";
layers = (
{
anchors = (
{
name = bottom;
position = "{228, 0}";
},
{
name = bottomleft;
position = "{73, 0}";
},
{
name = center;
position = "{192, 316}";
},
{
name = top;
position = "{366, 550}";
},
{
name = topleft;
position = "{166, 550}";
}
);
layerId = "15880153-BF49-4651-A558-57743A88E547";
paths = (
{
closed = 1;
nodes = (
"262 -17 OFFCURVE",
"331 -3 OFFCURVE",
"387 208 CURVE SMOOTH",
"471 525 OFFCURVE",
"557 821 OFFCURVE",
"623 974 CURVE SMOOTH",
"651 1039 OFFCURVE",
"689 1068 OFFCURVE",
"739 1068 CURVE SMOOTH",
"850 1068 OFFCURVE",
"808 969 OFFCURVE",
"638 932 CURVE SMOOTH",
"443 889 OFFCURVE",
"194 836 OFFCURVE",
"100 600 CURVE SMOOTH",
"85 562 OFFCURVE",
"100 516 OFFCURVE",
"130 508 CURVE SMOOTH",
"173 497 OFFCURVE",
"201 548 OFFCURVE",
"222 583 CURVE SMOOTH",
"318 741 OFFCURVE",
"420 775 OFFCURVE",
"630 829 CURVE SMOOTH",
"789 870 OFFCURVE",
"906 919 OFFCURVE",
"906 1049 CURVE SMOOTH",
"906 1131 OFFCURVE",
"846 1181 OFFCURVE",
"752 1181 CURVE SMOOTH",
"621 1181 OFFCURVE",
"519 1092 OFFCURVE",
"449 876 CURVE SMOOTH",
"381 667 OFFCURVE",
"276 241 OFFCURVE",
"263 122 CURVE",
"325 238 LINE",
"325 238 OFFCURVE",
"161 247 OFFCURVE",
"144 98 CURVE SMOOTH",
"137 37 OFFCURVE",
"160 -8 OFFCURVE",
"214 -13 CURVE SMOOTH"
);
}
);
width = 433;
}
);
leftKerningGroup = "finalpe-hb";
leftMetricsKey = "finalpe-hb";
rightKerningGroup = "finalpe-hb.ss01";
rightMetricsKey = "finalpe-hb";
},
{
glyphname = "pe-hb";
lastChange = "2024-12-05 05:28:34 +0000";
layers = (
{
anchors = (
{
name = bottom;
position = "{200, -26}";
},
{
name = bottomleft;
position = "{-59, 0}";
},
{
name = center;
position = "{380, 445}";
},
{
name = top;
position = "{376, 650}";
},
{
name = topleft;
position = "{12, 512}";
}
);
layerId = "15880153-BF49-4651-A558-57743A88E547";
paths = (
{
closed = 1;
nodes = (
"375 -67 OFFCURVE",
"587 120 OFFCURVE",
"606 348 CURVE SMOOTH",
"618 496 OFFCURVE",
"539 652 OFFCURVE",
"370 650 CURVE SMOOTH",
"272 649 OFFCURVE",
"188 629 OFFCURVE",
"124 583 CURVE SMOOTH",
"67 542 OFFCURVE",
"51 496 OFFCURVE",
"74 472 CURVE SMOOTH",
"94 451 OFFCURVE",
"130 457 OFFCURVE",
"165 481 CURVE SMOOTH",
"231 525 OFFCURVE",
"319 552 OFFCURVE",
"387 539 CURVE SMOOTH",
"446 528 OFFCURVE",
"492 481 OFFCURVE",
"492 384 CURVE SMOOTH",
"492 159 OFFCURVE",
"277 46 OFFCURVE",
"183 46 CURVE SMOOTH",
"126 46 OFFCURVE",
"94 73 OFFCURVE",
"94 116 CURVE SMOOTH",
"94 228 OFFCURVE",
"207 295 OFFCURVE",
"231 271 CURVE SMOOTH",
"259 243 OFFCURVE",
"151 152 OFFCURVE",
"183 125 CURVE SMOOTH",
"235 81 OFFCURVE",
"339 187 OFFCURVE",
"349 233 CURVE SMOOTH",
"371 332 OFFCURVE",
"280 394 OFFCURVE",
"189 378 CURVE SMOOTH",
"99 362 OFFCURVE",
"-13 250 OFFCURVE",
"-13 126 CURVE SMOOTH",
"-13 -21 OFFCURVE",
"83 -67 OFFCURVE",
"183 -67 CURVE SMOOTH"
);
}
);
width = 624;
}
);
leftKerningGroup = "pe-hb";
rightKerningGroup = "pe-hb";
unicode = 05E4;
},
{
glyphname = "finaltsadi-hb";
lastChange = "2024-12-12 06:30:33 +0000";
layers = (
{
anchors = (
{
name = bottom;
position = "{54, 0}";
},
{
name = bottomleft;
position = "{-59, 0}";
},
{
name = center;
position = "{133, 275}";
},
{
name = top;
position = "{307, 629}";
},
{
name = topleft;
position = "{99, 550}";
}
);
layerId = "15880153-BF49-4651-A558-57743A88E547";
paths = (
{
closed = 1;
nodes = (
"75 -17 OFFCURVE",
"159 -3 OFFCURVE",
"200 208 CURVE SMOOTH",
"228 350 OFFCURVE",
"268 621 OFFCURVE",
"355 783 CURVE SMOOTH",
"397 863 OFFCURVE",
"457 924 OFFCURVE",
"529 924 CURVE SMOOTH",
"559 924 OFFCURVE",
"578 904 OFFCURVE",
"578 875 CURVE SMOOTH",
"578 841 OFFCURVE",
"514 798 OFFCURVE",
"388 761 CURVE SMOOTH",
"192 703 OFFCURVE",
"104 771 OFFCURVE",
"104 950 CURVE SMOOTH",
"104 993 OFFCURVE",
"95 1020 OFFCURVE",
"64 1020 CURVE SMOOTH",
"20 1020 OFFCURVE",
"7 962 OFFCURVE",
"2 920 CURVE SMOOTH",
"-10 819 OFFCURVE",
"18 572 OFFCURVE",
"370 648 CURVE SMOOTH",
"550 687 OFFCURVE",
"686 783 OFFCURVE",
"685 891 CURVE SMOOTH",
"684 983 OFFCURVE",
"632 1032 OFFCURVE",
"533 1032 CURVE SMOOTH",
"392 1032 OFFCURVE",
"270 942 OFFCURVE",
"199 725 CURVE SMOOTH",
"131 516 OFFCURVE",
"89 241 OFFCURVE",
"76 122 CURVE",
"138 238 LINE",
"138 238 OFFCURVE",
"-26 247 OFFCURVE",
"-43 98 CURVE SMOOTH",
"-50 37 OFFCURVE",
"-27 -8 OFFCURVE",
"27 -13 CURVE SMOOTH"
);
}
);
width = 265;
}
);
leftKerningGroup = "finaltsadi-hb";
rightKerningGroup = "finaltsadi-hb";
unicode = 05E5;
},
{
glyphname = "finaltsadi-hb.ss01";
lastChange = "2025-05-01 05:36:53 +0000";
layers = (
{
anchors = (
{
name = bottom;
position = "{47, 0}";
},
{
name = bottomleft;
position = "{-56, 0}";
},
{
name = center;
position = "{136, 275}";
},
{
name = top;
position = "{310, 629}";
},
{
name = topleft;
position = "{102, 550}";
}
);
layerId = "15880153-BF49-4651-A558-57743A88E547";
paths = (
{
closed = 1;
nodes = (
"78 -17 OFFCURVE",
"162 -3 OFFCURVE",
"203 208 CURVE SMOOTH",
"234 369 OFFCURVE",
"311 794 OFFCURVE",
"438 990 CURVE SMOOTH",
"478 1051 OFFCURVE",
"538 1102 OFFCURVE",
"582 1102 CURVE SMOOTH",
"693 1102 OFFCURVE",
"647 1002 OFFCURVE",
"451 946 CURVE SMOOTH",
"255 890 OFFCURVE",
"157 966 OFFCURVE",
"157 1135 CURVE SMOOTH",
"157 1178 OFFCURVE",
"148 1205 OFFCURVE",
"117 1205 CURVE SMOOTH",
"73 1205 OFFCURVE",
"60 1147 OFFCURVE",
"55 1105 CURVE SMOOTH",
"43 1004 OFFCURVE",
"81 757 OFFCURVE",
"433 833 CURVE SMOOTH",
"613 872 OFFCURVE",
"737 959 OFFCURVE",
"748 1076 CURVE SMOOTH",
"757 1172 OFFCURVE",
"710 1222 OFFCURVE",
"582 1217 CURVE SMOOTH",
"446 1212 OFFCURVE",
"330 1119 OFFCURVE",
"262 910 CURVE SMOOTH",
"194 701 OFFCURVE",
"92 241 OFFCURVE",
"79 122 CURVE",
"141 238 LINE",
"141 238 OFFCURVE",
"-23 247 OFFCURVE",
"-40 98 CURVE SMOOTH",
"-47 37 OFFCURVE",
"-24 -8 OFFCURVE",
"30 -13 CURVE SMOOTH"
);
}
);
width = 273;
}
);
leftKerningGroup = "finaltsadi-hb";
leftMetricsKey = "finaltsadi-hb";
rightKerningGroup = "finaltsadi-hb";
rightMetricsKey = "finaltsadi-hb";
},
{
glyphname = "tsadi-hb";
lastChange = "2024-12-05 05:21:56 +0000";
layers = (
{
anchors = (
{
name = bottom;
position = "{164, -24}";
},
{
name = bottomleft;
position = "{-59, 0}";
},
{
name = center;
position = "{178, 181}";
},
{
name = top;
position = "{373, 623}";
},
{
name = topleft;
position = "{-15, 537}";
}
);
layerId = "15880153-BF49-4651-A558-57743A88E547";
paths = (
{
closed = 1;
nodes = (
"313 -24 OFFCURVE",
"455 36 OFFCURVE",
"487 198 CURVE SMOOTH",
"496 251 OFFCURVE",
"459 356 OFFCURVE",
"373 365 CURVE",
"369 347 LINE",
"401 347 OFFCURVE",
"512 414 OFFCURVE",
"534 525 CURVE SMOOTH",
"554 631 OFFCURVE",
"456 709 OFFCURVE",
"341 703 CURVE SMOOTH",
"226 697 OFFCURVE",
"73 669 OFFCURVE",
"73 591 CURVE SMOOTH",
"73 559 OFFCURVE",
"102 538 OFFCURVE",
"183 564 CURVE SMOOTH",
"265 589 OFFCURVE",
"431 597 OFFCURVE",
"436 535 CURVE SMOOTH",
"440 473 OFFCURVE",
"277 395 OFFCURVE",
"238 393 CURVE SMOOTH",
"198 391 OFFCURVE",
"164 378 OFFCURVE",
"158 343 CURVE SMOOTH",
"151 309 OFFCURVE",
"168 287 OFFCURVE",
"246 291 CURVE SMOOTH",
"322 295 OFFCURVE",
"385 262 OFFCURVE",
"374 203 CURVE SMOOTH",
"363 146 OFFCURVE",
"283 82 OFFCURVE",
"134 76 CURVE SMOOTH",
"55 72 OFFCURVE",
"14 117 OFFCURVE",
"-27 82 CURVE SMOOTH",
"-68 47 OFFCURVE",
"-40 -4 OFFCURVE",
"10 -25 CURVE SMOOTH",
"29 -33 OFFCURVE",
"71 -47 OFFCURVE",
"164 -38 CURVE SMOOTH"
);
}
);
width = 536;
}
);
leftKerningGroup = "tsadi-hb";
rightKerningGroup = "tsadi-hb";
unicode = 05E6;
},
{
glyphname = "qof-hb";
lastChange = "2024-12-05 05:27:17 +0000";
layers = (
{
anchors = (
{
name = bottom;
position = "{302, 50}";
},
{
name = bottomleft;
position = "{-59, 0}";
},
{
name = center;
position = "{315, 362}";
},
{
name = top;
position = "{347, 550}";
},
{
name = topleft;
position = "{33, 533}";
}
);
layerId = "15880153-BF49-4651-A558-57743A88E547";
paths = (
{
closed = 1;
nodes = (
"-52 -259 OFFCURVE",
"-17 -244 OFFCURVE",
"19 -189 CURVE SMOOTH",
"48 -145 OFFCURVE",
"181 198 OFFCURVE",
"203 255 CURVE SMOOTH",
"225 311 OFFCURVE",
"207 342 OFFCURVE",
"181 354 CURVE SMOOTH",
"146 370 OFFCURVE",
"116 349 OFFCURVE",
"99 305 CURVE SMOOTH",
"53 187 OFFCURVE",
"-28 -43 OFFCURVE",
"-80 -147 CURVE SMOOTH",
"-94 -175 OFFCURVE",
"-108 -222 OFFCURVE",
"-82 -239 CURVE SMOOTH"
);
},
{
closed = 1;
nodes = (
"302 50 OFFCURVE",
"356 70 OFFCURVE",
"429 145 CURVE SMOOTH",
"531 249 OFFCURVE",
"558 430 OFFCURVE",
"482 528 CURVE SMOOTH",
"452 567 OFFCURVE",
"387 615 OFFCURVE",
"254 597 CURVE SMOOTH",
"131 580 OFFCURVE",
"54 532 OFFCURVE",
"88 480 CURVE SMOOTH",
"121 429 OFFCURVE",
"152 465 OFFCURVE",
"217 476 CURVE SMOOTH",
"263 484 OFFCURVE",
"349 505 OFFCURVE",
"383 468 CURVE SMOOTH",
"447 400 OFFCURVE",
"413 262 OFFCURVE",
"304 177 CURVE SMOOTH",
"264 146 OFFCURVE",
"244 103 OFFCURVE",
"280 70 CURVE SMOOTH"
);
}
);
width = 536;
}
);
leftKerningGroup = "qof-hb";
rightKerningGroup = "qof-hb";
unicode = 05E7;
},
{
glyphname = "resh-hb";
lastChange = "2024-12-05 05:24:02 +0000";
layers = (
{
anchors = (
{
name = bottom;
position = "{277, -11}";
},
{
name = bottomleft;
position = "{-50, 0}";
},
{
name = center;
position = "{253, 295}";
},
{
name = top;
position = "{362, 550}";
},
{
name = topleft;
position = "{69, 513}";
}
);
layerId = "15880153-BF49-4651-A558-57743A88E547";
paths = (
{
closed = 1;
nodes = (
"271 -45 OFFCURVE",
"364 -28 OFFCURVE",
"451 111 CURVE SMOOTH",
"548 266 OFFCURVE",
"576 559 OFFCURVE",
"322 592 CURVE SMOOTH",
"207 607 OFFCURVE",
"69 547 OFFCURVE",
"89 481 CURVE SMOOTH",
"100 445 OFFCURVE",
"142 433 OFFCURVE",
"210 461 CURVE SMOOTH",
"292 495 OFFCURVE",
"402 482 OFFCURVE",
"402 354 CURVE SMOOTH",
"402 252 OFFCURVE",
"342 107 OFFCURVE",
"271 56 CURVE SMOOTH",
"231 27 OFFCURVE",
"225 -11 OFFCURVE",
"252 -31 CURVE SMOOTH"
);
}
);
width = 556;
}
);
leftKerningGroup = "resh-hb";
rightKerningGroup = "resh-hb";
unicode = 05E8;
},
{
glyphname = "shin-hb";
lastChange = "2025-03-19 02:42:30 +0000";
layers = (
{
anchors = (
{
name = bottom;
position = "{262, 0}";
},
{
name = center;
position = "{335, 462}";
},
{
name = sindot;
position = "{162, 498}";
},
{
name = top;
position = "{307, 550}";
},
{
name = topleft;
position = "{24, 487}";
},
{
name = topright;
position = "{616, 531}";
}
);
layerId = "15880153-BF49-4651-A558-57743A88E547";
paths = (
{
closed = 1;
nodes = (
"337 -40 OFFCURVE",
"455 37 OFFCURVE",
"511 174 CURVE SMOOTH",
"532 225 OFFCURVE",
"531 262 OFFCURVE",
"497 276 CURVE SMOOTH",
"459 292 OFFCURVE",
"430 260 OFFCURVE",
"409 215 CURVE SMOOTH",
"373 138 OFFCURVE",
"287 53 OFFCURVE",
"194 89 CURVE SMOOTH",
"125 116 OFFCURVE",
"113 304 OFFCURVE",
"210 423 CURVE SMOOTH",
"307 541 OFFCURVE",
"473 619 OFFCURVE",
"496 588 CURVE SMOOTH",
"515 562 OFFCURVE",
"457 454 OFFCURVE",
"283 340 CURVE SMOOTH",
"169 265 OFFCURVE",
"24 211 OFFCURVE",
"0 178 CURVE SMOOTH",
"-26 143 OFFCURVE",
"-15 104 OFFCURVE",
"29 111 CURVE SMOOTH",
"89 121 OFFCURVE",
"564 320 OFFCURVE",
"596 531 CURVE SMOOTH",
"611 629 OFFCURVE",
"576 697 OFFCURVE",
"496 697 CURVE SMOOTH",
"372 697 OFFCURVE",
"107 596 OFFCURVE",
"30 268 CURVE SMOOTH",
"-3 128 OFFCURVE",
"70 1 OFFCURVE",
"221 -22 CURVE SMOOTH"
);
}
);
width = 573;
}
);
leftKerningGroup = "shin-hb";
rightKerningGroup = "shin-hb";
unicode = 05E9;
},
{
glyphname = "tav-hb";
lastChange = "2024-12-05 05:28:47 +0000";
layers = (
{
anchors = (
{
name = bottom;
position = "{237, 37}";
},
{
name = bottomleft;
position = "{-69, 0}";
},
{
name = center;
position = "{213, 190}";
},
{
name = top;
position = "{292, 550}";
},
{
name = topleft;
position = "{29, 525}";
}
);
layerId = "15880153-BF49-4651-A558-57743A88E547";
paths = (
{
closed = 1;
nodes = (
"-262 -297 OFFCURVE",
"-133 -282 OFFCURVE",
"-17 -198 CURVE SMOOTH",
"113 -104 OFFCURVE",
"203 278 OFFCURVE",
"201 434 CURVE",
"187 432 LINE",
"248 442 OFFCURVE",
"279 301 OFFCURVE",
"274 169 CURVE SMOOTH",
"272 116 OFFCURVE",
"288 79 OFFCURVE",
"334 79 CURVE SMOOTH",
"389 79 OFFCURVE",
"406 260 OFFCURVE",
"357 389 CURVE SMOOTH",
"308 518 OFFCURVE",
"242 552 OFFCURVE",
"177 545 CURVE SMOOTH",
"115 538 OFFCURVE",
"99 468 OFFCURVE",
"89 375 CURVE SMOOTH",
"75 235 OFFCURVE",
"31 29 OFFCURVE",
"-55 -79 CURVE SMOOTH",
"-133 -177 OFFCURVE",
"-210 -183 OFFCURVE",
"-341 -194 CURVE SMOOTH",
"-376 -197 OFFCURVE",
"-398 -211 OFFCURVE",
"-401 -242 CURVE SMOOTH",
"-404 -271 OFFCURVE",
"-385 -286 OFFCURVE",
"-351 -289 CURVE SMOOTH"
);
}
);
width = 439;
}
);
leftKerningGroup = "tav-hb";
rightKerningGroup = "tav-hb";
unicode = 05EA;
},
{
glyphname = "alef_shin-hb";
lastChange = "2025-03-19 02:42:40 +0000";
layers = (
{
anchors = (
{
name = bottom_1;
position = "{653, 0}";
},
{
name = bottom_2;
position = "{274, 0}";
},
{
name = caret_1;
position = "{554.5, 0}";
},
{
name = center_1;
position = "{992, 175}";
},
{
name = center_2;
position = "{338, 456}";
},
{
name = sindot_2;
position = "{230, 572}";
},
{
name = top_1;
position = "{983, 467}";
},
{
name = top_2;
position = "{496, 687}";
},
{
name = topleft_1;
position = "{687, 590}";
},
{
name = topleft_2;
position = "{120, 509}";
},
{
name = topright_2_;
position = "{546, 531}";
}
);
layerId = "15880153-BF49-4651-A558-57743A88E547";
paths = (
{
closed = 1;
nodes = (
"959 -24 OFFCURVE",
"995 3 OFFCURVE",
"995 36 CURVE SMOOTH",
"995 66 OFFCURVE",
"868 65 OFFCURVE",
"868 160 CURVE SMOOTH",
"868 255 OFFCURVE",
"1013 315 OFFCURVE",
"1074 336 CURVE SMOOTH",
"1128 355 OFFCURVE",
"1143 398 OFFCURVE",
"1122 428 CURVE SMOOTH",
"1103 456 OFFCURVE",
"1066 453 OFFCURVE",
"1033 444 CURVE SMOOTH",
"1000 435 OFFCURVE",
"765 339 OFFCURVE",
"752 164 CURVE SMOOTH",
"743 41 OFFCURVE",
"864 -14 OFFCURVE",
"911 -19 CURVE SMOOTH"
);
},
{
closed = 1;
nodes = (
"794 630 OFFCURVE",
"761 613 OFFCURVE",
"734 575 CURVE SMOOTH",
"702 529 OFFCURVE",
"625 325 OFFCURVE",
"546 217 CURVE SMOOTH",
"448 82 OFFCURVE",
"287 53 OFFCURVE",
"194 89 CURVE SMOOTH",
"125 116 OFFCURVE",
"113 304 OFFCURVE",
"210 423 CURVE SMOOTH",
"307 541 OFFCURVE",
"473 619 OFFCURVE",
"496 588 CURVE SMOOTH",
"515 562 OFFCURVE",
"457 454 OFFCURVE",
"283 340 CURVE SMOOTH",
"169 265 OFFCURVE",
"24 211 OFFCURVE",
"0 178 CURVE SMOOTH",
"-26 143 OFFCURVE",
"-15 104 OFFCURVE",
"29 111 CURVE SMOOTH",
"89 121 OFFCURVE",
"564 320 OFFCURVE",
"596 531 CURVE SMOOTH",
"611 629 OFFCURVE",
"576 687 OFFCURVE",
"496 687 CURVE SMOOTH",
"372 687 OFFCURVE",
"115 586 OFFCURVE",
"38 258 CURVE SMOOTH",
"5 118 OFFCURVE",
"70 1 OFFCURVE",
"221 -22 CURVE SMOOTH",
"372 -46 OFFCURVE",
"545 26 OFFCURVE",
"627 150 CURVE SMOOTH",
"687 240 OFFCURVE",
"822 482 OFFCURVE",
"842 525 CURVE SMOOTH",
"864 572 OFFCURVE",
"849 612 OFFCURVE",
"828 619 CURVE SMOOTH"
);
}
);
width = 1109;
}
);
leftKerningGroup = "alef-hb";
leftMetricsKey = "shin-hb";
rightKerningGroup = "shin-hb";
rightMetricsKey = "alef-hb";
},
{
glyphname = "aleflamed-hb";
lastChange = "2025-05-01 05:36:53 +0000";
layers = (
{
components = (
{
name = "lamed-hb";
}
);
layerId = "15880153-BF49-4651-A558-57743A88E547";
paths = (
{
closed = 1;
nodes = (
"454 -24 OFFCURVE",
"490 3 OFFCURVE",
"490 36 CURVE SMOOTH",
"490 81 OFFCURVE",
"363 65 OFFCURVE",
"363 160 CURVE SMOOTH",
"363 265 OFFCURVE",
"499 330 OFFCURVE",
"560 351 CURVE SMOOTH",
"614 370 OFFCURVE",
"638 408 OFFCURVE",
"617 438 CURVE SMOOTH",
"598 466 OFFCURVE",
"561 463 OFFCURVE",
"528 454 CURVE SMOOTH",
"495 445 OFFCURVE",
"260 349 OFFCURVE",
"247 164 CURVE SMOOTH",
"238 41 OFFCURVE",
"359 -14 OFFCURVE",
"406 -19 CURVE SMOOTH"
);
}
);
width = 597;
}
);
leftKerningGroup = "alef-hb";
leftMetricsKey = "lamed-hb";
rightKerningGroup = "lamed-hb";
rightMetricsKey = "alef-hb";
unicode = FB4F;
},
{
glyphname = zero;
lastChange = "2024-12-12 06:27:32 +0000";
layers = (
{
layerId = "15880153-BF49-4651-A558-57743A88E547";
paths = (
{
closed = 1;
nodes = (
"402 -10 OFFCURVE",
"527 177 OFFCURVE",
"542 341 CURVE SMOOTH",
"557 503 OFFCURVE",
"497 609 OFFCURVE",
"346 609 CURVE SMOOTH",
"293 609 OFFCURVE",
"241 588 OFFCURVE",
"199 537 CURVE",
"186 547 OFFCURVE",
"164 543 OFFCURVE",
"137 513 CURVE SMOOTH",
"85 456 OFFCURVE",
"41 363 OFFCURVE",
"32 261 CURVE SMOOTH",
"18 111 OFFCURVE",
"71 -10 OFFCURVE",
"220 -10 CURVE SMOOTH"
);
},
{
closed = 1;
nodes = (
"170 109 OFFCURVE",
"138 171 OFFCURVE",
"142 227 CURVE SMOOTH",
"147 287 OFFCURVE",
"165 344 OFFCURVE",
"178 350 CURVE",
"197 345 OFFCURVE",
"213 353 OFFCURVE",
"222 375 CURVE SMOOTH",
"259 461 OFFCURVE",
"267 494 OFFCURVE",
"338 494 CURVE SMOOTH",
"422 494 OFFCURVE",
"433 414 OFFCURVE",
"428 352 CURVE SMOOTH",
"418 244 OFFCURVE",
"331 109 OFFCURVE",
"222 109 CURVE SMOOTH"
);
}
);
width = 556;
}
);
leftKerningGroup = zero;
rightKerningGroup = zero;
unicode = 0030;
},
{
glyphname = one;
lastChange = "2024-12-05 05:29:58 +0000";
layers = (
{
layerId = "15880153-BF49-4651-A558-57743A88E547";
paths = (
{
closed = 1;
nodes = (
"101 -5 OFFCURVE",
"104 47 OFFCURVE",
"114 80 CURVE SMOOTH",
"127 128 OFFCURVE",
"145 173 OFFCURVE",
"163 217 CURVE SMOOTH",
"197 303 OFFCURVE",
"237 386 OFFCURVE",
"285 462 CURVE SMOOTH",
"314 507 OFFCURVE",
"336 558 OFFCURVE",
"285 599 CURVE SMOOTH",
"241 634 OFFCURVE",
"200 599 OFFCURVE",
"168 543 CURVE SMOOTH",
"143 498 OFFCURVE",
"119 450 OFFCURVE",
"99 402 CURVE SMOOTH",
"74 342 OFFCURVE",
"51 280 OFFCURVE",
"30 218 CURVE SMOOTH",
"10 163 OFFCURVE",
"-1 105 OFFCURVE",
"-12 46 CURVE SMOOTH",
"-14 37 OFFCURVE",
"-14 28 OFFCURVE",
"-11 19 CURVE SMOOTH",
"-2 -7 OFFCURVE",
"37 -19 OFFCURVE",
"60 -14 CURVE SMOOTH"
);
}
);
width = 271;
}
);
leftKerningGroup = one;
rightKerningGroup = one;
unicode = 0031;
},
{
glyphname = two;
lastChange = "2024-12-12 06:29:50 +0000";
layers = (
{
layerId = "15880153-BF49-4651-A558-57743A88E547";
paths = (
{
closed = 1;
nodes = (
"134 -25 OFFCURVE",
"334 -32 OFFCURVE",
"351 46 CURVE SMOOTH",
"354 60 OFFCURVE",
"351 73 OFFCURVE",
"341 83 CURVE SMOOTH",
"333 91 OFFCURVE",
"323 93 OFFCURVE",
"313 94 CURVE SMOOTH",
"273 98 OFFCURVE",
"175 88 OFFCURVE",
"135 85 CURVE SMOOTH",
"119 84 OFFCURVE",
"92 87 OFFCURVE",
"90 109 CURVE SMOOTH",
"88 132 OFFCURVE",
"110 148 OFFCURVE",
"126 161 CURVE SMOOTH",
"173 199 OFFCURVE",
"295 266 OFFCURVE",
"345 313 CURVE SMOOTH",
"380 346 OFFCURVE",
"434 396 OFFCURVE",
"440 478 CURVE SMOOTH",
"444 536 OFFCURVE",
"420 597 OFFCURVE",
"333 626 CURVE SMOOTH",
"254 652 OFFCURVE",
"146 561 OFFCURVE",
"105 533 CURVE SMOOTH",
"83 518 OFFCURVE",
"78 480 OFFCURVE",
"89 456 CURVE SMOOTH",
"98 437 OFFCURVE",
"120 423 OFFCURVE",
"146 428 CURVE SMOOTH",
"170 433 OFFCURVE",
"234 482 OFFCURVE",
"266 502 CURVE SMOOTH",
"266 502 OFFCURVE",
"374 564 OFFCURVE",
"286 427 CURVE SMOOTH",
"219 322 OFFCURVE",
"16 265 OFFCURVE",
"-14 145 CURVE SMOOTH",
"-33 69 OFFCURVE",
"6 6 OFFCURVE",
"80 -12 CURVE SMOOTH"
);
}
);
width = 430;
}
);
leftKerningGroup = two;
rightKerningGroup = two;
unicode = 0032;
},
{
glyphname = three;
lastChange = "2024-12-12 06:29:45 +0000";
layers = (
{
layerId = "15880153-BF49-4651-A558-57743A88E547";
paths = (
{
closed = 1;
nodes = (
"109 -34 OFFCURVE",
"244 -32 OFFCURVE",
"326 39 CURVE SMOOTH",
"413 113 OFFCURVE",
"394 284 OFFCURVE",
"304 344 CURVE",
"385 378 OFFCURVE",
"450 420 OFFCURVE",
"449 493 CURVE SMOOTH",
"448 575 OFFCURVE",
"379 613 OFFCURVE",
"305 627 CURVE SMOOTH",
"236 639 OFFCURVE",
"125 611 OFFCURVE",
"137 551 CURVE SMOOTH",
"142 529 OFFCURVE",
"173 488 OFFCURVE",
"214 507 CURVE SMOOTH",
"334 562 OFFCURVE",
"394 489 OFFCURVE",
"278 435 CURVE SMOOTH",
"248 421 OFFCURVE",
"187 401 OFFCURVE",
"176 365 CURVE SMOOTH",
"164 328 OFFCURVE",
"196 297 OFFCURVE",
"227 287 CURVE SMOOTH",
"282 268 OFFCURVE",
"281 202 OFFCURVE",
"273 169 CURVE SMOOTH",
"243 40 OFFCURVE",
"103 72 OFFCURVE",
"60 149 CURVE SMOOTH",
"48 170 OFFCURVE",
"13 192 OFFCURVE",
"-19 160 CURVE SMOOTH",
"-65 116 OFFCURVE",
"-1 55 OFFCURVE",
"33 27 CURVE SMOOTH"
);
}
);
width = 439;
}
);
leftKerningGroup = three;
rightKerningGroup = three;
unicode = 0033;
},
{
glyphname = four;
lastChange = "2024-12-12 06:30:10 +0000";
layers = (
{
layerId = "15880153-BF49-4651-A558-57743A88E547";
paths = (
{
closed = 1;
nodes = (
"248 -12 OFFCURVE",
"293 -45 OFFCURVE",
"354 117 CURVE SMOOTH",
"485 468 LINE SMOOTH",
"499 505 OFFCURVE",
"516 576 OFFCURVE",
"442 594 CURVE SMOOTH",
"442 594 OFFCURVE",
"391 596 OFFCURVE",
"368 522 CURVE SMOOTH",
"342 442 OFFCURVE",
"307 329 OFFCURVE",
"289 283 CURVE",
"337 306 LINE",
"322 311 OFFCURVE",
"301 307 OFFCURVE",
"249 338 CURVE SMOOTH",
"202 366 OFFCURVE",
"161 390 OFFCURVE",
"194 500 CURVE SMOOTH",
"202 527 OFFCURVE",
"214 569 OFFCURVE",
"189 605 CURVE SMOOTH",
"180 618 OFFCURVE",
"140 643 OFFCURVE",
"112 597 CURVE SMOOTH",
"-1 411 OFFCURVE",
"74 268 OFFCURVE",
"297 183 CURVE",
"267 220 LINE",
"267 220 OFFCURVE",
"157 13 OFFCURVE",
"248 -12 CURVE SMOOTH"
);
}
);
width = 470;
}
);
leftKerningGroup = four;
rightKerningGroup = four;
unicode = 0034;
},
{
glyphname = five;
lastChange = "2024-12-12 06:27:56 +0000";
layers = (
{
layerId = "15880153-BF49-4651-A558-57743A88E547";
paths = (
{
closed = 1;
nodes = (
"393 25 OFFCURVE",
"436 126 OFFCURVE",
"417 214 CURVE SMOOTH",
"396 311 OFFCURVE",
"304 408 OFFCURVE",
"235 440 CURVE SMOOTH",
"200 457 OFFCURVE",
"212 477 OFFCURVE",
"239 485 CURVE SMOOTH",
"271 494 OFFCURVE",
"444 472 OFFCURVE",
"459 481 CURVE SMOOTH",
"472 489 OFFCURVE",
"517 564 OFFCURVE",
"436 585 CURVE SMOOTH",
"373 601 OFFCURVE",
"274 604 OFFCURVE",
"210 594 CURVE SMOOTH",
"138 583 OFFCURVE",
"80 544 OFFCURVE",
"82 465 CURVE SMOOTH",
"82 439 OFFCURVE",
"92 415 OFFCURVE",
"111 398 CURVE SMOOTH",
"167 349 OFFCURVE",
"231 312 OFFCURVE",
"276 258 CURVE SMOOTH",
"299 229 OFFCURVE",
"313 174 OFFCURVE",
"299 141 CURVE SMOOTH",
"270 70 OFFCURVE",
"150 80 OFFCURVE",
"77 128 CURVE SMOOTH",
"39 152 OFFCURVE",
"12 154 OFFCURVE",
"-8 127 CURVE SMOOTH",
"-23 106 OFFCURVE",
"-6 73 OFFCURVE",
"27 43 CURVE SMOOTH",
"90 -18 OFFCURVE",
"211 -48 OFFCURVE",
"302 -11 CURVE SMOOTH"
);
}
);
width = 466;
}
);
leftKerningGroup = five;
rightKerningGroup = five;
unicode = 0035;
},
{
glyphname = six;
lastChange = "2024-12-12 06:27:58 +0000";
layers = (
{
layerId = "15880153-BF49-4651-A558-57743A88E547";
paths = (
{
closed = 1;
nodes = (
"510 81 OFFCURVE",
"499 185 OFFCURVE",
"431 246 CURVE SMOOTH",
"369 301 OFFCURVE",
"288 300 OFFCURVE",
"225 272 CURVE SMOOTH",
"138 233 OFFCURVE",
"96 158 OFFCURVE",
"96 158 CURVE",
"139 100 LINE",
"239 202 OFFCURVE",
"296 199 OFFCURVE",
"353 174 CURVE SMOOTH",
"378 163 OFFCURVE",
"388 124 OFFCURVE",
"369 106 CURVE SMOOTH",
"328 67 OFFCURVE",
"276 71 OFFCURVE",
"230 90 CURVE SMOOTH",
"138 128 OFFCURVE",
"113 278 OFFCURVE",
"185 355 CURVE SMOOTH",
"253 427 OFFCURVE",
"374 462 OFFCURVE",
"469 454 CURVE SMOOTH",
"520 450 OFFCURVE",
"565 423 OFFCURVE",
"583 433 CURVE SMOOTH",
"610 448 OFFCURVE",
"610 495 OFFCURVE",
"565 526 CURVE SMOOTH",
"485 581 OFFCURVE",
"260 575 OFFCURVE",
"133 465 CURVE SMOOTH",
"25 371 OFFCURVE",
"-1 185 OFFCURVE",
"74 79 CURVE SMOOTH",
"164 -48 OFFCURVE",
"364 -42 OFFCURVE",
"435 18 CURVE SMOOTH"
);
}
);
width = 559;
}
);
leftKerningGroup = six;
rightKerningGroup = six;
unicode = 0036;
},
{
glyphname = seven;
lastChange = "2024-12-05 05:29:34 +0000";
layers = (
{
layerId = "15880153-BF49-4651-A558-57743A88E547";
paths = (
{
closed = 1;
nodes = (
"195 35 OFFCURVE",
"243 89 OFFCURVE",
"269 119 CURVE SMOOTH",
"310 167 OFFCURVE",
"455 323 OFFCURVE",
"435 474 CURVE SMOOTH",
"415 624 OFFCURVE",
"189 543 OFFCURVE",
"189 543 CURVE SMOOTH",
"139 524 OFFCURVE",
"77 481 OFFCURVE",
"89 444 CURVE SMOOTH",
"93 432 OFFCURVE",
"112 426 OFFCURVE",
"128 424 CURVE SMOOTH",
"159 420 OFFCURVE",
"195 431 OFFCURVE",
"227 444 CURVE SMOOTH",
"310 478 OFFCURVE",
"332 436 OFFCURVE",
"306 355 CURVE SMOOTH",
"278 267 OFFCURVE",
"188 176 OFFCURVE",
"102 110 CURVE SMOOTH",
"63 80 OFFCURVE",
"19 46 OFFCURVE",
"39 12 CURVE SMOOTH",
"55 -16 OFFCURVE",
"108 -8 OFFCURVE",
"142 9 CURVE SMOOTH"
);
},
{
closed = 1;
nodes = (
"252 257 OFFCURVE",
"241 259 OFFCURVE",
"359 253 CURVE SMOOTH",
"414 250 OFFCURVE",
"491 250 OFFCURVE",
"485 303 CURVE SMOOTH",
"476 383 OFFCURVE",
"247 380 OFFCURVE",
"100 339 CURVE SMOOTH",
"32 320 OFFCURVE",
"20 291 OFFCURVE",
"23 273 CURVE SMOOTH",
"30 233 OFFCURVE",
"51 224 OFFCURVE",
"106 233 CURVE SMOOTH"
);
}
);
width = 485;
}
);
leftKerningGroup = seven;
rightKerningGroup = seven;
unicode = 0037;
},
{
glyphname = eight;
lastChange = "2024-12-12 06:30:06 +0000";
layers = (
{
layerId = "15880153-BF49-4651-A558-57743A88E547";
paths = (
{
closed = 1;
nodes = (
"226 624 OFFCURVE",
"139 583 OFFCURVE",
"122 470 CURVE SMOOTH",
"116 431 OFFCURVE",
"128 376 OFFCURVE",
"153 350 CURVE",
"95 337 OFFCURVE",
"15 293 OFFCURVE",
"-10 198 CURVE SMOOTH",
"-46 63 OFFCURVE",
"18 -13 OFFCURVE",
"102 -18 CURVE SMOOTH",
"172 -22 OFFCURVE",
"305 -21 OFFCURVE",
"338 107 CURVE SMOOTH",
"360 191 OFFCURVE",
"328 260 OFFCURVE",
"300 304 CURVE",
"373 326 OFFCURVE",
"442 363 OFFCURVE",
"454 434 CURVE SMOOTH",
"470 531 OFFCURVE",
"424 604 OFFCURVE",
"337 613 CURVE SMOOTH"
);
},
{
closed = 1;
nodes = (
"235 514 OFFCURVE",
"276 531 OFFCURVE",
"312 524 CURVE SMOOTH",
"343 518 OFFCURVE",
"353 473 OFFCURVE",
"342 440 CURVE SMOOTH",
"330 405 OFFCURVE",
"308 390 OFFCURVE",
"248 376 CURVE",
"236 399 OFFCURVE",
"223 431 OFFCURVE",
"228 466 CURVE SMOOTH"
);
},
{
closed = 1;
nodes = (
"111 236 OFFCURVE",
"153 258 OFFCURVE",
"208 268 CURVE",
"217 245 OFFCURVE",
"257 195 OFFCURVE",
"243 140 CURVE SMOOTH",
"230 90 OFFCURVE",
"188 76 OFFCURVE",
"141 79 CURVE SMOOTH",
"104 81 OFFCURVE",
"67 118 OFFCURVE",
"89 177 CURVE SMOOTH"
);
}
);
width = 426;
}
);
leftKerningGroup = eight;
rightKerningGroup = eight;
unicode = 0038;
},
{
glyphname = "geresh-hb";
lastChange = "2025-05-01 05:39:16 +0000";
layers = (
{
layerId = "15880153-BF49-4651-A558-57743A88E547";
paths = (
{
closed = 1;
nodes = (
"156 437 OFFCURVE",
"244 578 OFFCURVE",
"276 685 CURVE SMOOTH",
"286 718 OFFCURVE",
"276 748 OFFCURVE",
"238 758 CURVE SMOOTH",
"214 764 OFFCURVE",
"181 738 OFFCURVE",
"174 702 CURVE SMOOTH",
"170 680 OFFCURVE",
"122 538 OFFCURVE",
"110 502 CURVE SMOOTH",
"98 465 OFFCURVE",
"110 452 OFFCURVE",
"125 447 CURVE SMOOTH"
);
}
);
width = 196;
}
);
leftKerningGroup = topHB;
leftMetricsKey = quotesingle;
rightKerningGroup = topHB;
rightMetricsKey = quotesingle;
unicode = 05F3;
},
{
glyphname = "maqaf-hb";
lastChange = "2024-12-12 06:28:17 +0000";
layers = (
{
layerId = "15880153-BF49-4651-A558-57743A88E547";
paths = (
{
closed = 1;
nodes = (
"366 440 OFFCURVE",
"386 458 OFFCURVE",
"386 485 CURVE SMOOTH",
"386 509 OFFCURVE",
"363 527 OFFCURVE",
"347 527 CURVE SMOOTH",
"313 527 OFFCURVE",
"201 537 OFFCURVE",
"130 531 CURVE SMOOTH",
"74 526 OFFCURVE",
"66 442 OFFCURVE",
"130 432 CURVE SMOOTH",
"209 420 OFFCURVE",
"307 436 OFFCURVE",
"337 438 CURVE SMOOTH"
);
}
);
width = 357;
}
);
leftKerningGroup = topHB;
rightKerningGroup = topHB;
unicode = 05BE;
},
{
glyphname = period;
lastChange = "2016-11-16 03:48:35 +0000";
layers = (
{
layerId = "15880153-BF49-4651-A558-57743A88E547";
paths = (
{
closed = 1;
nodes = (
"55 -7 OFFCURVE",
"105 26 OFFCURVE",
"105 67 CURVE SMOOTH",
"105 107 OFFCURVE",
"82 140 OFFCURVE",
"32 140 CURVE SMOOTH",
"-9 140 OFFCURVE",
"-42 107 OFFCURVE",
"-42 67 CURVE SMOOTH",
"-42 26 OFFCURVE",
"-30 -7 OFFCURVE",
"15 -7 CURVE SMOOTH"
);
}
);
width = 180;
}
);
leftKerningGroup = bottom;
rightKerningGroup = bottom;
unicode = 002E;
},
{
glyphname = comma;
lastChange = "2016-11-16 03:55:40 +0000";
layers = (
{
layerId = "15880153-BF49-4651-A558-57743A88E547";
paths = (
{
closed = 1;
nodes = (
"-28 -145 OFFCURVE",
"59 -14 OFFCURVE",
"88 93 CURVE SMOOTH",
"97 126 OFFCURVE",
"85 156 OFFCURVE",
"44 166 CURVE SMOOTH",
"19 172 OFFCURVE",
"-13 146 OFFCURVE",
"-20 110 CURVE SMOOTH",
"-24 88 OFFCURVE",
"-68 -44 OFFCURVE",
"-79 -80 CURVE SMOOTH",
"-90 -117 OFFCURVE",
"-77 -130 OFFCURVE",
"-61 -135 CURVE SMOOTH"
);
}
);
width = 170;
}
);
leftKerningGroup = bottom;
rightKerningGroup = bottom;
unicode = 002C;
},
{
glyphname = exclam;
lastChange = "2024-12-05 03:53:04 +0000";
layers = (
{
components = (
{
name = period;
transform = "{1, 0, 0, 1, -1, 0}";
}
);
layerId = "15880153-BF49-4651-A558-57743A88E547";
paths = (
{
closed = 1;
nodes = (
"81 205 OFFCURVE",
"115 211 OFFCURVE",
"130 247 CURVE SMOOTH",
"176 358 OFFCURVE",
"214 431 OFFCURVE",
"288 542 CURVE SMOOTH",
"316 584 OFFCURVE",
"304 622 OFFCURVE",
"277 638 CURVE SMOOTH",
"244 657 OFFCURVE",
"211 643 OFFCURVE",
"188 600 CURVE SMOOTH",
"141 512 OFFCURVE",
"58 349 OFFCURVE",
"42 289 CURVE SMOOTH",
"33 256 OFFCURVE",
"36 226 OFFCURVE",
"59 215 CURVE SMOOTH"
);
}
);
width = 230;
}
);
leftKerningGroup = bottom;
rightKerningGroup = bottom;
unicode = 0021;
},
{
glyphname = question;
lastChange = "2024-12-05 03:55:41 +0000";
layers = (
{
components = (
{
name = period;
transform = "{1, 0, 0, 1, 161, 0}";
}
);
layerId = "15880153-BF49-4651-A558-57743A88E547";
paths = (
{
closed = 1;
nodes = (
"222 190 OFFCURVE",
"265 198 OFFCURVE",
"271 235 CURVE SMOOTH",
"291 359 OFFCURVE",
"496 337 OFFCURVE",
"496 500 CURVE SMOOTH",
"496 572 OFFCURVE",
"406 659 OFFCURVE",
"283 662 CURVE SMOOTH",
"175 665 OFFCURVE",
"92 573 OFFCURVE",
"74 507 CURVE SMOOTH",
"61 459 OFFCURVE",
"84 441 OFFCURVE",
"104 430 CURVE SMOOTH",
"124 419 OFFCURVE",
"158 436 OFFCURVE",
"167 460 CURVE SMOOTH",
"182 501 OFFCURVE",
"210 559 OFFCURVE",
"279 560 CURVE SMOOTH",
"338 561 OFFCURVE",
"401 531 OFFCURVE",
"395 491 CURVE SMOOTH",
"386 430 OFFCURVE",
"185 389 OFFCURVE",
"166 264 CURVE SMOOTH",
"159 218 OFFCURVE",
"182 199 OFFCURVE",
"208 193 CURVE SMOOTH"
);
}
);
width = 460;
}
);
leftKerningGroup = question;
rightKerningGroup = question;
unicode = 003F;
},
{
glyphname = bullet;
lastChange = "2016-11-16 01:27:52 +0000";
layers = (
{
layerId = "15880153-BF49-4651-A558-57743A88E547";
paths = (
{
closed = 1;
nodes = (
"257 127 OFFCURVE",
"342 187 OFFCURVE",
"342 273 CURVE SMOOTH",
"342 357 OFFCURVE",
"294 426 OFFCURVE",
"189 426 CURVE SMOOTH",
"103 426 OFFCURVE",
"34 357 OFFCURVE",
"34 273 CURVE SMOOTH",
"34 187 OFFCURVE",
"79 127 OFFCURVE",
"174 127 CURVE SMOOTH"
);
}
);
width = 371;
}
);
leftKerningGroup = middle;
rightKerningGroup = middle;
unicode = 2022;
},
{
glyphname = asterisk;
lastChange = "2024-12-12 06:28:30 +0000";
layers = (
{
layerId = "15880153-BF49-4651-A558-57743A88E547";
paths = (
{
closed = 1;
nodes = (
"322 371 OFFCURVE",
"333 394 OFFCURVE",
"328 406 CURVE SMOOTH",
"318 431 OFFCURVE",
"240 558 OFFCURVE",
"193 640 CURVE SMOOTH",
"185 655 OFFCURVE",
"170 667 OFFCURVE",
"158 660 CURVE SMOOTH",
"137 649 OFFCURVE",
"135 624 OFFCURVE",
"143 605 CURVE SMOOTH",
"200 471 OFFCURVE",
"257 416 OFFCURVE",
"273 386 CURVE SMOOTH",
"281 369 OFFCURVE",
"300 360 OFFCURVE",
"311 366 CURVE SMOOTH"
);
},
{
closed = 1;
nodes = (
"204 472 OFFCURVE",
"299 470 OFFCURVE",
"341 481 CURVE SMOOTH",
"364 487 OFFCURVE",
"382 498 OFFCURVE",
"380 515 CURVE SMOOTH",
"378 533 OFFCURVE",
"363 549 OFFCURVE",
"336 548 CURVE SMOOTH",
"308 547 OFFCURVE",
"230 542 OFFCURVE",
"137 550 CURVE SMOOTH",
"102 553 OFFCURVE",
"82 532 OFFCURVE",
"82 511 CURVE SMOOTH",
"82 485 OFFCURVE",
"103 469 OFFCURVE",
"136 470 CURVE SMOOTH"
);
},
{
closed = 1;
nodes = (
"190 361 OFFCURVE",
"207 374 OFFCURVE",
"219 393 CURVE SMOOTH",
"242 430 OFFCURVE",
"297 531 OFFCURVE",
"317 596 CURVE SMOOTH",
"327 628 OFFCURVE",
"320 651 OFFCURVE",
"294 659 CURVE SMOOTH",
"274 665 OFFCURVE",
"248 654 OFFCURVE",
"240 620 CURVE SMOOTH",
"219 530 OFFCURVE",
"168 445 OFFCURVE",
"157 419 CURVE SMOOTH",
"147 395 OFFCURVE",
"158 375 OFFCURVE",
"174 368 CURVE SMOOTH"
);
}
);
width = 335;
}
);
leftKerningGroup = top;
rightKerningGroup = top;
unicode = 002A;
},
{
glyphname = numbersign;
lastChange = "2016-11-16 02:02:41 +0000";
layers = (
{
layerId = "15880153-BF49-4651-A558-57743A88E547";
paths = (
{
closed = 1;
nodes = (
"246 -12 OFFCURVE",
"292 0 OFFCURVE",
"304 37 CURVE SMOOTH",
"355 194 OFFCURVE",
"487 506 OFFCURVE",
"493 520 CURVE SMOOTH",
"506 550 OFFCURVE",
"484 569 OFFCURVE",
"466 569 CURVE SMOOTH",
"450 569 OFFCURVE",
"421 570 OFFCURVE",
"399 524 CURVE SMOOTH",
"388 501 OFFCURVE",
"242 112 OFFCURVE",
"216 34 CURVE SMOOTH",
"210 16 OFFCURVE",
"214 1 OFFCURVE",
"231 -6 CURVE SMOOTH"
);
},
{
closed = 1;
nodes = (
"85 -10 OFFCURVE",
"112 9 OFFCURVE",
"127 41 CURVE SMOOTH",
"134 56 OFFCURVE",
"272 426 OFFCURVE",
"293 496 CURVE SMOOTH",
"306 540 OFFCURVE",
"301 560 OFFCURVE",
"282 563 CURVE SMOOTH",
"260 566 OFFCURVE",
"225 543 OFFCURVE",
"215 517 CURVE SMOOTH",
"205 490 OFFCURVE",
"33 60 OFFCURVE",
"30 51 CURVE SMOOTH",
"17 11 OFFCURVE",
"32 -12 OFFCURVE",
"63 -11 CURVE SMOOTH"
);
},
{
closed = 1;
nodes = (
"201 164 OFFCURVE",
"435 165 OFFCURVE",
"451 165 CURVE SMOOTH",
"466 165 OFFCURVE",
"503 186 OFFCURVE",
"507 209 CURVE SMOOTH",
"510 226 OFFCURVE",
"494 250 OFFCURVE",
"471 254 CURVE SMOOTH",
"446 258 OFFCURVE",
"133 250 OFFCURVE",
"55 244 CURVE SMOOTH",
"28 242 OFFCURVE",
"1 222 OFFCURVE",
"1 195 CURVE SMOOTH",
"1 176 OFFCURVE",
"12 157 OFFCURVE",
"40 158 CURVE SMOOTH"
);
},
{
closed = 1;
nodes = (
"116 306 OFFCURVE",
"407 320 OFFCURVE",
"491 322 CURVE SMOOTH",
"528 323 OFFCURVE",
"551 347 OFFCURVE",
"554 366 CURVE SMOOTH",
"558 389 OFFCURVE",
"532 406 OFFCURVE",
"504 406 CURVE SMOOTH",
"477 406 OFFCURVE",
"147 401 OFFCURVE",
"104 401 CURVE SMOOTH",
"72 401 OFFCURVE",
"52 377 OFFCURVE",
"48 360 CURVE SMOOTH",
"44 342 OFFCURVE",
"45 315 OFFCURVE",
"68 312 CURVE SMOOTH"
);
}
);
width = 550;
}
);
unicode = 0023;
},
{
glyphname = slash;
lastChange = "2025-05-01 05:36:53 +0000";
layers = (
{
layerId = "15880153-BF49-4651-A558-57743A88E547";
paths = (
{
closed = 1;
nodes = (
"-71 -126 OFFCURVE",
"-40 -127 OFFCURVE",
"-24 -108 CURVE SMOOTH",
"56 -13 OFFCURVE",
"351 403 OFFCURVE",
"481 589 CURVE SMOOTH",
"495 609 OFFCURVE",
"498 636 OFFCURVE",
"482 646 CURVE SMOOTH",
"448 667 OFFCURVE",
"417 656 OFFCURVE",
"399 634 CURVE SMOOTH",
"269 475 OFFCURVE",
"33 132 OFFCURVE",
"-93 -41 CURVE SMOOTH",
"-109 -63 OFFCURVE",
"-104 -100 OFFCURVE",
"-90 -111 CURVE SMOOTH"
);
}
);
width = 378;
}
);
leftKerningGroup = slash;
rightKerningGroup = slash;
rightMetricsKey = "=|";
unicode = 002F;
},
{
glyphname = backslash;
lastChange = "2024-12-05 03:55:12 +0000";
layers = (
{
layerId = "15880153-BF49-4651-A558-57743A88E547";
paths = (
{
closed = 1;
nodes = (
"313 -139 OFFCURVE",
"335 -104 OFFCURVE",
"331 -85 CURVE SMOOTH",
"301 58 OFFCURVE",
"185 494 OFFCURVE",
"134 641 CURVE SMOOTH",
"125 667 OFFCURVE",
"103 689 OFFCURVE",
"82 682 CURVE SMOOTH",
"46 670 OFFCURVE",
"35 630 OFFCURVE",
"44 597 CURVE SMOOTH",
"106 368 OFFCURVE",
"174 138 OFFCURVE",
"236 -102 CURVE SMOOTH",
"244 -133 OFFCURVE",
"274 -151 OFFCURVE",
"294 -145 CURVE SMOOTH"
);
}
);
width = 370;
}
);
leftKerningGroup = backslash;
rightKerningGroup = backslash;
unicode = 005C;
},
{
glyphname = hyphen;
lastChange = "2016-11-16 03:44:33 +0000";
layers = (
{
layerId = "15880153-BF49-4651-A558-57743A88E547";
paths = (
{
closed = 1;
nodes = (
"326 237 OFFCURVE",
"346 268 OFFCURVE",
"346 285 CURVE SMOOTH",
"346 309 OFFCURVE",
"323 327 OFFCURVE",
"307 327 CURVE SMOOTH",
"273 327 OFFCURVE",
"81 335 OFFCURVE",
"60 331 CURVE SMOOTH",
"39 327 OFFCURVE",
"18 309 OFFCURVE",
"18 289 CURVE SMOOTH",
"18 258 OFFCURVE",
"31 242 OFFCURVE",
"60 238 CURVE SMOOTH",
"89 234 OFFCURVE",
"268 237 OFFCURVE",
"298 237 CURVE SMOOTH"
);
}
);
width = 357;
}
);
leftKerningGroup = middle;
rightKerningGroup = middle;
unicode = 002D;
},
{
glyphname = endash;
lastChange = "2016-11-16 03:44:46 +0000";
layers = (
{
layerId = "15880153-BF49-4651-A558-57743A88E547";
paths = (
{
closed = 1;
nodes = (
"519 237 OFFCURVE",
"537 261 OFFCURVE",
"537 288 CURVE SMOOTH",
"537 312 OFFCURVE",
"520 327 OFFCURVE",
"498 327 CURVE SMOOTH",
"236 327 OFFCURVE",
"63 330 OFFCURVE",
"51 329 CURVE SMOOTH",
"19 326 OFFCURVE",
"9 306 OFFCURVE",
"9 287 CURVE SMOOTH",
"9 257 OFFCURVE",
"27 244 OFFCURVE",
"51 243 CURVE SMOOTH",
"166 238 OFFCURVE",
"248 237 OFFCURVE",
"489 237 CURVE SMOOTH"
);
}
);
width = 540;
}
);
leftKerningGroup = middle;
rightKerningGroup = middle;
unicode = 2013;
},
{
glyphname = emdash;
lastChange = "2016-11-16 03:09:35 +0000";
layers = (
{
layerId = "15880153-BF49-4651-A558-57743A88E547";
paths = (
{
closed = 1;
nodes = (
"76 238 OFFCURVE",
"595 247 OFFCURVE",
"625 247 CURVE SMOOTH",
"653 247 OFFCURVE",
"675 278 OFFCURVE",
"673 295 CURVE SMOOTH",
"671 313 OFFCURVE",
"648 331 OFFCURVE",
"632 331 CURVE SMOOTH",
"598 331 OFFCURVE",
"68 335 OFFCURVE",
"47 331 CURVE SMOOTH",
"26 327 OFFCURVE",
"5 309 OFFCURVE",
"5 289 CURVE SMOOTH",
"5 262 OFFCURVE",
"18 246 OFFCURVE",
"47 242 CURVE SMOOTH"
);
}
);
width = 669;
}
);
leftKerningGroup = middle;
rightKerningGroup = middle;
unicode = 2014;
},
{
glyphname = underscore;
lastChange = "2016-11-16 03:08:44 +0000";
layers = (
{
layerId = "15880153-BF49-4651-A558-57743A88E547";
paths = (
{
closed = 1;
nodes = (
"349 -3 OFFCURVE",
"369 28 OFFCURVE",
"369 45 CURVE SMOOTH",
"369 69 OFFCURVE",
"346 87 OFFCURVE",
"330 87 CURVE SMOOTH",
"296 87 OFFCURVE",
"-16 95 OFFCURVE",
"-37 91 CURVE SMOOTH",
"-58 87 OFFCURVE",
"-79 69 OFFCURVE",
"-79 49 CURVE SMOOTH",
"-79 18 OFFCURVE",
"-66 2 OFFCURVE",
"-37 -2 CURVE SMOOTH",
"-8 -6 OFFCURVE",
"291 -3 OFFCURVE",
"321 -3 CURVE SMOOTH"
);
}
);
width = 430;
}
);
leftKerningGroup = bottom;
rightKerningGroup = bottom;
unicode = 005F;
},
{
glyphname = "⸗";
lastChange = "2025-05-01 05:37:25 +0000";
layers = (
{
layerId = "15880153-BF49-4651-A558-57743A88E547";
paths = (
{
closed = 1;
nodes = (
"77 322 OFFCURVE",
"91 304 OFFCURVE",
"143 302 CURVE SMOOTH",
"205 302 OFFCURVE",
"447 349 OFFCURVE",
"572 389 CURVE SMOOTH",
"627 407 OFFCURVE",
"658 435 OFFCURVE",
"647 464 CURVE SMOOTH",
"631 506 OFFCURVE",
"586 496 OFFCURVE",
"506 477 CURVE SMOOTH",
"321 433 OFFCURVE",
"176 403 OFFCURVE",
"147 395 CURVE SMOOTH",
"102 383 OFFCURVE",
"68 369 OFFCURVE",
"73 347 CURVE SMOOTH"
);
},
{
closed = 1;
nodes = (
"574 250 OFFCURVE",
"560 268 OFFCURVE",
"508 270 CURVE SMOOTH",
"446 270 OFFCURVE",
"234 230 OFFCURVE",
"112 189 CURVE SMOOTH",
"33 163 OFFCURVE",
"-7 144 OFFCURVE",
"3 115 CURVE SMOOTH",
"19 73 OFFCURVE",
"65 76 OFFCURVE",
"145 95 CURVE SMOOTH",
"330 139 OFFCURVE",
"475 169 OFFCURVE",
"503 177 CURVE SMOOTH",
"548 189 OFFCURVE",
"582 203 OFFCURVE",
"578 225 CURVE SMOOTH"
);
}
);
width = 632;
}
);
leftKerningGroup = equal;
rightKerningGroup = equal;
unicode = 2E17;
},
{
glyphname = parenright;
lastChange = "2024-12-05 03:56:19 +0000";
layers = (
{
layerId = "15880153-BF49-4651-A558-57743A88E547";
paths = (
{
closed = 1;
nodes = (
"150 -9 OFFCURVE",
"235 142 OFFCURVE",
"265 311 CURVE SMOOTH",
"295 488 OFFCURVE",
"251 575 OFFCURVE",
"198 679 CURVE SMOOTH",
"190 696 OFFCURVE",
"167 727 OFFCURVE",
"136 720 CURVE SMOOTH",
"115 715 OFFCURVE",
"98 680 OFFCURVE",
"113 638 CURVE SMOOTH",
"139 567 OFFCURVE",
"179 437 OFFCURVE",
"144 288 CURVE SMOOTH",
"96 94 OFFCURVE",
"-25 -47 OFFCURVE",
"-50 -60 CURVE SMOOTH",
"-77 -74 OFFCURVE",
"-93 -96 OFFCURVE",
"-86 -114 CURVE",
"-74 -141 OFFCURVE",
"-44 -150 OFFCURVE",
"3 -116 CURVE SMOOTH"
);
}
);
width = 310;
}
);
leftKerningGroup = parenright;
rightKerningGroup = parenright;
unicode = 0029;
},
{
glyphname = braceleft;
lastChange = "2024-12-05 03:56:25 +0000";
layers = (
{
layerId = "15880153-BF49-4651-A558-57743A88E547";
paths = (
{
closed = 1;
nodes = (
"187 -128 OFFCURVE",
"235 -140 OFFCURVE",
"241 -88 CURVE SMOOTH",
"246 -45 OFFCURVE",
"208 -33 OFFCURVE",
"176 -33 CURVE SMOOTH",
"126 -33 OFFCURVE",
"112 10 OFFCURVE",
"130 70 CURVE SMOOTH",
"148 130 OFFCURVE",
"171 186 OFFCURVE",
"177 226 CURVE SMOOTH",
"183 265 OFFCURVE",
"138 288 OFFCURVE",
"99 287 CURVE",
"93 270 LINE",
"118 270 OFFCURVE",
"198 291 OFFCURVE",
"211 331 CURVE SMOOTH",
"224 371 OFFCURVE",
"259 486 OFFCURVE",
"271 528 CURVE SMOOTH",
"284 574 OFFCURVE",
"330 623 OFFCURVE",
"376 623 CURVE SMOOTH",
"422 623 OFFCURVE",
"462 615 OFFCURVE",
"469 671 CURVE SMOOTH",
"474 714 OFFCURVE",
"431 713 OFFCURVE",
"388 709 CURVE SMOOTH",
"302 701 OFFCURVE",
"227 644 OFFCURVE",
"197 563 CURVE SMOOTH",
"187 537 OFFCURVE",
"142 395 OFFCURVE",
"130 363 CURVE SMOOTH",
"117 331 OFFCURVE",
"57 318 OFFCURVE",
"46 318 CURVE SMOOTH",
"27 318 OFFCURVE",
"5 302 OFFCURVE",
"-2 279 CURVE SMOOTH",
"-10 256 OFFCURVE",
"11 239 OFFCURVE",
"21 239 CURVE SMOOTH",
"31 239 OFFCURVE",
"87 219 OFFCURVE",
"79 195 CURVE SMOOTH",
"67 159 OFFCURVE",
"60 131 OFFCURVE",
"42 74 CURVE SMOOTH",
"-10 -91 OFFCURVE",
"104 -128 OFFCURVE",
"138 -128 CURVE SMOOTH"
);
}
);
width = 340;
}
);
leftKerningGroup = braceleft;
rightKerningGroup = braceleft;
unicode = 007B;
},
{
glyphname = bracketleft;
lastChange = "2024-12-05 03:56:43 +0000";
layers = (
{
layerId = "15880153-BF49-4651-A558-57743A88E547";
paths = (
{
closed = 1;
nodes = (
"141 -128 OFFCURVE",
"191 -133 OFFCURVE",
"196 -88 CURVE SMOOTH",
"201 -41 OFFCURVE",
"169 -23 OFFCURVE",
"130 -23 CURVE SMOOTH",
"80 -23 OFFCURVE",
"76 10 OFFCURVE",
"92 70 CURVE SMOOTH",
"108 130 OFFCURVE",
"206 486 OFFCURVE",
"217 528 CURVE SMOOTH",
"228 574 OFFCURVE",
"260 614 OFFCURVE",
"306 614 CURVE SMOOTH",
"353 614 OFFCURVE",
"397 602 OFFCURVE",
"407 666 CURVE SMOOTH",
"413 706 OFFCURVE",
"366 713 OFFCURVE",
"315 709 CURVE SMOOTH",
"230 702 OFFCURVE",
"160 640 OFFCURVE",
"129 563 CURVE SMOOTH",
"99 485 OFFCURVE",
"12 147 OFFCURVE",
"-8 74 CURVE SMOOTH",
"-55 -91 OFFCURVE",
"61 -128 OFFCURVE",
"95 -128 CURVE SMOOTH"
);
}
);
width = 299;
}
);
leftKerningGroup = bracketleft;
rightKerningGroup = bracketleft;
unicode = 005B;
},
{
glyphname = U201B;
lastChange = "2025-05-01 05:32:00 +0000";
layers = (
{
layerId = "15880153-BF49-4651-A558-57743A88E547";
paths = (
{
closed = 1;
nodes = (
"190 482 OFFCURVE",
"204 501 OFFCURVE",
"214 531 CURVE SMOOTH",
"224 563 OFFCURVE",
"225 595 OFFCURVE",
"240 625 CURVE SMOOTH",
"259 664 OFFCURVE",
"309 680 OFFCURVE",
"329 723 CURVE SMOOTH",
"343 754 OFFCURVE",
"330 791 OFFCURVE",
"299 803 CURVE SMOOTH",
"263 817 OFFCURVE",
"225 793 OFFCURVE",
"208 752 CURVE SMOOTH",
"164 646 OFFCURVE",
"134 505 OFFCURVE",
"163 493 CURVE SMOOTH"
);
}
);
width = 240;
}
);
leftKerningGroup = topHB;
rightKerningGroup = topHB;
},
{
glyphname = U201F;
lastChange = "2025-05-01 05:41:20 +0000";
layers = (
{
layerId = "15880153-BF49-4651-A558-57743A88E547";
paths = (
{
closed = 1;
nodes = (
"187 469 OFFCURVE",
"201 488 OFFCURVE",
"211 518 CURVE SMOOTH",
"221 550 OFFCURVE",
"222 582 OFFCURVE",
"237 612 CURVE SMOOTH",
"256 651 OFFCURVE",
"306 667 OFFCURVE",
"326 710 CURVE SMOOTH",
"340 741 OFFCURVE",
"327 778 OFFCURVE",
"296 790 CURVE SMOOTH",
"260 804 OFFCURVE",
"222 780 OFFCURVE",
"205 739 CURVE SMOOTH",
"161 633 OFFCURVE",
"131 492 OFFCURVE",
"160 480 CURVE SMOOTH"
);
},
{
closed = 1;
nodes = (
"358 463 OFFCURVE",
"374 485 OFFCURVE",
"386 519 CURVE SMOOTH",
"399 556 OFFCURVE",
"401 596 OFFCURVE",
"415 624 CURVE SMOOTH",
"433 660 OFFCURVE",
"481 663 OFFCURVE",
"496 700 CURVE SMOOTH",
"510 734 OFFCURVE",
"501 772 OFFCURVE",
"468 784 CURVE SMOOTH",
"432 798 OFFCURVE",
"393 775 OFFCURVE",
"377 733 CURVE SMOOTH",
"335 617 OFFCURVE",
"303 486 OFFCURVE",
"332 474 CURVE SMOOTH"
);
}
);
width = 414;
}
);
leftKerningGroup = topHB;
leftMetricsKey = U201B;
rightKerningGroup = topHB;
rightMetricsKey = U201B;
},
{
glyphname = quotedbl;
lastChange = "2025-05-01 05:41:11 +0000";
layers = (
{
layerId = "15880153-BF49-4651-A558-57743A88E547";
paths = (
{
closed = 1;
nodes = (
"176 442 OFFCURVE",
"199 475 OFFCURVE",
"219 518 CURVE SMOOTH",
"246 575 OFFCURVE",
"267 650 OFFCURVE",
"274 685 CURVE SMOOTH",
"281 718 OFFCURVE",
"263 758 OFFCURVE",
"223 758 CURVE SMOOTH",
"198 758 OFFCURVE",
"169 738 OFFCURVE",
"161 692 CURVE SMOOTH",
"158 673 OFFCURVE",
"143 606 OFFCURVE",
"137 546 CURVE SMOOTH",
"130 491 OFFCURVE",
"131 442 OFFCURVE",
"154 442 CURVE SMOOTH"
);
},
{
closed = 1;
nodes = (
"338 442 OFFCURVE",
"359 463 OFFCURVE",
"378 496 CURVE SMOOTH",
"413 551 OFFCURVE",
"443 637 OFFCURVE",
"453 685 CURVE SMOOTH",
"460 718 OFFCURVE",
"442 758 OFFCURVE",
"402 758 CURVE SMOOTH",
"377 758 OFFCURVE",
"355 736 OFFCURVE",
"340 692 CURVE SMOOTH",
"330 662 OFFCURVE",
"304 575 OFFCURVE",
"298 512 CURVE SMOOTH",
"294 472 OFFCURVE",
"299 442 OFFCURVE",
"322 442 CURVE SMOOTH"
);
}
);
width = 377;
}
);
leftKerningGroup = top;
leftMetricsKey = quotesingle;
rightKerningGroup = top;
rightMetricsKey = quotesingle;
unicode = 0022;
},
{
glyphname = quotesingle;
lastChange = "2025-05-01 05:40:07 +0000";
layers = (
{
layerId = "15880153-BF49-4651-A558-57743A88E547";
paths = (
{
closed = 1;
nodes = (
"165 442 OFFCURVE",
"185 466 OFFCURVE",
"204 496 CURVE SMOOTH",
"234 544 OFFCURVE",
"261 619 OFFCURVE",
"274 685 CURVE SMOOTH",
"281 718 OFFCURVE",
"263 758 OFFCURVE",
"223 758 CURVE SMOOTH",
"198 758 OFFCURVE",
"169 738 OFFCURVE",
"161 692 CURVE SMOOTH",
"157 668 OFFCURVE",
"133 548 OFFCURVE",
"127 511 CURVE SMOOTH",
"119 464 OFFCURVE",
"129 442 OFFCURVE",
"145 442 CURVE SMOOTH"
);
}
);
width = 199;
}
);
leftKerningGroup = top;
rightKerningGroup = top;
unicode = 0027;
},
{
glyphname = at;
lastChange = "2024-12-05 03:55:51 +0000";
layers = (
{
layerId = "15880153-BF49-4651-A558-57743A88E547";
paths = (
{
closed = 1;
nodes = (
"431 -70 OFFCURVE",
"467 -37 OFFCURVE",
"464 -3 CURVE SMOOTH",
"461 23 OFFCURVE",
"418 32 OFFCURVE",
"325 24 CURVE SMOOTH",
"170 11 OFFCURVE",
"107 117 OFFCURVE",
"150 271 CURVE SMOOTH",
"194 426 OFFCURVE",
"322 532 OFFCURVE",
"475 532 CURVE SMOOTH",
"630 532 OFFCURVE",
"701 412 OFFCURVE",
"667 271 CURVE SMOOTH",
"640 155 OFFCURVE",
"564 111 OFFCURVE",
"555 207 CURVE SMOOTH",
"544 314 OFFCURVE",
"657 480 OFFCURVE",
"563 449 CURVE SMOOTH",
"535 439 OFFCURVE",
"492 349 OFFCURVE",
"488 330 CURVE SMOOTH",
"486 312 OFFCURVE",
"466 264 OFFCURVE",
"459 223 CURVE SMOOTH",
"447 163 OFFCURVE",
"481 88 OFFCURVE",
"532 67 CURVE SMOOTH",
"606 39 OFFCURVE",
"714 110 OFFCURVE",
"753 271 CURVE SMOOTH",
"802 465 OFFCURVE",
"685 635 OFFCURVE",
"491 635 CURVE SMOOTH",
"298 635 OFFCURVE",
"104 470 OFFCURVE",
"41 271 CURVE SMOOTH",
"-20 80 OFFCURVE",
"107 -90 OFFCURVE",
"302 -78 CURVE SMOOTH"
);
},
{
closed = 1;
nodes = (
"375 54 OFFCURVE",
"508 99 OFFCURVE",
"514 197 CURVE SMOOTH",
"515 215 OFFCURVE",
"525 242 OFFCURVE",
"505 249 CURVE SMOOTH",
"489 256 OFFCURVE",
"464 243 OFFCURVE",
"459 223 CURVE SMOOTH",
"443 164 OFFCURVE",
"379 167 OFFCURVE",
"360 178 CURVE SMOOTH",
"327 197 OFFCURVE",
"331 242 OFFCURVE",
"354 296 CURVE SMOOTH",
"389 377 OFFCURVE",
"438 397 OFFCURVE",
"468 392 CURVE SMOOTH",
"486 388 OFFCURVE",
"495 371 OFFCURVE",
"488 330 CURVE",
"556 325 LINE",
"567 341 OFFCURVE",
"554 378 OFFCURVE",
"553 406 CURVE SMOOTH",
"549 446 OFFCURVE",
"540 484 OFFCURVE",
"494 489 CURVE SMOOTH",
"432 497 OFFCURVE",
"326 471 OFFCURVE",
"262 342 CURVE SMOOTH",
"202 223 OFFCURVE",
"225 128 OFFCURVE",
"296 93 CURVE SMOOTH"
);
}
);
width = 809;
},
{
associatedMasterId = "15880153-BF49-4651-A558-57743A88E547";
layerId = "9EAC427F-676B-42B9-AB08-10C69BFC3819";
width = 600;
},
{
associatedMasterId = "15880153-BF49-4651-A558-57743A88E547";
layerId = "E5899A72-38E4-4D55-831F-7A011BA846D7";
width = 600;
}
);
leftKerningGroup = at;
rightKerningGroup = at;
unicode = 0040;
},
{
glyphname = ampersand;
lastChange = "2016-11-16 03:58:30 +0000";
layers = (
{
layerId = "15880153-BF49-4651-A558-57743A88E547";
paths = (
{
closed = 1;
nodes = (
"109 -78 OFFCURVE",
"297 -21 OFFCURVE",
"442 215 CURVE SMOOTH",
"470 260 OFFCURVE",
"517 308 OFFCURVE",
"484 348 CURVE SMOOTH",
"460 377 OFFCURVE",
"419 346 OFFCURVE",
"407 321 CURVE SMOOTH",
"267 62 OFFCURVE",
"69 14 OFFCURVE",
"77 133 CURVE SMOOTH",
"79 166 OFFCURVE",
"119 223 OFFCURVE",
"177 261 CURVE SMOOTH",
"354 380 OFFCURVE",
"426 396 OFFCURVE",
"437 464 CURVE SMOOTH",
"453 558 OFFCURVE",
"395 619 OFFCURVE",
"320 636 CURVE SMOOTH",
"233 654 OFFCURVE",
"146 606 OFFCURVE",
"131 550 CURVE SMOOTH",
"122 517 OFFCURVE",
"103 494 OFFCURVE",
"141 432 CURVE SMOOTH",
"198 339 OFFCURVE",
"267 394 OFFCURVE",
"259 411 CURVE SMOOTH",
"222 492 OFFCURVE",
"223 540 OFFCURVE",
"270 548 CURVE SMOOTH",
"324 556 OFFCURVE",
"362 510 OFFCURVE",
"347 479 CURVE SMOOTH",
"325 428 OFFCURVE",
"273 448 OFFCURVE",
"92 308 CURVE SMOOTH",
"-66 187 OFFCURVE",
"-47 52 OFFCURVE",
"8 6 CURVE SMOOTH"
);
},
{
closed = 1;
nodes = (
"463 -27 OFFCURVE",
"471 7 OFFCURVE",
"457 35 CURVE SMOOTH",
"259 410 LINE SMOOTH",
"251 427 OFFCURVE",
"133 449 OFFCURVE",
"141 432 CURVE SMOOTH",
"362 -12 LINE SMOOTH",
"376 -41 OFFCURVE",
"405 -47 OFFCURVE",
"434 -37 CURVE SMOOTH"
);
}
);
width = 500;
},
{
associatedMasterId = "15880153-BF49-4651-A558-57743A88E547";
layerId = "9EAC427F-676B-42B9-AB08-10C69BFC3819";
width = 600;
},
{
associatedMasterId = "15880153-BF49-4651-A558-57743A88E547";
layerId = "E5899A72-38E4-4D55-831F-7A011BA846D7";
width = 600;
}
);
unicode = 0026;
},
{
glyphname = copyright;
lastChange = "2016-11-16 03:14:37 +0000";
layers = (
{
layerId = "15880153-BF49-4651-A558-57743A88E547";
paths = (
{
closed = 1;
nodes = (
"352 74 OFFCURVE",
"425 136 OFFCURVE",
"445 190 CURVE SMOOTH",
"451 206 OFFCURVE",
"443 230 OFFCURVE",
"425 237 CURVE SMOOTH",
"409 243 OFFCURVE",
"381 231 OFFCURVE",
"375 213 CURVE SMOOTH",
"367 190 OFFCURVE",
"335 166 OFFCURVE",
"317 176 CURVE SMOOTH",
"284 194 OFFCURVE",
"285 244 OFFCURVE",
"300 293 CURVE SMOOTH",
"326 377 OFFCURVE",
"377 402 OFFCURVE",
"405 396 CURVE SMOOTH",
"420 393 OFFCURVE",
"430 377 OFFCURVE",
"425 366 CURVE SMOOTH",
"416 346 OFFCURVE",
"422 323 OFFCURVE",
"440 316 CURVE SMOOTH",
"452 311 OFFCURVE",
"476 313 OFFCURVE",
"491 340 CURVE SMOOTH",
"499 354 OFFCURVE",
"504 368 OFFCURVE",
"500 393 CURVE SMOOTH",
"494 429 OFFCURVE",
"461 464 OFFCURVE",
"419 469 CURVE SMOOTH",
"361 476 OFFCURVE",
"268 452 OFFCURVE",
"222 335 CURVE SMOOTH",
"180 227 OFFCURVE",
"209 141 OFFCURVE",
"277 109 CURVE SMOOTH"
);
},
{
closed = 1;
nodes = (
"238 602 OFFCURVE",
"76 534 OFFCURVE",
"27 285 CURVE SMOOTH",
"-7 111 OFFCURVE",
"123 -45 OFFCURVE",
"299 -45 CURVE SMOOTH",
"474 -45 OFFCURVE",
"635 105 OFFCURVE",
"673 285 CURVE SMOOTH",
"710 459 OFFCURVE",
"579 602 OFFCURVE",
"403 602 CURVE SMOOTH"
);
},
{
closed = 1;
nodes = (
"559 145 OFFCURVE",
"443 39 OFFCURVE",
"304 39 CURVE SMOOTH",
"164 39 OFFCURVE",
"73 158 OFFCURVE",
"105 285 CURVE SMOOTH",
"151 470 OFFCURVE",
"263 529 OFFCURVE",
"392 529 CURVE SMOOTH",
"532 529 OFFCURVE",
"609 425 OFFCURVE",
"584 285 CURVE SMOOTH"
);
}
);
width = 692;
}
);
unicode = 00A9;
},
{
color = 5;
glyphname = registered;
lastChange = "2025-04-25 09:08:52 +0000";
layers = (
{
layerId = "15880153-BF49-4651-A558-57743A88E547";
paths = (
{
closed = 1;
nodes = (
"493 199 OFFCURVE",
"625 327 OFFCURVE",
"655 480 CURVE SMOOTH",
"690 637 OFFCURVE",
"569 764 OFFCURVE",
"408 764 CURVE SMOOTH",
"274 764 OFFCURVE",
"141 709 OFFCURVE",
"100 503 CURVE SMOOTH",
"68 344 OFFCURVE",
"191 199 OFFCURVE",
"348 199 CURVE SMOOTH"
);
},
{
closed = 1;
nodes = (
"242 291 OFFCURVE",
"165 395 OFFCURVE",
"190 502 CURVE SMOOTH",
"225 633 OFFCURVE",
"300 678 OFFCURVE",
"393 678 CURVE SMOOTH",
"515 678 OFFCURVE",
"579 593 OFFCURVE",
"559 481 CURVE SMOOTH",
"542 374 OFFCURVE",
"460 291 OFFCURVE",
"359 291 CURVE SMOOTH"
);
},
{
closed = 1;
nodes = (
"286 350 OFFCURVE",
"298 358 OFFCURVE",
"307 373 CURVE",
"323 421 OFFCURVE",
"347 537 OFFCURVE",
"357 598 CURVE SMOOTH",
"363 633 OFFCURVE",
"341 648 OFFCURVE",
"325 647 CURVE SMOOTH",
"291 646 OFFCURVE",
"288 613 OFFCURVE",
"282 577 CURVE SMOOTH",
"278 560 OFFCURVE",
"271 522 OFFCURVE",
"263 482 CURVE SMOOTH",
"255 443 OFFCURVE",
"246 402 OFFCURVE",
"243 387 CURVE SMOOTH",
"239 371 OFFCURVE",
"251 350 OFFCURVE",
"275 350 CURVE SMOOTH"
);
},
{
closed = 1;
nodes = (
"501 366 OFFCURVE",
"496 389 OFFCURVE",
"477 411 CURVE",
"481 405 OFFCURVE",
"458 430 OFFCURVE",
"380 519 CURVE",
"317 491 LINE",
"332 474 OFFCURVE",
"348 456 OFFCURVE",
"365 436 CURVE SMOOTH",
"390 406 OFFCURVE",
"414 378 OFFCURVE",
"431 362 CURVE",
"439 352 OFFCURVE",
"459 340 OFFCURVE",
"478 352 CURVE SMOOTH"
);
},
{
closed = 1;
nodes = (
"414 463 OFFCURVE",
"502 518 OFFCURVE",
"502 576 CURVE SMOOTH",
"502 621 OFFCURVE",
"455 645 OFFCURVE",
"415 647 CURVE SMOOTH",
"381 650 OFFCURVE",
"346 644 OFFCURVE",
"309 624 CURVE",
"296 558 LINE",
"325 571 OFFCURVE",
"360 582 OFFCURVE",
"397 582 CURVE SMOOTH",
"420 582 OFFCURVE",
"426 573 OFFCURVE",
"426 567 CURVE SMOOTH",
"426 556 OFFCURVE",
"382 514 OFFCURVE",
"306 515 CURVE",
"294 454 LINE"
);
}
);
width = 641;
}
);
leftKerningGroup = top;
rightKerningGroup = top;
unicode = 00AE;
},
{
color = 5;
glyphname = trademark;
lastChange = "2025-04-25 09:10:20 +0000";
layers = (
{
layerId = "15880153-BF49-4651-A558-57743A88E547";
paths = (
{
closed = 1;
nodes = (
"853 301 OFFCURVE",
"874 318 OFFCURVE",
"873 345 CURVE SMOOTH",
"869 419 OFFCURVE",
"875 592 OFFCURVE",
"864 682 CURVE SMOOTH",
"860 709 OFFCURVE",
"846 722 OFFCURVE",
"826 722 CURVE SMOOTH",
"810 722 OFFCURVE",
"795 711 OFFCURVE",
"784 693 CURVE SMOOTH",
"749 638 OFFCURVE",
"670 505 OFFCURVE",
"649 471 CURVE",
"676 464 LINE",
"670 537 OFFCURVE",
"660 616 OFFCURVE",
"652 682 CURVE SMOOTH",
"648 709 OFFCURVE",
"635 722 OFFCURVE",
"614 722 CURVE SMOOTH",
"599 722 OFFCURVE",
"584 711 OFFCURVE",
"573 693 CURVE SMOOTH",
"503 583 OFFCURVE",
"451 467 OFFCURVE",
"397 355 CURVE SMOOTH",
"387 335 OFFCURVE",
"392 317 OFFCURVE",
"402 307 CURVE SMOOTH",
"419 291 OFFCURVE",
"450 290 OFFCURVE",
"465 320 CURVE SMOOTH",
"505 408 OFFCURVE",
"562 518 OFFCURVE",
"606 598 CURVE",
"579 602 LINE",
"586 562 OFFCURVE",
"595 491 OFFCURVE",
"601 439 CURVE SMOOTH",
"605 410 OFFCURVE",
"603 368 OFFCURVE",
"632 357 CURVE SMOOTH",
"648 351 OFFCURVE",
"670 353 OFFCURVE",
"683 376 CURVE SMOOTH",
"712 423 OFFCURVE",
"789 550 OFFCURVE",
"817 598 CURVE",
"792 604 LINE",
"792 583 OFFCURVE",
"795 383 OFFCURVE",
"799 341 CURVE SMOOTH",
"800 312 OFFCURVE",
"816 301 OFFCURVE",
"833 301 CURVE SMOOTH"
);
},
{
closed = 1;
nodes = (
"294 302 OFFCURVE",
"300 351 OFFCURVE",
"312 421 CURVE SMOOTH",
"330 512 OFFCURVE",
"343 602 OFFCURVE",
"352 680 CURVE SMOOTH",
"356 721 OFFCURVE",
"332 736 OFFCURVE",
"312 735 CURVE SMOOTH",
"280 732 OFFCURVE",
"275 702 OFFCURVE",
"269 662 CURVE SMOOTH",
"264 634 OFFCURVE",
"229 392 OFFCURVE",
"220 338 CURVE SMOOTH",
"216 316 OFFCURVE",
"230 295 OFFCURVE",
"257 296 CURVE SMOOTH"
);
},
{
closed = 1;
nodes = (
"246 621 OFFCURVE",
"354 626 OFFCURVE",
"430 634 CURVE SMOOTH",
"454 637 OFFCURVE",
"477 650 OFFCURVE",
"478 673 CURVE SMOOTH",
"478 703 OFFCURVE",
"451 708 OFFCURVE",
"429 708 CURVE SMOOTH",
"366 708 OFFCURVE",
"224 700 OFFCURVE",
"166 694 CURVE SMOOTH",
"145 693 OFFCURVE",
"123 683 OFFCURVE",
"120 657 CURVE SMOOTH",
"117 628 OFFCURVE",
"141 616 OFFCURVE",
"177 618 CURVE SMOOTH"
);
}
);
width = 909;
}
);
leftKerningGroup = top;
rightKerningGroup = top;
unicode = 2122;
},
{
glyphname = degree;
lastChange = "2024-12-12 06:28:08 +0000";
layers = (
{
layerId = "15880153-BF49-4651-A558-57743A88E547";
paths = (
{
closed = 1;
nodes = (
"336 406 OFFCURVE",
"398 461 OFFCURVE",
"414 550 CURVE SMOOTH",
"430 639 OFFCURVE",
"378 705 OFFCURVE",
"289 705 CURVE SMOOTH",
"200 705 OFFCURVE",
"126 659 OFFCURVE",
"110 570 CURVE SMOOTH",
"94 481 OFFCURVE",
"158 406 OFFCURVE",
"247 406 CURVE SMOOTH"
);
},
{
closed = 1;
nodes = (
"214 486 OFFCURVE",
"191 513 OFFCURVE",
"199 552 CURVE SMOOTH",
"207 591 OFFCURVE",
"239 618 OFFCURVE",
"277 618 CURVE SMOOTH",
"315 618 OFFCURVE",
"338 591 OFFCURVE",
"331 552 CURVE SMOOTH",
"324 513 OFFCURVE",
"292 486 OFFCURVE",
"254 486 CURVE SMOOTH"
);
}
);
width = 360;
}
);
leftKerningGroup = top;
rightKerningGroup = top;
unicode = 00B0;
},
{
glyphname = bar;
lastChange = "2016-11-16 02:02:41 +0000";
layers = (
{
layerId = "15880153-BF49-4651-A558-57743A88E547";
paths = (
{
closed = 1;
nodes = (
"-31 -125 OFFCURVE",
"-12 -117 OFFCURVE",
"-4 -96 CURVE SMOOTH",
"267 655 LINE SMOOTH",
"276 681 OFFCURVE",
"260 710 OFFCURVE",
"229 720 CURVE SMOOTH",
"205 728 OFFCURVE",
"183 718 OFFCURVE",
"176 696 CURVE SMOOTH",
"-70 -71 LINE SMOOTH",
"-76 -91 OFFCURVE",
"-69 -111 OFFCURVE",
"-50 -118 CURVE SMOOTH"
);
}
);
width = 187;
}
);
unicode = 007C;
},
{
color = 5;
glyphname = cent;
lastChange = "2025-04-25 09:12:41 +0000";
layers = (
{
layerId = "15880153-BF49-4651-A558-57743A88E547";
paths = (
{
closed = 1;
nodes = (
"290 6 OFFCURVE",
"355 32 OFFCURVE",
"406 91 CURVE SMOOTH",
"430 121 OFFCURVE",
"452 156 OFFCURVE",
"436 191 CURVE SMOOTH",
"421 221 OFFCURVE",
"389 212 OFFCURVE",
"365 187 CURVE SMOOTH",
"321 140 OFFCURVE",
"286 112 OFFCURVE",
"246 112 CURVE SMOOTH",
"176 112 OFFCURVE",
"145 174 OFFCURVE",
"154 252 CURVE SMOOTH",
"163 326 OFFCURVE",
"223 475 OFFCURVE",
"295 475 CURVE SMOOTH",
"329 475 OFFCURVE",
"362 462 OFFCURVE",
"392 437 CURVE SMOOTH",
"418 415 OFFCURVE",
"437 405 OFFCURVE",
"459 412 CURVE SMOOTH",
"473 417 OFFCURVE",
"483 435 OFFCURVE",
"479 461 CURVE SMOOTH",
"473 503 OFFCURVE",
"419 569 OFFCURVE",
"307 569 CURVE SMOOTH",
"151 569 OFFCURVE",
"60 379 OFFCURVE",
"46 226 CURVE SMOOTH",
"34 100 OFFCURVE",
"118 6 OFFCURVE",
"226 6 CURVE SMOOTH"
);
},
{
closed = 1;
nodes = (
"157 -79 OFFCURVE",
"174 -73 OFFCURVE",
"181 -51 CURVE SMOOTH",
"410 602 LINE SMOOTH",
"416 618 OFFCURVE",
"411 647 OFFCURVE",
"393 655 CURVE SMOOTH",
"375 663 OFFCURVE",
"349 641 OFFCURVE",
"343 618 CURVE SMOOTH",
"314 505 OFFCURVE",
"191 186 OFFCURVE",
"113 -24 CURVE SMOOTH",
"103 -51 OFFCURVE",
"110 -65 OFFCURVE",
"136 -73 CURVE SMOOTH"
);
}
);
width = 514;
}
);
unicode = 00A2;
},
{
glyphname = dollar;
lastChange = "2025-04-25 09:12:05 +0000";
layers = (
{
layerId = "15880153-BF49-4651-A558-57743A88E547";
paths = (
{
closed = 1;
nodes = (
"238 -43 OFFCURVE",
"392 -27 OFFCURVE",
"436 107 CURVE SMOOTH",
"478 232 OFFCURVE",
"327 315 OFFCURVE",
"273 354 CURVE SMOOTH",
"242 376 OFFCURVE",
"170 407 OFFCURVE",
"189 463 CURVE SMOOTH",
"201 500 OFFCURVE",
"245 500 OFFCURVE",
"282 492 CURVE SMOOTH",
"309 487 OFFCURVE",
"345 454 OFFCURVE",
"352 424 CURVE SMOOTH",
"363 379 OFFCURVE",
"400 359 OFFCURVE",
"432 376 CURVE SMOOTH",
"467 394 OFFCURVE",
"459 434 OFFCURVE",
"445 463 CURVE SMOOTH",
"427 500 OFFCURVE",
"392 558 OFFCURVE",
"326 573 CURVE SMOOTH",
"209 600 OFFCURVE",
"120 569 OFFCURVE",
"90 500 CURVE SMOOTH",
"44 395 OFFCURVE",
"143 313 OFFCURVE",
"219 274 CURVE SMOOTH",
"294 234 OFFCURVE",
"355 189 OFFCURVE",
"331 127 CURVE SMOOTH",
"313 78 OFFCURVE",
"237 55 OFFCURVE",
"175 78 CURVE SMOOTH",
"126 97 OFFCURVE",
"91 142 OFFCURVE",
"112 203 CURVE SMOOTH",
"118 222 OFFCURVE",
"121 254 OFFCURVE",
"90 268 CURVE SMOOTH",
"58 282 OFFCURVE",
"34 266 OFFCURVE",
"9 217 CURVE SMOOTH",
"-26 147 OFFCURVE",
"21 24 OFFCURVE",
"129 -9 CURVE SMOOTH"
);
},
{
closed = 1;
nodes = (
"121 -79 OFFCURVE",
"138 -73 OFFCURVE",
"145 -51 CURVE SMOOTH",
"374 602 LINE SMOOTH",
"380 618 OFFCURVE",
"375 647 OFFCURVE",
"357 655 CURVE SMOOTH",
"339 663 OFFCURVE",
"313 641 OFFCURVE",
"307 618 CURVE SMOOTH",
"278 505 OFFCURVE",
"155 186 OFFCURVE",
"77 -24 CURVE SMOOTH",
"67 -51 OFFCURVE",
"74 -65 OFFCURVE",
"100 -73 CURVE SMOOTH"
);
}
);
width = 500;
}
);
unicode = 0024;
},
{
glyphname = euro;
lastChange = "2020-09-01 06:27:01 +0000";
layers = (
{
associatedMasterId = "15880153-BF49-4651-A558-57743A88E547";
layerId = "9EAC427F-676B-42B9-AB08-10C69BFC3819";
paths = (
{
closed = 1;
nodes = (
"456 556 LINE",
"426 572 OFFCURVE",
"380 582 OFFCURVE",
"335 582 CURVE SMOOTH",
"168 582 OFFCURVE",
"87 454 OFFCURVE",
"87 285 CURVE SMOOTH",
"87 117 OFFCURVE",
"163 -5 OFFCURVE",
"326 -5 CURVE SMOOTH",
"382 -5 OFFCURVE",
"431 8 OFFCURVE",
"467 34 CURVE",
"442 83 LINE",
"411 60 OFFCURVE",
"376 49 OFFCURVE",
"333 49 CURVE SMOOTH",
"208 49 OFFCURVE",
"147 147 OFFCURVE",
"147 285 CURVE SMOOTH",
"147 410 OFFCURVE",
"204 528 OFFCURVE",
"333 528 CURVE SMOOTH",
"374 528 OFFCURVE",
"408 520 OFFCURVE",
"435 503 CURVE"
);
},
{
closed = 1;
nodes = (
"45 252 LINE",
"27 204 LINE",
"324 204 LINE",
"341 252 LINE"
);
},
{
closed = 1;
nodes = (
"364 325 LINE",
"380 373 LINE",
"46 373 LINE",
"28 325 LINE"
);
}
);
width = 520;
},
{
layerId = "15880153-BF49-4651-A558-57743A88E547";
paths = (
{
closed = 1;
nodes = (
"484 20 OFFCURVE",
"515 41 OFFCURVE",
"512 77 CURVE SMOOTH",
"508 125 OFFCURVE",
"459 111 OFFCURVE",
"372 109 CURVE SMOOTH",
"256 106 OFFCURVE",
"169 159 OFFCURVE",
"206 311 CURVE SMOOTH",
"241 454 OFFCURVE",
"387 549 OFFCURVE",
"521 494 CURVE SMOOTH",
"567 475 OFFCURVE",
"621 470 OFFCURVE",
"634 510 CURVE SMOOTH",
"646 546 OFFCURVE",
"618 572 OFFCURVE",
"540 597 CURVE SMOOTH",
"408 639 OFFCURVE",
"178 610 OFFCURVE",
"101 324 CURVE SMOOTH",
"42 102 OFFCURVE",
"206 -50 OFFCURVE",
"440 9 CURVE SMOOTH"
);
},
{
closed = 1;
nodes = (
"56 196 OFFCURVE",
"327 205 OFFCURVE",
"357 205 CURVE SMOOTH",
"385 205 OFFCURVE",
"405 231 OFFCURVE",
"407 248 CURVE SMOOTH",
"408 272 OFFCURVE",
"386 290 OFFCURVE",
"370 290 CURVE SMOOTH",
"336 290 OFFCURVE",
"55 297 OFFCURVE",
"34 293 CURVE SMOOTH",
"12 289 OFFCURVE",
"-10 271 OFFCURVE",
"-11 251 CURVE SMOOTH",
"-13 220 OFFCURVE",
"-2 204 OFFCURVE",
"27 200 CURVE SMOOTH"
);
},
{
closed = 1;
nodes = (
"104 326 OFFCURVE",
"386 331 OFFCURVE",
"412 332 CURVE SMOOTH",
"439 333 OFFCURVE",
"454 356 OFFCURVE",
"452 375 CURVE SMOOTH",
"450 397 OFFCURVE",
"427 413 OFFCURVE",
"412 413 CURVE SMOOTH",
"381 413 OFFCURVE",
"90 418 OFFCURVE",
"71 415 CURVE SMOOTH",
"52 412 OFFCURVE",
"35 395 OFFCURVE",
"34 377 CURVE SMOOTH",
"32 348 OFFCURVE",
"50 334 OFFCURVE",
"77 330 CURVE SMOOTH"
);
}
);
width = 578;
},
{
associatedMasterId = "15880153-BF49-4651-A558-57743A88E547";
layerId = "E5899A72-38E4-4D55-831F-7A011BA846D7";
paths = (
{
closed = 1;
nodes = (
"441 558 LINE",
"416 572 OFFCURVE",
"370 582 OFFCURVE",
"325 582 CURVE SMOOTH",
"158 582 OFFCURVE",
"77 454 OFFCURVE",
"77 285 CURVE SMOOTH",
"77 117 OFFCURVE",
"153 -5 OFFCURVE",
"316 -5 CURVE SMOOTH",
"372 -5 OFFCURVE",
"421 8 OFFCURVE",
"457 34 CURVE",
"388 173 LINE",
"372 160 OFFCURVE",
"355 153 OFFCURVE",
"333 153 CURVE SMOOTH",
"271 153 OFFCURVE",
"241 210 OFFCURVE",
"241 288 CURVE SMOOTH",
"241 360 OFFCURVE",
"269 427 OFFCURVE",
"333 427 CURVE SMOOTH",
"354 427 OFFCURVE",
"371 422 OFFCURVE",
"387 411 CURVE"
);
},
{
closed = 1;
nodes = (
"41 277 LINE",
"12 197 LINE",
"309 197 LINE",
"339 277 LINE"
);
},
{
closed = 1;
nodes = (
"345 295 LINE",
"374 375 LINE",
"37 375 LINE",
"8 295 LINE"
);
}
);
width = 480;
}
);
note = Euro;
rightKerningGroup = parenright;
unicode = 20AC;
},
{
glyphname = sheqel;
lastChange = "2020-09-01 06:27:11 +0000";
layers = (
{
layerId = "15880153-BF49-4651-A558-57743A88E547";
paths = (
{
closed = 1;
nodes = (
"571 16 OFFCURVE",
"634 58 OFFCURVE",
"654 132 CURVE SMOOTH",
"669 188 OFFCURVE",
"706 299 OFFCURVE",
"715 329 CURVE SMOOTH",
"733 388 OFFCURVE",
"710 417 OFFCURVE",
"695 421 CURVE SMOOTH",
"673 427 OFFCURVE",
"636 404 OFFCURVE",
"625 363 CURVE SMOOTH",
"620 344 OFFCURVE",
"574 190 OFFCURVE",
"556 148 CURVE SMOOTH",
"542 116 OFFCURVE",
"517 96 OFFCURVE",
"498 91 CURVE SMOOTH",
"462 81 OFFCURVE",
"419 73 OFFCURVE",
"369 91 CURVE SMOOTH",
"335 103 OFFCURVE",
"306 145 OFFCURVE",
"319 185 CURVE SMOOTH",
"323 197 OFFCURVE",
"330 216 OFFCURVE",
"339 241 CURVE SMOOTH",
"351 273 OFFCURVE",
"338 296 OFFCURVE",
"319 302 CURVE SMOOTH",
"298 309 OFFCURVE",
"265 291 OFFCURVE",
"256 267 CURVE SMOOTH",
"238 220 OFFCURVE",
"232 197 OFFCURVE",
"227 173 CURVE SMOOTH",
"215 116 OFFCURVE",
"261 31 OFFCURVE",
"331 8 CURVE SMOOTH",
"384 -9 OFFCURVE",
"431 -14 OFFCURVE",
"506 2 CURVE SMOOTH"
);
},
{
closed = 1;
nodes = (
"15 -9 OFFCURVE",
"37 9 OFFCURVE",
"64 47 CURVE SMOOTH",
"98 95 OFFCURVE",
"244 385 OFFCURVE",
"269 438 CURVE SMOOTH",
"289 481 OFFCURVE",
"289 512 OFFCURVE",
"260 525 CURVE SMOOTH",
"232 538 OFFCURVE",
"201 511 OFFCURVE",
"177 457 CURVE SMOOTH",
"151 399 OFFCURVE",
"6 118 OFFCURVE",
"-16 79 CURVE SMOOTH",
"-39 38 OFFCURVE",
"-32 10 OFFCURVE",
"-12 2 CURVE SMOOTH"
);
},
{
closed = 1;
nodes = (
"446 128 OFFCURVE",
"478 144 OFFCURVE",
"491 171 CURVE SMOOTH",
"499 188 OFFCURVE",
"515 226 OFFCURVE",
"520 239 CURVE SMOOTH",
"556 332 OFFCURVE",
"496 413 OFFCURVE",
"420 434 CURVE SMOOTH",
"345 455 OFFCURVE",
"146 398 OFFCURVE",
"108 381 CURVE SMOOTH",
"70 364 OFFCURVE",
"18 325 OFFCURVE",
"31 290 CURVE SMOOTH",
"41 264 OFFCURVE",
"71 257 OFFCURVE",
"98 269 CURVE SMOOTH",
"127 282 OFFCURVE",
"290 359 OFFCURVE",
"385 342 CURVE SMOOTH",
"441 332 OFFCURVE",
"418 253 OFFCURVE",
"403 224 CURVE SMOOTH",
"384 188 OFFCURVE",
"390 159 OFFCURVE",
"417 144 CURVE SMOOTH"
);
}
);
width = 741;
},
{
associatedMasterId = "15880153-BF49-4651-A558-57743A88E547";
layerId = "53D8CED4-7490-41E1-AE18-6880BB113318";
name = "new Layer";
paths = (
{
closed = 1;
nodes = (
"652 475 LINE SMOOTH",
"652 562 OFFCURVE",
"627 600 OFFCURVE",
"546 600 CURVE SMOOTH",
"67 600 LINE",
"67 0 LINE",
"227 0 LINE",
"227 475 LINE",
"450 475 LINE SMOOTH",
"481 475 OFFCURVE",
"492 458 OFFCURVE",
"492 425 CURVE SMOOTH",
"492 180 LINE",
"652 180 LINE"
);
},
{
closed = 1;
nodes = (
"686 0 LINE SMOOTH",
"798 0 OFFCURVE",
"860 63 OFFCURVE",
"860 188 CURVE SMOOTH",
"860 600 LINE",
"700 600 LINE",
"700 203 LINE SMOOTH",
"700 146 OFFCURVE",
"683 125 OFFCURVE",
"636 125 CURVE SMOOTH",
"441 125 LINE",
"441 420 LINE",
"281 420 LINE",
"281 0 LINE"
);
}
);
width = 920;
},
{
associatedMasterId = "15880153-BF49-4651-A558-57743A88E547";
layerId = "8AC24B29-55F9-4874-9405-22E9B184E4B3";
name = "new Layer";
paths = (
{
closed = 1;
nodes = (
"496 535 LINE SMOOTH",
"496 580 OFFCURVE",
"473 600 OFFCURVE",
"419 600 CURVE SMOOTH",
"79 600 LINE",
"79 0 LINE",
"91 0 LINE",
"91 590 LINE",
"419 590 LINE SMOOTH",
"464 590 OFFCURVE",
"484 573 OFFCURVE",
"484 535 CURVE SMOOTH",
"484 194 LINE",
"496 194 LINE"
);
},
{
closed = 1;
nodes = (
"599 0 LINE SMOOTH",
"669 0 OFFCURVE",
"694 37 OFFCURVE",
"694 108 CURVE SMOOTH",
"694 600 LINE",
"682 600 LINE",
"682 108 LINE SMOOTH",
"682 43 OFFCURVE",
"661 10 OFFCURVE",
"599 10 CURVE SMOOTH",
"295 10 LINE",
"295 417 LINE",
"283 417 LINE",
"283 0 LINE"
);
}
);
width = 773;
},
{
associatedMasterId = "15880153-BF49-4651-A558-57743A88E547";
layerId = "CE52D7F9-3492-461B-8CFC-011AE10DF672";
name = "new Layer";
paths = (
{
closed = 1;
nodes = (
"619 488 LINE SMOOTH",
"619 566 OFFCURVE",
"594 600 OFFCURVE",
"519 600 CURVE SMOOTH",
"70 600 LINE",
"70 0 LINE",
"198 0 LINE",
"198 499 LINE",
"443 499 LINE SMOOTH",
"477 499 OFFCURVE",
"490 482 OFFCURVE",
"490 448 CURVE SMOOTH",
"490 183 LINE",
"619 183 LINE"
);
},
{
closed = 1;
nodes = (
"667 0 LINE SMOOTH",
"771 0 OFFCURVE",
"825 57 OFFCURVE",
"825 171 CURVE SMOOTH",
"825 600 LINE",
"696 600 LINE",
"696 183 LINE SMOOTH",
"696 124 OFFCURVE",
"678 101 OFFCURVE",
"628 101 CURVE SMOOTH",
"410 101 LINE",
"410 419 LINE",
"281 419 LINE",
"281 0 LINE"
);
}
);
width = 889;
}
);
note = newsheqelsign;
unicode = 20AA;
},
{
glyphname = sheqel.ss01;
lastChange = "2025-05-01 05:36:53 +0000";
layers = (
{
associatedMasterId = "15880153-BF49-4651-A558-57743A88E547";
layerId = "9EAC427F-676B-42B9-AB08-10C69BFC3819";
paths = (
{
closed = 1;
nodes = (
"740 577 LINE",
"740 243 LINE SMOOTH",
"740 85 OFFCURVE",
"682 60 OFFCURVE",
"530 60 CURVE SMOOTH",
"406 60 LINE",
"376 362 LINE",
"306 362 LINE",
"343 0 LINE",
"530 0 LINE SMOOTH",
"729 0 OFFCURVE",
"810 45 OFFCURVE",
"810 243 CURVE SMOOTH",
"810 577 LINE"
);
},
{
closed = 1;
nodes = (
"584 526 OFFCURVE",
"552 577 OFFCURVE",
"381 577 CURVE SMOOTH",
"99 577 LINE",
"99 0 LINE",
"169 0 LINE",
"169 517 LINE",
"381 517 LINE SMOOTH",
"501 517 OFFCURVE",
"514 482 OFFCURVE",
"516 332 CURVE SMOOTH",
"516 208 LINE",
"586 208 LINE",
"586 332 LINE SMOOTH"
);
}
);
width = 921;
},
{
layerId = "15880153-BF49-4651-A558-57743A88E547";
paths = (
{
closed = 1;
nodes = (
"699 -6 OFFCURVE",
"774 45 OFFCURVE",
"799 134 CURVE SMOOTH",
"818 202 OFFCURVE",
"863 338 OFFCURVE",
"874 374 CURVE SMOOTH",
"896 446 OFFCURVE",
"868 481 OFFCURVE",
"849 486 CURVE SMOOTH",
"822 493 OFFCURVE",
"777 465 OFFCURVE",
"764 415 CURVE SMOOTH",
"758 392 OFFCURVE",
"702 205 OFFCURVE",
"680 154 CURVE SMOOTH",
"663 115 OFFCURVE",
"633 91 OFFCURVE",
"610 85 CURVE SMOOTH",
"566 73 OFFCURVE",
"514 62 OFFCURVE",
"453 84 CURVE SMOOTH",
"412 99 OFFCURVE",
"376 150 OFFCURVE",
"392 199 CURVE SMOOTH",
"397 214 OFFCURVE",
"406 237 OFFCURVE",
"417 267 CURVE SMOOTH",
"431 306 OFFCURVE",
"415 334 OFFCURVE",
"392 341 CURVE SMOOTH",
"367 349 OFFCURVE",
"328 328 OFFCURVE",
"316 298 CURVE SMOOTH",
"294 242 OFFCURVE",
"286 213 OFFCURVE",
"280 184 CURVE SMOOTH",
"266 115 OFFCURVE",
"322 12 OFFCURVE",
"407 -16 CURVE SMOOTH",
"471 -37 OFFCURVE",
"528 -45 OFFCURVE",
"620 -24 CURVE SMOOTH"
);
},
{
closed = 1;
nodes = (
"23 -37 OFFCURVE",
"48 -14 OFFCURVE",
"82 31 CURVE SMOOTH",
"124 89 OFFCURVE",
"303 441 OFFCURVE",
"332 506 CURVE SMOOTH",
"356 559 OFFCURVE",
"356 596 OFFCURVE",
"321 612 CURVE SMOOTH",
"287 628 OFFCURVE",
"248 595 OFFCURVE",
"219 529 CURVE SMOOTH",
"188 459 OFFCURVE",
"11 119 OFFCURVE",
"-15 70 CURVE SMOOTH",
"-43 20 OFFCURVE",
"-34 -14 OFFCURVE",
"-10 -24 CURVE SMOOTH"
);
},
{
closed = 1;
nodes = (
"546 130 OFFCURVE",
"586 149 OFFCURVE",
"601 182 CURVE SMOOTH",
"611 203 OFFCURVE",
"630 249 OFFCURVE",
"636 265 CURVE SMOOTH",
"678 379 OFFCURVE",
"607 477 OFFCURVE",
"515 502 CURVE SMOOTH",
"424 527 OFFCURVE",
"182 458 OFFCURVE",
"136 437 CURVE SMOOTH",
"90 416 OFFCURVE",
"27 369 OFFCURVE",
"42 327 CURVE SMOOTH",
"54 295 OFFCURVE",
"91 286 OFFCURVE",
"123 301 CURVE SMOOTH",
"159 317 OFFCURVE",
"357 410 OFFCURVE",
"472 390 CURVE SMOOTH",
"540 378 OFFCURVE",
"513 282 OFFCURVE",
"494 246 CURVE SMOOTH",
"471 203 OFFCURVE",
"478 167 OFFCURVE",
"511 149 CURVE SMOOTH"
);
}
);
width = 887;
},
{
associatedMasterId = "15880153-BF49-4651-A558-57743A88E547";
layerId = "E5899A72-38E4-4D55-831F-7A011BA846D7";
paths = (
{
closed = 1;
nodes = (
"650 577 LINE",
"650 229 LINE SMOOTH",
"650 168 OFFCURVE",
"633 146 OFFCURVE",
"589 146 CURVE SMOOTH",
"442 146 LINE",
"415 376 LINE",
"255 376 LINE",
"288 0 LINE",
"561 0 LINE SMOOTH",
"738 0 OFFCURVE",
"819 45 OFFCURVE",
"819 243 CURVE SMOOTH",
"819 577 LINE"
);
},
{
closed = 1;
nodes = (
"620 523 OFFCURVE",
"577 577 OFFCURVE",
"437 577 CURVE SMOOTH",
"62 577 LINE",
"62 0 LINE",
"231 0 LINE",
"231 431 LINE",
"393 431 LINE SMOOTH",
"441 431 OFFCURVE",
"460 408 OFFCURVE",
"460 346 CURVE SMOOTH",
"460 194 LINE",
"620 194 LINE",
"620 375 LINE SMOOTH"
);
}
);
width = 894;
}
);
leftKerningGroup = newsheqelsign;
leftMetricsKey = sheqel;
note = newsheqelsign;
rightKerningGroup = newsheqelsign;
rightMetricsKey = sheqel;
},
{
color = 5;
glyphname = sterling;
lastChange = "2025-04-25 10:58:20 +0000";
layers = (
{
layerId = "15880153-BF49-4651-A558-57743A88E547";
paths = (
{
closed = 1;
nodes = (
"152 -17 OFFCURVE",
"293 -5 OFFCURVE",
"369 -3 CURVE SMOOTH",
"427 -1 OFFCURVE",
"456 17 OFFCURVE",
"450 53 CURVE SMOOTH",
"444 88 OFFCURVE",
"415 99 OFFCURVE",
"381 100 CURVE SMOOTH",
"337 101 OFFCURVE",
"259 98 OFFCURVE",
"143 88 CURVE",
"174 141 OFFCURVE",
"189 184 OFFCURVE",
"201 236 CURVE SMOOTH",
"213 291 OFFCURVE",
"222 355 OFFCURVE",
"236 406 CURVE SMOOTH",
"254 471 OFFCURVE",
"283 486 OFFCURVE",
"328 486 CURVE SMOOTH",
"356 486 OFFCURVE",
"382 473 OFFCURVE",
"408 444 CURVE SMOOTH",
"431 418 OFFCURVE",
"451 409 OFFCURVE",
"472 416 CURVE SMOOTH",
"486 421 OFFCURVE",
"496 439 OFFCURVE",
"492 465 CURVE SMOOTH",
"486 507 OFFCURVE",
"439 573 OFFCURVE",
"340 573 CURVE SMOOTH",
"261 573 OFFCURVE",
"180 548 OFFCURVE",
"151 399 CURVE SMOOTH",
"134 313 OFFCURVE",
"119 227 OFFCURVE",
"96 171 CURVE SMOOTH",
"77 126 OFFCURVE",
"21 81 OFFCURVE",
"8 33 CURVE SMOOTH",
"0 4 OFFCURVE",
"15 -18 OFFCURVE",
"52 -18 CURVE SMOOTH"
);
},
{
closed = 1;
nodes = (
"38 250 OFFCURVE",
"50 238 OFFCURVE",
"72 238 CURVE SMOOTH",
"364 248 LINE SMOOTH",
"381 248 OFFCURVE",
"406 262 OFFCURVE",
"408 282 CURVE SMOOTH",
"409 301 OFFCURVE",
"380 319 OFFCURVE",
"356 316 CURVE SMOOTH",
"308 311 OFFCURVE",
"165 310 OFFCURVE",
"75 311 CURVE SMOOTH",
"46 311 OFFCURVE",
"36 300 OFFCURVE",
"36 273 CURVE SMOOTH"
);
}
);
width = 572;
}
);
unicode = 00A3;
},
{
color = 5;
glyphname = yen;
lastChange = "2025-04-25 09:14:12 +0000";
layers = (
{
layerId = "15880153-BF49-4651-A558-57743A88E547";
paths = (
{
closed = 1;
nodes = (
"417 355 OFFCURVE",
"486 432 OFFCURVE",
"585 546 CURVE SMOOTH",
"605 569 OFFCURVE",
"598 596 OFFCURVE",
"582 611 CURVE SMOOTH",
"558 631 OFFCURVE",
"527 626 OFFCURVE",
"495 594 CURVE SMOOTH",
"412 509 OFFCURVE",
"347 434 OFFCURVE",
"279 358 CURVE",
"298 344 LINE",
"284 395 OFFCURVE",
"257 502 OFFCURVE",
"234 571 CURVE SMOOTH",
"220 614 OFFCURVE",
"208 626 OFFCURVE",
"184 626 CURVE SMOOTH",
"157 626 OFFCURVE",
"125 604 OFFCURVE",
"133 564 CURVE SMOOTH",
"155 460 OFFCURVE",
"196 344 OFFCURVE",
"221 246 CURVE",
"311 245 LINE"
);
},
{
closed = 1;
nodes = (
"269 -15 OFFCURVE",
"272 42 OFFCURVE",
"295 136 CURVE SMOOTH",
"310 197 OFFCURVE",
"325 256 OFFCURVE",
"339 315 CURVE",
"225 314 LINE",
"204 228 OFFCURVE",
"186 145 OFFCURVE",
"170 69 CURVE SMOOTH",
"159 9 OFFCURVE",
"188 -14 OFFCURVE",
"215 -15 CURVE SMOOTH"
);
},
{
closed = 1;
nodes = (
"49 270 OFFCURVE",
"61 258 OFFCURVE",
"83 258 CURVE SMOOTH",
"502 266 LINE SMOOTH",
"519 266 OFFCURVE",
"544 280 OFFCURVE",
"546 300 CURVE SMOOTH",
"547 319 OFFCURVE",
"518 337 OFFCURVE",
"494 334 CURVE SMOOTH",
"425 327 OFFCURVE",
"217 330 OFFCURVE",
"86 331 CURVE SMOOTH",
"57 331 OFFCURVE",
"47 320 OFFCURVE",
"47 293 CURVE SMOOTH"
);
},
{
closed = 1;
nodes = (
"504 204 OFFCURVE",
"492 216 OFFCURVE",
"470 216 CURVE SMOOTH",
"51 208 LINE SMOOTH",
"34 208 OFFCURVE",
"9 194 OFFCURVE",
"7 174 CURVE SMOOTH",
"6 155 OFFCURVE",
"35 137 OFFCURVE",
"59 140 CURVE SMOOTH",
"128 147 OFFCURVE",
"336 144 OFFCURVE",
"467 143 CURVE SMOOTH",
"496 143 OFFCURVE",
"506 154 OFFCURVE",
"506 181 CURVE SMOOTH"
);
}
);
width = 568;
}
);
unicode = 00A5;
},
{
glyphname = alephsymbol;
lastChange = "2025-05-01 05:36:53 +0000";
layers = (
{
associatedMasterId = "15880153-BF49-4651-A558-57743A88E547";
layerId = "9EAC427F-676B-42B9-AB08-10C69BFC3819";
paths = (
{
closed = 1;
nodes = (
"685 477 LINE",
"372 658 LINE",
"59 477 LINE",
"372 297 LINE"
);
},
{
closed = 1;
nodes = (
"275 7 OFFCURVE",
"194 166 OFFCURVE",
"165 229 CURVE",
"145 238 OFFCURVE",
"144 225 OFFCURVE",
"148 207 CURVE SMOOTH",
"154 180 OFFCURVE",
"173 133 OFFCURVE",
"184 103 CURVE",
"184 97 OFFCURVE",
"177 82 OFFCURVE",
"177 82 CURVE",
"132 108 LINE SMOOTH",
"123 113 OFFCURVE",
"117 109 OFFCURVE",
"116 106 CURVE",
"95 124 LINE",
"101 149 LINE",
"101 149 OFFCURVE",
"102 150 OFFCURVE",
"115 143 CURVE SMOOTH",
"131 134 LINE",
"132 137 LINE",
"125 159 OFFCURVE",
"114 196 OFFCURVE",
"113 211 CURVE SMOOTH",
"110 249 OFFCURVE",
"126 263 OFFCURVE",
"151 254 CURVE",
"133 286 OFFCURVE",
"97 339 OFFCURVE",
"97 339 CURVE SMOOTH",
"97 339 OFFCURVE",
"116 363 OFFCURVE",
"138 350 CURVE",
"148 330 OFFCURVE",
"188 227 OFFCURVE",
"229 156 CURVE",
"251 167 OFFCURVE",
"245 213 OFFCURVE",
"243 245 CURVE",
"216 269 LINE",
"216 300 LINE",
"244 289 LINE",
"248 274 OFFCURVE",
"257 258 OFFCURVE",
"269 251 CURVE SMOOTH",
"312 227 LINE",
"316 219 LINE",
"310 205 LINE",
"295 213 LINE",
"295 206 OFFCURVE",
"292 142 OFFCURVE",
"246 123 CURVE",
"267 84 OFFCURVE",
"309 31 OFFCURVE",
"309 31 CURVE",
"310 24 LINE",
"275 7 LINE"
);
},
{
closed = 1;
nodes = (
"362 279 LINE",
"49 460 LINE",
"50 100 LINE",
"362 -82 LINE"
);
},
{
closed = 1;
nodes = (
"437 40 LINE",
"437 40 OFFCURVE",
"438 44 OFFCURVE",
"451 51 CURVE SMOOTH",
"466 59 LINE",
"467 65 LINE",
"459 77 OFFCURVE",
"449 102 OFFCURVE",
"448 118 CURVE SMOOTH",
"446 153 OFFCURVE",
"460 185 OFFCURVE",
"486 206 CURVE",
"468 217 OFFCURVE",
"433 232 OFFCURVE",
"433 232 CURVE SMOOTH",
"433 232 OFFCURVE",
"452 278 OFFCURVE",
"473 290 CURVE",
"481 277 OFFCURVE",
"523 222 OFFCURVE",
"561 193 CURVE",
"585 234 OFFCURVE",
"579 272 OFFCURVE",
"575 304 CURVE",
"549 295 LINE",
"549 327 LINE",
"578 348 LINE",
"581 339 OFFCURVE",
"589 332 OFFCURVE",
"601 339 CURVE SMOOTH",
"643 362 LINE",
"647 359 LINE",
"642 339 LINE",
"628 331 LINE",
"628 322 OFFCURVE",
"624 253 OFFCURVE",
"580 180 CURVE",
"600 166 OFFCURVE",
"641 159 OFFCURVE",
"641 159 CURVE",
"641 154 LINE",
"607 97 LINE",
"607 97 OFFCURVE",
"528 165 OFFCURVE",
"500 196 CURVE",
"480 182 OFFCURVE",
"479 167 OFFCURVE",
"482 153 CURVE SMOOTH",
"487 130 OFFCURVE",
"506 105 OFFCURVE",
"517 89 CURVE",
"517 82 OFFCURVE",
"510 59 OFFCURVE",
"510 59 CURVE",
"467 33 LINE SMOOTH",
"457 27 OFFCURVE",
"454 18 OFFCURVE",
"452 13 CURVE",
"431 7 LINE"
);
},
{
closed = 1;
nodes = (
"694 100 LINE",
"695 460 LINE",
"382 280 LINE",
"382 -82 LINE"
);
},
{
closed = 1;
nodes = (
"326 367 LINE SMOOTH",
"326 367 OFFCURVE",
"344 470 OFFCURVE",
"354 509 CURVE",
"334 519 OFFCURVE",
"321 511 OFFCURVE",
"310 503 CURVE SMOOTH",
"290 488 OFFCURVE",
"282 456 OFFCURVE",
"273 440 CURVE",
"267 436 OFFCURVE",
"244 429 OFFCURVE",
"244 429 CURVE",
"200 455 LINE SMOOTH",
"190 461 OFFCURVE",
"181 459 OFFCURVE",
"175 458 CURVE",
"160 473 LINE",
"190 483 LINE",
"190 483 OFFCURVE",
"193 484 OFFCURVE",
"207 477 CURVE SMOOTH",
"220 470 LINE",
"226 471 LINE",
"234 483 OFFCURVE",
"249 505 OFFCURVE",
"262 513 CURVE SMOOTH",
"292 532 OFFCURVE",
"327 537 OFFCURVE",
"356 526 CURVE",
"357 547 OFFCURVE",
"353 585 OFFCURVE",
"353 585 CURVE SMOOTH",
"353 585 OFFCURVE",
"402 592 OFFCURVE",
"423 581 CURVE",
"417 567 OFFCURVE",
"390 503 OFFCURVE",
"387 454 CURVE",
"430 455 OFFCURVE",
"462 480 OFFCURVE",
"487 499 CURVE",
"466 517 LINE",
"494 533 LINE",
"527 520 LINE",
"521 511 OFFCURVE",
"518 502 OFFCURVE",
"530 495 CURVE SMOOTH",
"573 471 LINE",
"571 466 LINE",
"551 459 LINE",
"537 468 LINE",
"529 464 OFFCURVE",
"469 431 OFFCURVE",
"383 432 CURVE",
"382 409 OFFCURVE",
"396 370 OFFCURVE",
"396 370 CURVE",
"391 366 LINE"
);
}
);
width = 744;
},
{
layerId = "15880153-BF49-4651-A558-57743A88E547";
paths = (
{
closed = 1;
nodes = (
"715 477 LINE",
"402 658 LINE",
"89 477 LINE",
"402 297 LINE"
);
},
{
closed = 1;
nodes = (
"305 7 OFFCURVE",
"224 166 OFFCURVE",
"195 229 CURVE",
"175 238 OFFCURVE",
"174 225 OFFCURVE",
"178 207 CURVE SMOOTH",
"184 180 OFFCURVE",
"203 133 OFFCURVE",
"214 103 CURVE",
"214 97 OFFCURVE",
"207 82 OFFCURVE",
"207 82 CURVE",
"162 108 LINE SMOOTH",
"153 113 OFFCURVE",
"147 109 OFFCURVE",
"146 106 CURVE",
"125 124 LINE",
"131 149 LINE",
"131 149 OFFCURVE",
"132 150 OFFCURVE",
"145 143 CURVE SMOOTH",
"161 134 LINE",
"162 137 LINE",
"155 159 OFFCURVE",
"144 196 OFFCURVE",
"143 211 CURVE SMOOTH",
"140 249 OFFCURVE",
"156 263 OFFCURVE",
"181 254 CURVE",
"163 286 OFFCURVE",
"127 339 OFFCURVE",
"127 339 CURVE SMOOTH",
"127 339 OFFCURVE",
"146 363 OFFCURVE",
"168 350 CURVE",
"178 330 OFFCURVE",
"218 227 OFFCURVE",
"259 156 CURVE",
"281 167 OFFCURVE",
"275 213 OFFCURVE",
"273 245 CURVE",
"246 269 LINE",
"246 300 LINE",
"274 289 LINE",
"278 274 OFFCURVE",
"287 258 OFFCURVE",
"299 251 CURVE SMOOTH",
"342 227 LINE",
"346 219 LINE",
"340 205 LINE",
"325 213 LINE",
"325 206 OFFCURVE",
"322 142 OFFCURVE",
"276 123 CURVE",
"297 84 OFFCURVE",
"339 31 OFFCURVE",
"339 31 CURVE",
"340 24 LINE",
"305 7 LINE"
);
},
{
closed = 1;
nodes = (
"392 279 LINE",
"79 460 LINE",
"80 100 LINE",
"392 -82 LINE"
);
},
{
closed = 1;
nodes = (
"467 40 LINE",
"467 40 OFFCURVE",
"468 44 OFFCURVE",
"481 51 CURVE SMOOTH",
"496 59 LINE",
"497 65 LINE",
"489 77 OFFCURVE",
"479 102 OFFCURVE",
"478 118 CURVE SMOOTH",
"476 153 OFFCURVE",
"490 185 OFFCURVE",
"516 206 CURVE",
"498 217 OFFCURVE",
"463 232 OFFCURVE",
"463 232 CURVE SMOOTH",
"463 232 OFFCURVE",
"482 278 OFFCURVE",
"503 290 CURVE",
"511 277 OFFCURVE",
"553 222 OFFCURVE",
"591 193 CURVE",
"615 234 OFFCURVE",
"609 272 OFFCURVE",
"605 304 CURVE",
"579 295 LINE",
"579 327 LINE",
"608 348 LINE",
"611 339 OFFCURVE",
"619 332 OFFCURVE",
"631 339 CURVE SMOOTH",
"673 362 LINE",
"677 359 LINE",
"672 339 LINE",
"658 331 LINE",
"658 322 OFFCURVE",
"654 253 OFFCURVE",
"610 180 CURVE",
"630 166 OFFCURVE",
"671 159 OFFCURVE",
"671 159 CURVE",
"671 154 LINE",
"637 97 LINE",
"637 97 OFFCURVE",
"558 165 OFFCURVE",
"530 196 CURVE",
"510 182 OFFCURVE",
"509 167 OFFCURVE",
"512 153 CURVE SMOOTH",
"517 130 OFFCURVE",
"536 105 OFFCURVE",
"547 89 CURVE",
"547 82 OFFCURVE",
"540 59 OFFCURVE",
"540 59 CURVE",
"497 33 LINE SMOOTH",
"487 27 OFFCURVE",
"484 18 OFFCURVE",
"482 13 CURVE",
"461 7 LINE"
);
},
{
closed = 1;
nodes = (
"724 100 LINE",
"725 460 LINE",
"412 280 LINE",
"412 -82 LINE"
);
},
{
closed = 1;
nodes = (
"356 367 LINE SMOOTH",
"356 367 OFFCURVE",
"374 470 OFFCURVE",
"384 509 CURVE",
"364 519 OFFCURVE",
"351 511 OFFCURVE",
"340 503 CURVE SMOOTH",
"320 488 OFFCURVE",
"312 456 OFFCURVE",
"303 440 CURVE",
"297 436 OFFCURVE",
"274 429 OFFCURVE",
"274 429 CURVE",
"230 455 LINE SMOOTH",
"220 461 OFFCURVE",
"211 459 OFFCURVE",
"205 458 CURVE",
"190 473 LINE",
"220 483 LINE",
"220 483 OFFCURVE",
"223 484 OFFCURVE",
"237 477 CURVE SMOOTH",
"250 470 LINE",
"256 471 LINE",
"264 483 OFFCURVE",
"279 505 OFFCURVE",
"292 513 CURVE SMOOTH",
"322 532 OFFCURVE",
"357 537 OFFCURVE",
"386 526 CURVE",
"387 547 OFFCURVE",
"383 585 OFFCURVE",
"383 585 CURVE SMOOTH",
"383 585 OFFCURVE",
"432 592 OFFCURVE",
"453 581 CURVE",
"447 567 OFFCURVE",
"420 503 OFFCURVE",
"417 454 CURVE",
"460 455 OFFCURVE",
"492 480 OFFCURVE",
"517 499 CURVE",
"496 517 LINE",
"524 533 LINE",
"557 520 LINE",
"551 511 OFFCURVE",
"548 502 OFFCURVE",
"560 495 CURVE SMOOTH",
"603 471 LINE",
"601 466 LINE",
"581 459 LINE",
"567 468 LINE",
"559 464 OFFCURVE",
"499 431 OFFCURVE",
"413 432 CURVE",
"412 409 OFFCURVE",
"426 370 OFFCURVE",
"426 370 CURVE",
"421 366 LINE"
);
}
);
width = 788;
},
{
associatedMasterId = "15880153-BF49-4651-A558-57743A88E547";
layerId = "E5899A72-38E4-4D55-831F-7A011BA846D7";
paths = (
{
closed = 1;
nodes = (
"685 477 LINE",
"372 658 LINE",
"59 477 LINE",
"372 297 LINE"
);
},
{
closed = 1;
nodes = (
"275 7 OFFCURVE",
"194 166 OFFCURVE",
"165 229 CURVE",
"145 238 OFFCURVE",
"144 225 OFFCURVE",
"148 207 CURVE SMOOTH",
"154 180 OFFCURVE",
"173 133 OFFCURVE",
"184 103 CURVE",
"184 97 OFFCURVE",
"177 82 OFFCURVE",
"177 82 CURVE",
"132 108 LINE SMOOTH",
"123 113 OFFCURVE",
"117 109 OFFCURVE",
"116 106 CURVE",
"95 124 LINE",
"101 149 LINE",
"101 149 OFFCURVE",
"102 150 OFFCURVE",
"115 143 CURVE SMOOTH",
"131 134 LINE",
"132 137 LINE",
"125 159 OFFCURVE",
"114 196 OFFCURVE",
"113 211 CURVE SMOOTH",
"110 249 OFFCURVE",
"126 263 OFFCURVE",
"151 254 CURVE",
"133 286 OFFCURVE",
"97 339 OFFCURVE",
"97 339 CURVE SMOOTH",
"97 339 OFFCURVE",
"116 363 OFFCURVE",
"138 350 CURVE",
"148 330 OFFCURVE",
"188 227 OFFCURVE",
"229 156 CURVE",
"251 167 OFFCURVE",
"245 213 OFFCURVE",
"243 245 CURVE",
"216 269 LINE",
"216 300 LINE",
"244 289 LINE",
"248 274 OFFCURVE",
"257 258 OFFCURVE",
"269 251 CURVE SMOOTH",
"312 227 LINE",
"316 219 LINE",
"310 205 LINE",
"295 213 LINE",
"295 206 OFFCURVE",
"292 142 OFFCURVE",
"246 123 CURVE",
"267 84 OFFCURVE",
"309 31 OFFCURVE",
"309 31 CURVE",
"310 24 LINE",
"275 7 LINE"
);
},
{
closed = 1;
nodes = (
"362 279 LINE",
"49 460 LINE",
"50 100 LINE",
"362 -82 LINE"
);
},
{
closed = 1;
nodes = (
"437 40 LINE",
"437 40 OFFCURVE",
"438 44 OFFCURVE",
"451 51 CURVE SMOOTH",
"466 59 LINE",
"467 65 LINE",
"459 77 OFFCURVE",
"449 102 OFFCURVE",
"448 118 CURVE SMOOTH",
"446 153 OFFCURVE",
"460 185 OFFCURVE",
"486 206 CURVE",
"468 217 OFFCURVE",
"433 232 OFFCURVE",
"433 232 CURVE SMOOTH",
"433 232 OFFCURVE",
"452 278 OFFCURVE",
"473 290 CURVE",
"481 277 OFFCURVE",
"523 222 OFFCURVE",
"561 193 CURVE",
"585 234 OFFCURVE",
"579 272 OFFCURVE",
"575 304 CURVE",
"549 295 LINE",
"549 327 LINE",
"578 348 LINE",
"581 339 OFFCURVE",
"589 332 OFFCURVE",
"601 339 CURVE SMOOTH",
"643 362 LINE",
"647 359 LINE",
"642 339 LINE",
"628 331 LINE",
"628 322 OFFCURVE",
"624 253 OFFCURVE",
"580 180 CURVE",
"600 166 OFFCURVE",
"641 159 OFFCURVE",
"641 159 CURVE",
"641 154 LINE",
"607 97 LINE",
"607 97 OFFCURVE",
"528 165 OFFCURVE",
"500 196 CURVE",
"480 182 OFFCURVE",
"479 167 OFFCURVE",
"482 153 CURVE SMOOTH",
"487 130 OFFCURVE",
"506 105 OFFCURVE",
"517 89 CURVE",
"517 82 OFFCURVE",
"510 59 OFFCURVE",
"510 59 CURVE",
"467 33 LINE SMOOTH",
"457 27 OFFCURVE",
"454 18 OFFCURVE",
"452 13 CURVE",
"431 7 LINE"
);
},
{
closed = 1;
nodes = (
"694 100 LINE",
"695 460 LINE",
"382 280 LINE",
"382 -82 LINE"
);
},
{
closed = 1;
nodes = (
"326 367 LINE SMOOTH",
"326 367 OFFCURVE",
"344 470 OFFCURVE",
"354 509 CURVE",
"334 519 OFFCURVE",
"321 511 OFFCURVE",
"310 503 CURVE SMOOTH",
"290 488 OFFCURVE",
"282 456 OFFCURVE",
"273 440 CURVE",
"267 436 OFFCURVE",
"244 429 OFFCURVE",
"244 429 CURVE",
"200 455 LINE SMOOTH",
"190 461 OFFCURVE",
"181 459 OFFCURVE",
"175 458 CURVE",
"160 473 LINE",
"190 483 LINE",
"190 483 OFFCURVE",
"193 484 OFFCURVE",
"207 477 CURVE SMOOTH",
"220 470 LINE",
"226 471 LINE",
"234 483 OFFCURVE",
"249 505 OFFCURVE",
"262 513 CURVE SMOOTH",
"292 532 OFFCURVE",
"327 537 OFFCURVE",
"356 526 CURVE",
"357 547 OFFCURVE",
"353 585 OFFCURVE",
"353 585 CURVE SMOOTH",
"353 585 OFFCURVE",
"402 592 OFFCURVE",
"423 581 CURVE",
"417 567 OFFCURVE",
"390 503 OFFCURVE",
"387 454 CURVE",
"430 455 OFFCURVE",
"462 480 OFFCURVE",
"487 499 CURVE",
"466 517 LINE",
"494 533 LINE",
"527 520 LINE",
"521 511 OFFCURVE",
"518 502 OFFCURVE",
"530 495 CURVE SMOOTH",
"573 471 LINE",
"571 466 LINE",
"551 459 LINE",
"537 468 LINE",
"529 464 OFFCURVE",
"469 431 OFFCURVE",
"383 432 CURVE",
"382 409 OFFCURVE",
"396 370 OFFCURVE",
"396 370 CURVE",
"391 366 LINE"
);
}
);
width = 744;
}
);
rightMetricsKey = "=|";
unicode = 2135;
},
{
glyphname = plus;
lastChange = "2016-11-16 03:53:18 +0000";
layers = (
{
layerId = "15880153-BF49-4651-A558-57743A88E547";
paths = (
{
closed = 1;
nodes = (
"187 62 OFFCURVE",
"206 71 OFFCURVE",
"219 99 CURVE SMOOTH",
"232 127 OFFCURVE",
"319 416 OFFCURVE",
"329 445 CURVE SMOOTH",
"337 473 OFFCURVE",
"314 498 OFFCURVE",
"298 501 CURVE SMOOTH",
"275 505 OFFCURVE",
"250 486 OFFCURVE",
"245 470 CURVE SMOOTH",
"234 436 OFFCURVE",
"134 137 OFFCURVE",
"130 115 CURVE SMOOTH",
"128 94 OFFCURVE",
"138 70 OFFCURVE",
"158 67 CURVE SMOOTH"
);
},
{
closed = 1;
nodes = (
"427 237 OFFCURVE",
"452 268 OFFCURVE",
"454 285 CURVE SMOOTH",
"458 309 OFFCURVE",
"437 327 OFFCURVE",
"421 327 CURVE SMOOTH",
"387 327 OFFCURVE",
"86 335 OFFCURVE",
"65 331 CURVE SMOOTH",
"43 327 OFFCURVE",
"20 309 OFFCURVE",
"17 289 CURVE SMOOTH",
"12 258 OFFCURVE",
"23 242 OFFCURVE",
"52 238 CURVE SMOOTH",
"80 234 OFFCURVE",
"369 237 OFFCURVE",
"399 237 CURVE SMOOTH"
);
}
);
width = 464;
}
);
leftKerningGroup = middle;
leftMetricsKey = hyphen;
rightKerningGroup = middle;
rightMetricsKey = hyphen;
unicode = 002B;
},
{
glyphname = minus;
lastChange = "2016-11-16 03:53:18 +0000";
layers = (
{
layerId = "15880153-BF49-4651-A558-57743A88E547";
paths = (
{
closed = 1;
nodes = (
"436 237 OFFCURVE",
"456 268 OFFCURVE",
"456 285 CURVE SMOOTH",
"456 309 OFFCURVE",
"433 327 OFFCURVE",
"417 327 CURVE SMOOTH",
"383 327 OFFCURVE",
"81 335 OFFCURVE",
"60 331 CURVE SMOOTH",
"39 327 OFFCURVE",
"18 309 OFFCURVE",
"18 289 CURVE SMOOTH",
"18 258 OFFCURVE",
"31 242 OFFCURVE",
"60 238 CURVE SMOOTH",
"89 234 OFFCURVE",
"378 237 OFFCURVE",
"408 237 CURVE SMOOTH"
);
}
);
width = 467;
}
);
leftKerningGroup = middle;
leftMetricsKey = hyphen;
rightKerningGroup = middle;
rightMetricsKey = hyphen;
unicode = 2212;
},
{
glyphname = multiply;
lastChange = "2016-11-16 03:08:14 +0000";
layers = (
{
layerId = "15880153-BF49-4651-A558-57743A88E547";
paths = (
{
closed = 1;
nodes = (
"103 149 OFFCURVE",
"360 355 OFFCURVE",
"375 373 CURVE SMOOTH",
"391 390 OFFCURVE",
"398 417 OFFCURVE",
"386 432 CURVE SMOOTH",
"368 454 OFFCURVE",
"347 456 OFFCURVE",
"321 438 CURVE SMOOTH",
"294 420 OFFCURVE",
"53 216 OFFCURVE",
"28 195 CURVE SMOOTH",
"6 175 OFFCURVE",
"7 139 OFFCURVE",
"17 127 CURVE SMOOTH",
"31 111 OFFCURVE",
"60 114 OFFCURVE",
"74 125 CURVE SMOOTH"
);
},
{
closed = 1;
nodes = (
"329 125 OFFCURVE",
"336 155 OFFCURVE",
"327 167 CURVE SMOOTH",
"311 195 OFFCURVE",
"174 440 OFFCURVE",
"161 454 CURVE SMOOTH",
"148 469 OFFCURVE",
"122 474 OFFCURVE",
"104 462 CURVE SMOOTH",
"76 444 OFFCURVE",
"67 425 OFFCURVE",
"77 400 CURVE SMOOTH",
"87 374 OFFCURVE",
"227 144 OFFCURVE",
"241 122 CURVE SMOOTH",
"255 99 OFFCURVE",
"292 101 OFFCURVE",
"307 111 CURVE SMOOTH"
);
}
);
width = 403;
}
);
unicode = 00D7;
},
{
glyphname = divide;
lastChange = "2025-05-01 05:36:53 +0000";
layers = (
{
components = (
{
name = period;
transform = "{0.9, 0, 0, 0.9, 232, 380}";
},
{
name = period;
transform = "{0.9, 0, 0, 0.9, 173, 79}";
}
);
layerId = "15880153-BF49-4651-A558-57743A88E547";
paths = (
{
closed = 1;
nodes = (
"438 245 OFFCURVE",
"458 276 OFFCURVE",
"458 293 CURVE SMOOTH",
"458 317 OFFCURVE",
"435 335 OFFCURVE",
"419 335 CURVE SMOOTH",
"385 335 OFFCURVE",
"83 343 OFFCURVE",
"62 339 CURVE SMOOTH",
"41 335 OFFCURVE",
"20 317 OFFCURVE",
"20 297 CURVE SMOOTH",
"20 266 OFFCURVE",
"33 250 OFFCURVE",
"62 246 CURVE SMOOTH",
"91 242 OFFCURVE",
"380 245 OFFCURVE",
"410 245 CURVE SMOOTH"
);
}
);
width = 466;
}
);
leftKerningGroup = bottom;
leftMetricsKey = hyphen;
rightKerningGroup = bottom;
rightMetricsKey = hyphen;
unicode = 00F7;
},
{
glyphname = equal;
lastChange = "2016-11-16 02:00:52 +0000";
layers = (
{
layerId = "15880153-BF49-4651-A558-57743A88E547";
paths = (
{
closed = 1;
nodes = (
"405 161 OFFCURVE",
"425 192 OFFCURVE",
"425 209 CURVE SMOOTH",
"425 233 OFFCURVE",
"402 251 OFFCURVE",
"386 251 CURVE SMOOTH",
"352 251 OFFCURVE",
"70 259 OFFCURVE",
"49 255 CURVE SMOOTH",
"28 251 OFFCURVE",
"7 233 OFFCURVE",
"7 213 CURVE SMOOTH",
"7 182 OFFCURVE",
"20 166 OFFCURVE",
"49 162 CURVE SMOOTH",
"78 158 OFFCURVE",
"347 161 OFFCURVE",
"377 161 CURVE SMOOTH"
);
},
{
closed = 1;
nodes = (
"450 322 OFFCURVE",
"470 353 OFFCURVE",
"470 370 CURVE SMOOTH",
"470 394 OFFCURVE",
"447 412 OFFCURVE",
"431 412 CURVE SMOOTH",
"397 412 OFFCURVE",
"115 420 OFFCURVE",
"94 416 CURVE SMOOTH",
"73 412 OFFCURVE",
"52 394 OFFCURVE",
"52 374 CURVE SMOOTH",
"52 343 OFFCURVE",
"65 327 OFFCURVE",
"94 323 CURVE SMOOTH",
"123 319 OFFCURVE",
"392 322 OFFCURVE",
"422 322 CURVE SMOOTH"
);
}
);
width = 467;
}
);
leftKerningGroup = middle;
rightKerningGroup = middle;
unicode = 003D;
},
{
glyphname = greater;
lastChange = "2016-11-16 03:08:20 +0000";
layers = (
{
layerId = "15880153-BF49-4651-A558-57743A88E547";
paths = (
{
closed = 1;
nodes = (
"157 139 OFFCURVE",
"326 198 OFFCURVE",
"385 247 CURVE SMOOTH",
"413 270 OFFCURVE",
"410 309 OFFCURVE",
"377 327 CURVE SMOOTH",
"297 370 OFFCURVE",
"218 415 OFFCURVE",
"137 458 CURVE SMOOTH",
"107 474 OFFCURVE",
"74 467 OFFCURVE",
"61 440 CURVE SMOOTH",
"48 413 OFFCURVE",
"72 395 OFFCURVE",
"100 377 CURVE SMOOTH",
"180 325 OFFCURVE",
"259 304 OFFCURVE",
"338 267 CURVE",
"310 304 LINE",
"256 271 OFFCURVE",
"94 237 OFFCURVE",
"40 196 CURVE SMOOTH",
"15 177 OFFCURVE",
"4 153 OFFCURVE",
"18 125 CURVE SMOOTH",
"32 98 OFFCURVE",
"65 108 OFFCURVE",
"98 119 CURVE SMOOTH"
);
}
);
width = 440;
}
);
rightKerningGroup = middle;
unicode = 003E;
},
{
glyphname = asciitilde;
lastChange = "2016-11-16 02:02:41 +0000";
layers = (
{
layerId = "15880153-BF49-4651-A558-57743A88E547";
paths = (
{
closed = 1;
nodes = (
"96 190 OFFCURVE",
"115 208 OFFCURVE",
"116 246 CURVE SMOOTH",
"117 274 OFFCURVE",
"139 295 OFFCURVE",
"158 290 CURVE SMOOTH",
"205 278 OFFCURVE",
"215 203 OFFCURVE",
"310 198 CURVE SMOOTH",
"380 194 OFFCURVE",
"441 232 OFFCURVE",
"447 310 CURVE SMOOTH",
"449 335 OFFCURVE",
"446 367 OFFCURVE",
"421 368 CURVE SMOOTH",
"390 369 OFFCURVE",
"366 348 OFFCURVE",
"365 316 CURVE SMOOTH",
"364 291 OFFCURVE",
"338 275 OFFCURVE",
"322 277 CURVE SMOOTH",
"297 280 OFFCURVE",
"281 303 OFFCURVE",
"251 333 CURVE SMOOTH",
"231 353 OFFCURVE",
"204 382 OFFCURVE",
"164 385 CURVE SMOOTH",
"127 388 OFFCURVE",
"94 370 OFFCURVE",
"68 352 CURVE SMOOTH",
"37 330 OFFCURVE",
"25 297 OFFCURVE",
"23 254 CURVE SMOOTH",
"21 217 OFFCURVE",
"35 192 OFFCURVE",
"71 191 CURVE SMOOTH"
);
}
);
width = 470;
}
);
leftKerningGroup = middle;
rightKerningGroup = middle;
unicode = 007E;
},
{
glyphname = asciicircum;
lastChange = "2016-11-16 03:07:33 +0000";
layers = (
{
layerId = "15880153-BF49-4651-A558-57743A88E547";
paths = (
{
closed = 1;
nodes = (
"351 398 OFFCURVE",
"372 433 OFFCURVE",
"363 455 CURVE SMOOTH",
"356 473 OFFCURVE",
"318 616 OFFCURVE",
"310 638 CURVE SMOOTH",
"306 650 OFFCURVE",
"285 675 OFFCURVE",
"265 677 CURVE SMOOTH",
"230 681 OFFCURVE",
"195 650 OFFCURVE",
"180 627 CURVE SMOOTH",
"165 603 OFFCURVE",
"77 503 OFFCURVE",
"52 465 CURVE SMOOTH",
"38 445 OFFCURVE",
"50 415 OFFCURVE",
"72 411 CURVE SMOOTH",
"94 407 OFFCURVE",
"131 430 OFFCURVE",
"152 457 CURVE SMOOTH",
"278 617 LINE",
"236 622 LINE",
"251 558 OFFCURVE",
"275 453 OFFCURVE",
"281 431 CURVE SMOOTH",
"287 410 OFFCURVE",
"307 393 OFFCURVE",
"322 395 CURVE SMOOTH"
);
}
);
width = 330;
}
);
leftKerningGroup = top;
rightKerningGroup = top;
unicode = 005E;
},
{
glyphname = percent;
lastChange = "2016-11-16 02:02:41 +0000";
layers = (
{
layerId = "15880153-BF49-4651-A558-57743A88E547";
paths = (
{
closed = 1;
nodes = (
"64 -7 OFFCURVE",
"100 -8 OFFCURVE",
"110 4 CURVE SMOOTH",
"187 96 OFFCURVE",
"493 405 OFFCURVE",
"565 505 CURVE SMOOTH",
"578 523 OFFCURVE",
"581 553 OFFCURVE",
"566 562 CURVE SMOOTH",
"542 577 OFFCURVE",
"513 566 OFFCURVE",
"495 546 CURVE SMOOTH",
"366 403 OFFCURVE",
"187 211 OFFCURVE",
"54 60 CURVE",
"39 40 OFFCURVE",
"39 13 OFFCURVE",
"51 3 CURVE SMOOTH"
);
},
{
closed = 1;
nodes = (
"495 -13 OFFCURVE",
"552 73 OFFCURVE",
"557 149 CURVE SMOOTH",
"562 224 OFFCURVE",
"531 273 OFFCURVE",
"457 273 CURVE SMOOTH",
"382 273 OFFCURVE",
"311 192 OFFCURVE",
"306 112 CURVE SMOOTH",
"302 42 OFFCURVE",
"333 -13 OFFCURVE",
"406 -13 CURVE SMOOTH"
);
},
{
closed = 1;
nodes = (
"394 64 OFFCURVE",
"380 85 OFFCURVE",
"381 105 CURVE SMOOTH",
"382 126 OFFCURVE",
"392 147 OFFCURVE",
"394 147 CURVE SMOOTH",
"400 147 OFFCURVE",
"402 151 OFFCURVE",
"407 158 CURVE SMOOTH",
"411 164 OFFCURVE",
"410 171 OFFCURVE",
"412 173 CURVE SMOOTH",
"417 178 OFFCURVE",
"431 198 OFFCURVE",
"450 198 CURVE SMOOTH",
"480 198 OFFCURVE",
"485 169 OFFCURVE",
"484 147 CURVE SMOOTH",
"482 111 OFFCURVE",
"451 64 OFFCURVE",
"412 64 CURVE SMOOTH"
);
},
{
closed = 1;
nodes = (
"253 296 OFFCURVE",
"310 382 OFFCURVE",
"314 459 CURVE SMOOTH",
"318 533 OFFCURVE",
"289 582 OFFCURVE",
"215 582 CURVE SMOOTH",
"140 582 OFFCURVE",
"67 501 OFFCURVE",
"64 421 CURVE SMOOTH",
"61 352 OFFCURVE",
"91 296 OFFCURVE",
"164 296 CURVE SMOOTH"
);
},
{
closed = 1;
nodes = (
"148 377 OFFCURVE",
"142 410 OFFCURVE",
"146 439 CURVE SMOOTH",
"150 470 OFFCURVE",
"183 503 OFFCURVE",
"206 503 CURVE SMOOTH",
"235 503 OFFCURVE",
"239 476 OFFCURVE",
"238 457 CURVE SMOOTH",
"236 421 OFFCURVE",
"208 377 OFFCURVE",
"171 377 CURVE SMOOTH"
);
}
);
width = 620;
}
);
unicode = 0025;
},
